{"glyphs":{"0":{"ha":600,"x_min":43,"x_max":557,"o":"m 300 -10 q 109 84.5 175 -10 q 43 354 43 179 q 72.5 552.5 43 472 q 159.5 674 102 633 q 300 715 217 715 q 491.5 623 426 715 q 557 355 557 531 q 527.5 156.5 557 238 q 441 32.5 498 75 q 300 -10 384 -10 m 300 95 q 400.5 158 368 95 q 433 355 433 221 q 400.5 549.5 433 489 q 300 610 368 610 q 200 549.5 233 610 q 167 355 167 489 q 200 158 167 221 q 300 95 233 95"},"1":{"ha":600,"x_min":101,"x_max":553,"o":"m 498 0 l 156 0 q 115.5 14.5 130 0 q 101 54 101 29 q 115.5 93 101 80 q 156 106 130 106 l 268 106 l 268 559 l 183 508 q 147.5 499.5 164 497 q 119.5 513.5 131 502 q 104 541 108 525 q 106.5 573.5 100 557 q 132 601 113 590 l 270 684 q 310 704.5 290 696 q 347 713 330 713 q 382 701.5 368 713 q 396 664 396 690 l 396 106 l 498 106 q 538.5 93 524 106 q 553 54 553 80 q 538.5 14 553 28 q 498 0 524 0"},"2":{"ha":600,"x_min":56.32,"x_max":556,"o":"m 501 0 l 133 0 q 86.5 14.5 101 0 q 72 57 72 29 q 81 90 72 74 q 107 124 90 106 l 308 338 q 374 425.5 354 386 q 394 505 394 465 q 362.5 581 394 555 q 271 607 331 607 q 203 597.5 237 607 q 134 565 169 588 q 100.5 555 116 553 q 73.5 568 85 557 q 58 595 62 579 q 59.5 627.5 54 611 q 83 656 65 644 q 179.5 700 126 685 q 287 715 233 715 q 415 692 363 715 q 494 625 467 669 q 521 518 521 581 q 507.5 436 521 476 q 466.5 355 494 396 q 395 268 439 314 l 240 106 l 501 106 q 542 93 528 106 q 556 54 556 80 q 542 14 556 28 q 501 0 528 0"},"3":{"ha":600,"x_min":41.33,"x_max":541,"o":"m 286 -10 q 174 4 232 -10 q 73 46 116 18 q 46 76 53 59 q 42.5 108.5 39 93 q 57.5 135 46 124 q 86.5 148 69 146 q 125 139 104 150 q 204 107.5 166 117 q 282 98 242 98 q 356 110 326 98 q 401.5 146 386 122 q 417 204 417 170 q 383.5 278.5 417 254 q 286 303 350 303 l 222 303 q 179.5 317 194 303 q 165 356 165 331 q 179.5 395 165 381 q 222 409 194 409 l 274 409 q 339 421.5 312 409 q 381 457 366 434 q 396 513 396 480 q 365.5 583 396 559 q 277 607 335 607 q 207.5 598.5 240 607 q 136 567 175 590 q 101.5 558 118 556 q 74 571 85 560 q 59 597.5 63 582 q 61 629.5 55 613 q 86 658 67 646 q 181 700.5 129 686 q 288 715 233 715 q 413 692.5 361 715 q 492.5 628.5 465 670 q 520 528 520 587 q 504 451.5 520 486 q 459 393 488 417 q 412 366 438 376 q 501 312 468 351 q 541 193 541 264 q 510 85 541 131 q 422 14.5 479 39 q 286 -10 365 -10"},"4":{"ha":600,"x_min":34,"x_max":584,"o":"m 413 -8 q 366 8.5 383 -8 q 349 56 349 25 l 349 134 l 102 134 q 52.5 147 71 134 q 34 188 34 160 q 42.5 223 34 204 q 73 273 51 242 l 347 670 q 378 702 361 691 q 417 713 395 713 q 460 697.5 443 713 q 477 649 477 682 l 477 240 l 526 240 q 569.5 226.5 555 240 q 584 187 584 213 q 569.5 147.5 584 161 q 526 134 555 134 l 477 134 l 477 56 q 460 8.5 477 25 q 413 -8 443 -8 m 165 240 l 349 240 l 349 509 l 165 240"},"5":{"ha":600,"x_min":67.28,"x_max":562,"o":"m 306 -10 q 198 4 253 -10 q 97 47 143 18 q 71.5 75.5 78 59 q 68.5 108.5 65 92 q 83.5 136.5 72 125 q 111.5 150 95 148 q 148 141 128 152 q 223 109 185 120 q 304 98 261 98 q 376 113 346 98 q 422 155 406 128 q 438 218 438 182 q 404 308.5 438 274 q 311 343 370 343 q 249 332.5 279 343 q 190 296 219 322 q 167 280.5 181 288 q 137 273 153 273 q 99 286 112 273 q 86 322 86 299 l 86 649 q 100.5 690.5 86 676 q 142 705 115 705 l 471 705 q 512.5 691.5 498 705 q 527 652 527 678 q 512.5 613 527 627 q 471 599 498 599 l 211 599 l 211 408 q 247 429 227 420 q 341 448 290 448 q 457.5 419.5 408 448 q 534.5 340.5 507 391 q 562 223 562 290 q 531 101.5 562 154 q 442.5 19.5 500 49 q 306 -10 385 -10"},"6":{"ha":600,"x_min":52,"x_max":559,"o":"m 326 -10 q 177.5 31.5 239 -10 q 84 151 116 73 q 52 340 52 229 q 72.5 499.5 52 430 q 132 617 93 569 q 227.5 690 171 665 q 355 715 284 715 q 444.5 701.5 399 715 q 530 661 490 688 q 551 635 546 651 q 552.5 603.5 556 619 q 538.5 576.5 549 588 q 512 562.5 528 565 q 477 571 496 560 q 413 599 443 591 q 353 607 383 607 q 255 580 295 607 q 194.5 499 215 553 q 174 364 174 445 l 174 335 q 196 377 182 358 q 261 432.5 221 413 q 350 452 301 452 q 458 423 411 452 q 532 343 505 394 q 559 226 559 292 q 529.5 104.5 559 158 q 447.5 20.5 500 51 q 326 -10 395 -10 m 319 92 q 382.5 108 355 92 q 425 153.5 410 124 q 440 221 440 183 q 425 289 440 260 q 382.5 334.5 410 318 q 319 351 355 351 q 256 334.5 283 351 q 213.5 289 229 318 q 198 221 198 260 q 213.5 153.5 198 183 q 256 108 229 124 q 319 92 283 92"},"7":{"ha":600,"x_min":47,"x_max":551,"o":"m 172 -8 q 134 3 149 -8 q 116 32.5 119 14 q 125 74 113 51 l 404 598 l 103 598 q 61.5 612 76 598 q 47 651 47 626 q 61.5 691 47 677 q 103 705 76 705 l 490 705 q 534 691 517 705 q 551 651 551 677 q 545 612.5 551 629 q 529 577 539 596 l 245 34 q 216.5 2 234 12 q 172 -8 199 -8"},"8":{"ha":600,"x_min":38,"x_max":562,"o":"m 300 -10 q 159.5 13.5 218 -10 q 69.5 82 101 37 q 38 190 38 127 q 58.5 278.5 38 240 q 115 341 79 317 q 159 362 135 355 q 95 412 121 379 q 56 525 56 459 q 86 627.5 56 585 q 171 692.5 116 670 q 300 715 226 715 q 430 692.5 375 715 q 515 627.5 485 670 q 545 525 545 585 q 527.5 444 545 481 q 479 383 510 407 q 443 362 462 370 q 519 313 487 347 q 562 190 562 264 q 530.5 82 562 127 q 440.5 13.5 499 37 q 300 -10 382 -10 m 300 90 q 407 117.5 371 90 q 443 199 443 145 q 407 280 443 253 q 300 307 371 307 q 193.5 280 230 307 q 157 199 157 253 q 193.5 117.5 157 145 q 300 90 230 90 m 300 407 q 368 419.5 340 407 q 411 456 396 432 q 426 512 426 480 q 392.5 587.5 426 560 q 300 615 359 615 q 208 587.5 241 615 q 175 512 175 560 q 208 435 175 463 q 300 407 241 407"},"9":{"ha":600,"x_min":41,"x_max":548,"o":"m 245 -10 q 156 3.5 202 -10 q 70 44 110 17 q 49 70 54 54 q 47.5 101.5 44 86 q 61.5 128.5 51 117 q 88 142.5 72 140 q 123 134 104 145 q 187 106 157 114 q 247 98 217 98 q 345 125 305 98 q 405.5 206.5 385 152 q 426 341 426 261 l 426 369 q 405 329 418 347 q 339 272.5 379 292 q 250 253 299 253 q 142.5 282 190 253 q 68 362.5 95 311 q 41 479 41 414 q 70.5 601 41 548 q 153 684.5 100 654 q 274 715 206 715 q 423 674 362 715 q 516 554.5 484 633 q 548 365 548 476 q 527.5 205.5 548 275 q 468 88 507 136 q 372.5 15 429 40 q 245 -10 316 -10 m 282 355 q 345.5 371.5 318 355 q 388 417.5 373 388 q 403 485 403 447 q 388 553 403 524 q 345.5 598 373 582 q 282 614 318 614 q 219 598 246 614 q 176.5 553 192 582 q 161 485 161 524 q 176.5 417.5 161 447 q 219 371.5 192 388 q 282 355 246 355"},"A":{"ha":744,"x_min":27.31,"x_max":719.64,"o":"m 84 -8 q 45.5 3 60 -8 q 28 32.5 31 14 q 35 74 25 51 l 299 659 q 330.5 700.5 312 688 q 373 713 349 713 q 414.5 700.5 396 713 q 446 659 433 688 l 711 74 q 719 32 722 51 q 702 2.5 716 13 q 665 -8 688 -8 q 621.5 5.5 637 -8 q 594 47 606 19 l 544 163 l 200 163 l 151 47 q 124 5 138 18 q 84 -8 110 -8 m 373 566 l 371 566 l 244 265 l 500 265 l 373 566"},"Á":{"ha":744,"x_min":27.31,"x_max":719.64,"o":"m 84 -8 q 45.5 3 60 -8 q 28 32.5 31 14 q 35 74 25 51 l 299 659 q 330.5 700.5 312 688 q 373 713 349 713 q 414.5 700.5 396 713 q 446 659 433 688 l 711 74 q 719 32 722 51 q 702 2.5 716 13 q 665 -8 688 -8 q 621.5 5.5 637 -8 q 594 47 606 19 l 544 163 l 200 163 l 151 47 q 124 5 138 18 q 84 -8 110 -8 m 373 566 l 371 566 l 244 265 l 500 265 l 373 566 m 520 876 l 424 771 q 397.5 757.5 412 758 q 371.5 765.5 383 757 q 356.5 787 360 774 q 362 814 353 800 l 440 929 q 466.5 949.5 451 946 q 497 947.5 482 953 q 521.5 930.5 512 942 q 532 904.5 531 919 q 520 876 533 890"},"Ă":{"ha":744,"x_min":27.31,"x_max":719.64,"o":"m 84 -8 q 45.5 3 60 -8 q 28 32.5 31 14 q 35 74 25 51 l 299 659 q 330.5 700.5 312 688 q 373 713 349 713 q 414.5 700.5 396 713 q 446 659 433 688 l 711 74 q 719 32 722 51 q 702 2.5 716 13 q 665 -8 688 -8 q 621.5 5.5 637 -8 q 594 47 606 19 l 544 163 l 200 163 l 151 47 q 124 5 138 18 q 84 -8 110 -8 m 373 566 l 371 566 l 244 265 l 500 265 l 373 566 m 373 760 q 260.5 794.5 308 760 q 196 893 213 829 q 200.5 926 191 913 q 224 940 210 939 q 247 937.5 238 942 q 261 926 256 933 q 268 911 266 919 q 308.5 852.5 278 870 q 373 835 339 835 q 438 852.5 408 835 q 478 911 468 870 q 485 926 480 919 q 499 937.5 490 933 q 522 940 508 942 q 545.5 926 536 939 q 550 893 555 913 q 486 794.5 534 829 q 373 760 438 760"},"Ắ":{"ha":744,"x_min":27.31,"x_max":719.64,"o":"m 84 -8 q 45.5 3 60 -8 q 28 32.5 31 14 q 35 74 25 51 l 299 659 q 330.5 700.5 312 688 q 373 713 349 713 q 414.5 700.5 396 713 q 446 659 433 688 l 711 74 q 719 32 722 51 q 702 2.5 716 13 q 665 -8 688 -8 q 621.5 5.5 637 -8 q 594 47 606 19 l 544 163 l 200 163 l 151 47 q 124 5 138 18 q 84 -8 110 -8 m 373 566 l 371 566 l 244 265 l 500 265 l 373 566 m 373 760 q 264.5 793 308 760 q 208 880 221 826 q 210.5 910.5 204 899 q 231 923 217 922 q 254.5 920 245 925 q 269 898 264 915 q 305 849 279 868 q 373 830 331 830 q 441 849 415 830 q 477 898 467 868 q 491.5 920 482 915 q 515 923 501 925 q 536 910.5 529 922 q 538 880 543 899 q 507.5 817 530 844 q 451 775 485 790 q 373 760 417 760 m 474 965 l 406 887 q 382 873.5 395 875 q 358 878.5 369 872 q 343 896.5 347 885 q 347 922 339 908 l 398 1014 q 421.5 1035.5 407 1031 q 450.5 1035.5 436 1040 q 475 1020 465 1031 q 486 994.5 485 1009 q 474 965 487 980"},"Ặ":{"ha":744,"x_min":27.31,"x_max":719.64,"o":"m 84 -8 q 45.5 3 60 -8 q 28 32.5 31 14 q 35 74 25 51 l 299 659 q 330.5 700.5 312 688 q 373 713 349 713 q 414.5 700.5 396 713 q 446 659 433 688 l 711 74 q 719 32 722 51 q 702 2.5 716 13 q 665 -8 688 -8 q 621.5 5.5 637 -8 q 594 47 606 19 l 544 163 l 200 163 l 151 47 q 124 5 138 18 q 84 -8 110 -8 m 373 566 l 371 566 l 244 265 l 500 265 l 373 566 m 373 -209 q 325 -192.5 342 -209 q 308 -146 308 -176 q 325 -100 308 -116 q 373 -84 342 -84 q 422 -100 405 -84 q 439 -146 439 -116 q 422 -192.5 439 -176 q 373 -209 405 -209 m 373 760 q 260.5 794.5 308 760 q 196 893 213 829 q 200.5 926 191 913 q 224 940 210 939 q 247 937.5 238 942 q 261 926 256 933 q 268 911 266 919 q 308.5 852.5 278 870 q 373 835 339 835 q 438 852.5 408 835 q 478 911 468 870 q 485 926 480 919 q 499 937.5 490 933 q 522 940 508 942 q 545.5 926 536 939 q 550 893 555 913 q 486 794.5 534 829 q 373 760 438 760"},"Ằ":{"ha":744,"x_min":27.31,"x_max":719.64,"o":"m 84 -8 q 45.5 3 60 -8 q 28 32.5 31 14 q 35 74 25 51 l 299 659 q 330.5 700.5 312 688 q 373 713 349 713 q 414.5 700.5 396 713 q 446 659 433 688 l 711 74 q 719 32 722 51 q 702 2.5 716 13 q 665 -8 688 -8 q 621.5 5.5 637 -8 q 594 47 606 19 l 544 163 l 200 163 l 151 47 q 124 5 138 18 q 84 -8 110 -8 m 373 566 l 371 566 l 244 265 l 500 265 l 373 566 m 373 760 q 264.5 793 308 760 q 208 880 221 826 q 210.5 910.5 204 899 q 231 923 217 922 q 254.5 920 245 925 q 269 898 264 915 q 305 849 279 868 q 373 830 331 830 q 441 849 415 830 q 477 898 467 868 q 491.5 920 482 915 q 515 923 501 925 q 536 910.5 529 922 q 538 880 543 899 q 507.5 817 530 844 q 451 775 485 790 q 373 760 417 760 m 340 887 l 272 965 q 260 994.5 259 980 q 271 1020 261 1009 q 295.5 1035.5 281 1031 q 324.5 1035.5 310 1040 q 348 1014 339 1031 l 399 922 q 403 896.5 407 908 q 388 878.5 399 885 q 364 873.5 377 872 q 340 887 351 875"},"Ẳ":{"ha":744,"x_min":27.31,"x_max":719.64,"o":"m 84 -8 q 45.5 3 60 -8 q 28 32.5 31 14 q 35 74 25 51 l 299 659 q 330.5 700.5 312 688 q 373 713 349 713 q 414.5 700.5 396 713 q 446 659 433 688 l 711 74 q 719 32 722 51 q 702 2.5 716 13 q 665 -8 688 -8 q 621.5 5.5 637 -8 q 594 47 606 19 l 544 163 l 200 163 l 151 47 q 124 5 138 18 q 84 -8 110 -8 m 373 566 l 371 566 l 244 265 l 500 265 l 373 566 m 373 760 q 264.5 793 308 760 q 208 880 221 826 q 210.5 910.5 204 899 q 231 923 217 922 q 254.5 920 245 925 q 269 898 264 915 q 305 849 279 868 q 373 830 331 830 q 441 849 415 830 q 477 898 467 868 q 491.5 920 482 915 q 515 923 501 925 q 536 910.5 529 922 q 538 880 543 899 q 507.5 817 530 844 q 451 775 485 790 q 373 760 417 760 m 398 880 q 377 875 388 874 q 358 881.5 366 876 q 349 895 350 887 q 358 910 348 903 q 382 932 375 922 q 389 955 389 942 q 380 972.5 389 967 q 353 978 371 978 q 337.5 977 346 978 q 320 974 329 976 q 297 974 306 970 q 284 989 288 978 q 284.5 1008.5 280 1000 q 304 1022 289 1017 q 340.5 1030 322 1028 q 379 1032 359 1032 q 448 1018 423 1032 q 473 975 473 1004 q 462 938 473 956 q 434 905.5 451 920 q 398 880 417 891"},"Ẵ":{"ha":744,"x_min":27.31,"x_max":719.64,"o":"m 84 -8 q 45.5 3 60 -8 q 28 32.5 31 14 q 35 74 25 51 l 299 659 q 330.5 700.5 312 688 q 373 713 349 713 q 414.5 700.5 396 713 q 446 659 433 688 l 711 74 q 719 32 722 51 q 702 2.5 716 13 q 665 -8 688 -8 q 621.5 5.5 637 -8 q 594 47 606 19 l 544 163 l 200 163 l 151 47 q 124 5 138 18 q 84 -8 110 -8 m 373 566 l 371 566 l 244 265 l 500 265 l 373 566 m 373 760 q 273.5 783.5 315 760 q 215 842 232 807 q 212 870.5 207 859 q 231 886 217 882 q 255 888 246 891 q 273 872 264 885 q 311 841.5 286 853 q 373 830 336 830 q 435.5 841.5 411 830 q 473 872 460 853 q 491 888 482 885 q 515 886 500 891 q 534 870.5 529 882 q 531 842 539 859 q 473 783.5 514 807 q 373 760 432 760 m 232 920 q 210.5 931 218 921 q 207 957 203 941 q 243.5 1013 217 994 q 307 1032 270 1032 q 356 1021 334 1032 q 397.5 999 378 1010 q 436 988 417 988 q 463 993.5 451 988 q 480 1012 475 999 q 493.5 1029 485 1023 q 515 1034 502 1035 q 537 1023.5 529 1033 q 540 997 545 1014 q 503.5 941 530 960 q 440 922 477 922 q 390.5 933 413 922 q 349 955 368 944 q 311 966 330 966 q 284 960.5 296 966 q 267 942 272 955 q 254.5 925 263 931 q 232 920 246 919"},"Ǎ":{"ha":744,"x_min":27.31,"x_max":719.64,"o":"m 84 -8 q 45.5 3 60 -8 q 28 32.5 31 14 q 35 74 25 51 l 299 659 q 330.5 700.5 312 688 q 373 713 349 713 q 414.5 700.5 396 713 q 446 659 433 688 l 711 74 q 719 32 722 51 q 702 2.5 716 13 q 665 -8 688 -8 q 621.5 5.5 637 -8 q 594 47 606 19 l 544 163 l 200 163 l 151 47 q 124 5 138 18 q 84 -8 110 -8 m 373 566 l 371 566 l 244 265 l 500 265 l 373 566 m 373 754 q 332.5 763.5 351 754 q 300 793 314 773 l 227 895 q 220.5 922 217 909 q 236 942.5 224 935 q 262.5 948.5 248 950 q 289 933 277 947 l 373 835 l 458 933 q 484.5 948.5 470 947 q 510.5 942.5 499 950 q 525.5 922.5 522 935 q 519 895 529 910 l 447 793 q 414.5 763.5 433 773 q 373 754 396 754"},"Â":{"ha":744,"x_min":27.31,"x_max":719.64,"o":"m 84 -8 q 45.5 3 60 -8 q 28 32.5 31 14 q 35 74 25 51 l 299 659 q 330.5 700.5 312 688 q 373 713 349 713 q 414.5 700.5 396 713 q 446 659 433 688 l 711 74 q 719 32 722 51 q 702 2.5 716 13 q 665 -8 688 -8 q 621.5 5.5 637 -8 q 594 47 606 19 l 544 163 l 200 163 l 151 47 q 124 5 138 18 q 84 -8 110 -8 m 373 566 l 371 566 l 244 265 l 500 265 l 373 566 m 373 869 l 289 771 q 262 757 277 758 q 235.5 763.5 247 756 q 220.5 783.5 224 771 q 227 810 217 796 l 300 911 q 332.5 941.5 314 932 q 373 951 351 951 q 414 941.5 396 951 q 447 911 432 932 l 519 810 q 526.5 783.5 530 796 q 511.5 763.5 523 771 q 485 757 500 756 q 458 771 470 758 l 373 869"},"Ấ":{"ha":744,"x_min":27.31,"x_max":719.64,"o":"m 84 -8 q 45.5 3 60 -8 q 28 32.5 31 14 q 35 74 25 51 l 299 659 q 330.5 700.5 312 688 q 373 713 349 713 q 414.5 700.5 396 713 q 446 659 433 688 l 711 74 q 719 32 722 51 q 702 2.5 716 13 q 665 -8 688 -8 q 621.5 5.5 637 -8 q 594 47 606 19 l 544 163 l 200 163 l 151 47 q 124 5 138 18 q 84 -8 110 -8 m 373 566 l 371 566 l 244 265 l 500 265 l 373 566 m 373 860 l 292 769 q 266.5 754 280 756 q 242.5 759 253 752 q 229 778.5 232 766 q 236 806 226 791 l 301 903 q 333.5 933.5 316 925 q 373 942 351 942 q 401 938.5 388 942 q 425 926.5 414 935 q 445 903 436 918 l 510 806 q 517.5 778.5 520 791 q 505 759 515 766 q 481 754 495 752 q 455 769 467 756 l 373 860 m 629 968 l 548 865 q 527 851.5 539 853 q 505.5 856 515 850 q 493 873.5 496 862 q 498 900 490 885 l 560 1010 q 582 1030.5 569 1026 q 608 1031.5 595 1035 q 629.5 1018.5 621 1028 q 639 995.5 638 1009 q 629 968 640 982"},"Ậ":{"ha":744,"x_min":27.31,"x_max":719.64,"o":"m 84 -8 q 45.5 3 60 -8 q 28 32.5 31 14 q 35 74 25 51 l 299 659 q 330.5 700.5 312 688 q 373 713 349 713 q 414.5 700.5 396 713 q 446 659 433 688 l 711 74 q 719 32 722 51 q 702 2.5 716 13 q 665 -8 688 -8 q 621.5 5.5 637 -8 q 594 47 606 19 l 544 163 l 200 163 l 151 47 q 124 5 138 18 q 84 -8 110 -8 m 373 566 l 371 566 l 244 265 l 500 265 l 373 566 m 373 -209 q 325 -192.5 342 -209 q 308 -146 308 -176 q 325 -100 308 -116 q 373 -84 342 -84 q 422 -100 405 -84 q 439 -146 439 -116 q 422 -192.5 439 -176 q 373 -209 405 -209 m 373 869 l 289 771 q 262 757 277 758 q 235.5 763.5 247 756 q 220.5 783.5 224 771 q 227 810 217 796 l 300 911 q 332.5 941.5 314 932 q 373 951 351 951 q 414 941.5 396 951 q 447 911 432 932 l 519 810 q 526.5 783.5 530 796 q 511.5 763.5 523 771 q 485 757 500 756 q 458 771 470 758 l 373 869"},"Ầ":{"ha":744,"x_min":27.31,"x_max":719.64,"o":"m 84 -8 q 45.5 3 60 -8 q 28 32.5 31 14 q 35 74 25 51 l 299 659 q 330.5 700.5 312 688 q 373 713 349 713 q 414.5 700.5 396 713 q 446 659 433 688 l 711 74 q 719 32 722 51 q 702 2.5 716 13 q 665 -8 688 -8 q 621.5 5.5 637 -8 q 594 47 606 19 l 544 163 l 200 163 l 151 47 q 124 5 138 18 q 84 -8 110 -8 m 373 566 l 371 566 l 244 265 l 500 265 l 373 566 m 373 860 l 292 769 q 266.5 754 280 756 q 242.5 759 253 752 q 229 778.5 232 766 q 236 806 226 791 l 301 903 q 333.5 933.5 316 925 q 373 942 351 942 q 401 938.5 388 942 q 425 926.5 414 935 q 445 903 436 918 l 510 806 q 517.5 778.5 520 791 q 505 759 515 766 q 481 754 495 752 q 455 769 467 756 l 373 860 m 527 865 l 446 968 q 436 995.5 435 982 q 445.5 1018.5 437 1009 q 467 1031.5 454 1028 q 493 1030.5 480 1035 q 515 1010 506 1026 l 577 900 q 582 873.5 585 885 q 569.5 856 579 862 q 548 851.5 560 850 q 527 865 536 853"},"Ẩ":{"ha":744,"x_min":27.31,"x_max":719.64,"o":"m 84 -8 q 45.5 3 60 -8 q 28 32.5 31 14 q 35 74 25 51 l 299 659 q 330.5 700.5 312 688 q 373 713 349 713 q 414.5 700.5 396 713 q 446 659 433 688 l 711 74 q 719 32 722 51 q 702 2.5 716 13 q 665 -8 688 -8 q 621.5 5.5 637 -8 q 594 47 606 19 l 544 163 l 200 163 l 151 47 q 124 5 138 18 q 84 -8 110 -8 m 373 566 l 371 566 l 244 265 l 500 265 l 373 566 m 373 860 l 292 769 q 266.5 754 280 756 q 242.5 759 253 752 q 229 778.5 232 766 q 236 806 226 791 l 301 903 q 333.5 933.5 316 925 q 373 942 351 942 q 401 938.5 388 942 q 425 926.5 414 935 q 445 903 436 918 l 510 806 q 517.5 778.5 520 791 q 505 759 515 766 q 481 754 495 752 q 455 769 467 756 l 373 860 m 534 865 q 508 862.5 521 858 q 491.5 878 495 867 q 500 899 488 889 q 525.5 923 516 912 q 535 947 535 934 q 526 965.5 535 960 q 498 971 517 971 q 482.5 970 491 971 q 465 967 474 969 q 442 967 451 963 q 429 982 433 971 q 430 1003 425 994 q 450 1016 435 1012 q 485.5 1023 467 1021 q 524 1025 504 1025 q 592.5 1011 568 1025 q 617 966 617 997 q 604 926.5 617 946 q 572 891.5 591 907 q 534 865 553 876"},"Ẫ":{"ha":744,"x_min":27.31,"x_max":719.64,"o":"m 84 -8 q 45.5 3 60 -8 q 28 32.5 31 14 q 35 74 25 51 l 299 659 q 330.5 700.5 312 688 q 373 713 349 713 q 414.5 700.5 396 713 q 446 659 433 688 l 711 74 q 719 32 722 51 q 702 2.5 716 13 q 665 -8 688 -8 q 621.5 5.5 637 -8 q 594 47 606 19 l 544 163 l 200 163 l 151 47 q 124 5 138 18 q 84 -8 110 -8 m 373 566 l 371 566 l 244 265 l 500 265 l 373 566 m 373 837 l 283 763 q 251.5 754.5 267 750 q 230.5 772.5 236 759 q 237 800 225 786 l 296 870 q 332 897.5 313 890 q 373 905 351 905 q 402.5 901.5 389 905 q 428 890.5 416 898 q 451 870 440 883 l 509 800 q 516.5 779 518 790 q 507 760.5 515 768 q 487.5 753 499 753 q 463 763 476 753 l 373 837 m 232 922 q 210.5 933 218 923 q 207 959 203 943 q 243.5 1015 217 996 q 307 1034 270 1034 q 356 1023 334 1034 q 397.5 1001 378 1012 q 436 990 417 990 q 463 995.5 451 990 q 480 1014 475 1001 q 493.5 1031 485 1025 q 515 1036 502 1037 q 537 1025.5 529 1035 q 540 999 545 1016 q 503.5 943 530 962 q 440 924 477 924 q 390.5 935 413 924 q 349 957 368 946 q 311 968 330 968 q 284 962.5 296 968 q 267 944 272 957 q 254.5 927 263 933 q 232 922 246 921"},"Ȁ":{"ha":744,"x_min":27.31,"x_max":719.64,"o":"m 84 -8 q 45.5 3 60 -8 q 28 32.5 31 14 q 35 74 25 51 l 299 659 q 330.5 700.5 312 688 q 373 713 349 713 q 414.5 700.5 396 713 q 446 659 433 688 l 711 74 q 719 32 722 51 q 702 2.5 716 13 q 665 -8 688 -8 q 621.5 5.5 637 -8 q 594 47 606 19 l 544 163 l 200 163 l 151 47 q 124 5 138 18 q 84 -8 110 -8 m 373 566 l 371 566 l 244 265 l 500 265 l 373 566 m 405 773 l 326 882 q 316 912 314 898 q 328 936 318 926 q 352.5 949.5 338 946 q 381 947.5 367 953 q 403 925 395 942 l 464 803 q 466.5 777.5 471 789 q 451 760.5 462 766 q 427.5 757.5 440 755 q 405 773 415 760 m 261 770 l 174 882 q 163 912 162 898 q 173.5 936 164 926 q 197 949.5 183 946 q 225 948 211 953 q 248 926 239 943 l 313 805 q 316.5 780 320 792 q 303.5 761.5 313 768 q 282 756.5 294 755 q 261 770 270 758"},"Ä":{"ha":744,"x_min":27.31,"x_max":719.64,"o":"m 84 -8 q 45.5 3 60 -8 q 28 32.5 31 14 q 35 74 25 51 l 299 659 q 330.5 700.5 312 688 q 373 713 349 713 q 414.5 700.5 396 713 q 446 659 433 688 l 711 74 q 719 32 722 51 q 702 2.5 716 13 q 665 -8 688 -8 q 621.5 5.5 637 -8 q 594 47 606 19 l 544 163 l 200 163 l 151 47 q 124 5 138 18 q 84 -8 110 -8 m 373 566 l 371 566 l 244 265 l 500 265 l 373 566 m 468 786 q 422 802 438 786 q 406 848 406 818 q 422 893 406 877 q 468 909 438 909 q 513 893 497 909 q 529 848 529 877 q 513.5 802 529 818 q 468 786 498 786 m 279 786 q 233.5 802 250 786 q 217 848 217 818 q 233.5 893 217 877 q 279 909 250 909 q 325 893 309 909 q 341 848 341 877 q 325 802 341 818 q 279 786 309 786"},"Ȧ":{"ha":744,"x_min":27.31,"x_max":719.64,"o":"m 84 -8 q 45.5 3 60 -8 q 28 32.5 31 14 q 35 74 25 51 l 299 659 q 330.5 700.5 312 688 q 373 713 349 713 q 414.5 700.5 396 713 q 446 659 433 688 l 711 74 q 719 32 722 51 q 702 2.5 716 13 q 665 -8 688 -8 q 621.5 5.5 637 -8 q 594 47 606 19 l 544 163 l 200 163 l 151 47 q 124 5 138 18 q 84 -8 110 -8 m 373 566 l 371 566 l 244 265 l 500 265 l 373 566 m 373 789 q 325 805.5 342 789 q 308 852 308 822 q 325 898 308 882 q 373 914 342 914 q 421.5 898 405 914 q 438 852 438 882 q 421.5 805.5 438 822 q 373 789 405 789"},"Ạ":{"ha":744,"x_min":27.31,"x_max":719.64,"o":"m 84 -8 q 45.5 3 60 -8 q 28 32.5 31 14 q 35 74 25 51 l 299 659 q 330.5 700.5 312 688 q 373 713 349 713 q 414.5 700.5 396 713 q 446 659 433 688 l 711 74 q 719 32 722 51 q 702 2.5 716 13 q 665 -8 688 -8 q 621.5 5.5 637 -8 q 594 47 606 19 l 544 163 l 200 163 l 151 47 q 124 5 138 18 q 84 -8 110 -8 m 373 566 l 371 566 l 244 265 l 500 265 l 373 566 m 373 -209 q 325 -192.5 342 -209 q 308 -146 308 -176 q 325 -100 308 -116 q 373 -84 342 -84 q 422 -100 405 -84 q 439 -146 439 -116 q 422 -192.5 439 -176 q 373 -209 405 -209"},"À":{"ha":744,"x_min":27.31,"x_max":719.64,"o":"m 84 -8 q 45.5 3 60 -8 q 28 32.5 31 14 q 35 74 25 51 l 299 659 q 330.5 700.5 312 688 q 373 713 349 713 q 414.5 700.5 396 713 q 446 659 433 688 l 711 74 q 719 32 722 51 q 702 2.5 716 13 q 665 -8 688 -8 q 621.5 5.5 637 -8 q 594 47 606 19 l 544 163 l 200 163 l 151 47 q 124 5 138 18 q 84 -8 110 -8 m 373 566 l 371 566 l 244 265 l 500 265 l 373 566 m 323 771 l 227 876 q 215 904.5 214 890 q 225.5 930.5 216 919 q 250 947.5 235 942 q 280.5 949.5 265 953 q 307 929 296 946 l 385 814 q 390.5 787 394 800 q 375.5 765.5 387 774 q 349.5 757.5 364 757 q 323 771 335 758"},"Ả":{"ha":744,"x_min":27.31,"x_max":719.64,"o":"m 84 -8 q 45.5 3 60 -8 q 28 32.5 31 14 q 35 74 25 51 l 299 659 q 330.5 700.5 312 688 q 373 713 349 713 q 414.5 700.5 396 713 q 446 659 433 688 l 711 74 q 719 32 722 51 q 702 2.5 716 13 q 665 -8 688 -8 q 621.5 5.5 637 -8 q 594 47 606 19 l 544 163 l 200 163 l 151 47 q 124 5 138 18 q 84 -8 110 -8 m 373 566 l 371 566 l 244 265 l 500 265 l 373 566 m 373 757 q 345 763.5 355 757 q 335 783 335 770 q 343.5 812 335 801 q 363 831.5 352 823 q 382.5 847.5 374 840 q 391 865 391 855 q 381 880 391 875 q 351 885 371 885 q 334.5 884 344 885 q 316 881 325 883 q 289.5 880 300 877 q 274 896 279 883 q 274.5 918.5 270 908 q 295 934 279 929 q 334.5 943 312 940 q 381 946 357 946 q 458 929 430 946 q 486 883 486 912 q 475 848 486 861 q 449 825.5 464 835 q 423 805.5 434 816 q 412 777 412 795 q 402 762.5 412 768 q 373 757 392 757"},"Ȃ":{"ha":744,"x_min":27.31,"x_max":719.64,"o":"m 84 -8 q 45.5 3 60 -8 q 28 32.5 31 14 q 35 74 25 51 l 299 659 q 330.5 700.5 312 688 q 373 713 349 713 q 414.5 700.5 396 713 q 446 659 433 688 l 711 74 q 719 32 722 51 q 702 2.5 716 13 q 665 -8 688 -8 q 621.5 5.5 637 -8 q 594 47 606 19 l 544 163 l 200 163 l 151 47 q 124 5 138 18 q 84 -8 110 -8 m 373 566 l 371 566 l 244 265 l 500 265 l 373 566 m 224 760 q 200.5 774.5 210 762 q 196 807 191 787 q 260.5 905.5 213 872 q 373 939 308 939 q 486 905.5 438 939 q 550 807 534 872 q 545.5 774.5 555 787 q 522 760 536 762 q 499 763 508 759 q 485 774 490 767 q 478 789 480 781 q 438 847.5 468 830 q 373 865 408 865 q 309 847.5 339 865 q 268 789 279 830 q 261 774 266 781 q 247 763 256 767 q 224 760 238 759"},"Ā":{"ha":744,"x_min":27.31,"x_max":719.64,"o":"m 84 -8 q 45.5 3 60 -8 q 28 32.5 31 14 q 35 74 25 51 l 299 659 q 330.5 700.5 312 688 q 373 713 349 713 q 414.5 700.5 396 713 q 446 659 433 688 l 711 74 q 719 32 722 51 q 702 2.5 716 13 q 665 -8 688 -8 q 621.5 5.5 637 -8 q 594 47 606 19 l 544 163 l 200 163 l 151 47 q 124 5 138 18 q 84 -8 110 -8 m 373 566 l 371 566 l 244 265 l 500 265 l 373 566 m 512 806 l 235 806 q 196 843 196 806 q 206 870.5 196 861 q 235 880 216 880 l 512 880 q 551 843 551 880 q 541 816 551 826 q 512 806 531 806"},"Ą":{"ha":744,"x_min":26.59,"x_max":771.24,"o":"m 683 -195 q 596.5 -167 628 -195 q 565 -91 565 -139 q 581 -31 565 -59 q 616 11 594 -8 q 608 22 612 16 q 594 47 601 32 l 544 163 l 200 163 l 151 47 q 124 5 138 18 q 84 -8 110 -8 q 45.5 3 60 -8 q 27.5 32.5 31 14 q 34 74 24 51 l 299 659 q 330.5 700.5 312 688 q 373 713 349 713 q 414.5 700.5 396 713 q 446 659 433 688 l 711 74 q 718.5 28.5 722 49 q 698 0 715 8 q 672.5 -18.5 685 -7 q 652 -45 660 -30 q 644 -77 644 -60 q 660 -115 644 -102 q 700 -128 676 -128 q 714.5 -127 707 -128 q 730 -124 722 -126 q 758 -125.5 748 -119 q 770.5 -144.5 768 -132 q 767 -168.5 773 -157 q 746 -186 761 -180 q 713.5 -193.5 730 -192 q 683 -195 697 -195 m 373 566 l 371 566 l 244 265 l 500 265 l 373 566"},"Å":{"ha":744,"x_min":27.31,"x_max":719.64,"o":"m 84 -8 q 45.5 3 60 -8 q 28 32.5 31 14 q 35 74 25 51 l 299 659 q 330.5 700.5 312 688 q 373 713 349 713 q 414.5 700.5 396 713 q 446 659 433 688 l 711 74 q 719 32 722 51 q 702 2.5 716 13 q 665 -8 688 -8 q 621.5 5.5 637 -8 q 594 47 606 19 l 544 163 l 200 163 l 151 47 q 124 5 138 18 q 84 -8 110 -8 m 373 566 l 371 566 l 244 265 l 500 265 l 373 566 m 373 755 q 309 771.5 338 755 q 263.5 816 280 788 q 247 878 247 844 q 263.5 940.5 247 913 q 309 984 280 968 q 373 1000 338 1000 q 437.5 984 409 1000 q 482.5 940.5 466 968 q 499 878 499 913 q 482.5 816 499 844 q 437.5 771.5 466 788 q 373 755 409 755 m 373 812 q 420 831 402 812 q 438 878 438 850 q 420 924.5 438 906 q 373 943 402 943 q 326.5 924.5 345 943 q 308 878 308 906 q 326.5 831 308 850 q 373 812 345 812"},"Ǻ":{"ha":744,"x_min":27.31,"x_max":719.64,"o":"m 84 -8 q 45.5 3 60 -8 q 28 32.5 31 14 q 35 74 25 51 l 299 659 q 330.5 700.5 312 688 q 373 713 349 713 q 414.5 700.5 396 713 q 446 659 433 688 l 711 74 q 719 32 722 51 q 702 2.5 716 13 q 665 -8 688 -8 q 621.5 5.5 637 -8 q 594 47 606 19 l 544 163 l 200 163 l 151 47 q 124 5 138 18 q 84 -8 110 -8 m 373 566 l 371 566 l 244 265 l 500 265 l 373 566 m 373 755 q 311.5 770.5 339 755 q 268 813 284 786 q 252 873 252 840 q 268 932.5 252 906 q 311.5 974.5 284 959 q 373 990 339 990 q 407 985.5 391 990 q 437 973 423 981 l 505 1036 q 531.5 1047 518 1048 q 554 1036.5 545 1046 q 564 1014 563 1027 q 552 990 565 1001 l 480 928 q 494 873 494 903 q 478 813 494 840 q 434.5 770.5 462 786 q 373 755 407 755 m 373 807 q 420 826 402 807 q 438 873 438 845 q 420 919.5 438 901 q 373 938 402 938 q 326.5 919.5 345 938 q 308 873 308 901 q 326.5 826 308 845 q 373 807 345 807"},"Ã":{"ha":744,"x_min":27.31,"x_max":719.64,"o":"m 84 -8 q 45.5 3 60 -8 q 28 32.5 31 14 q 35 74 25 51 l 299 659 q 330.5 700.5 312 688 q 373 713 349 713 q 414.5 700.5 396 713 q 446 659 433 688 l 711 74 q 719 32 722 51 q 702 2.5 716 13 q 665 -8 688 -8 q 621.5 5.5 637 -8 q 594 47 606 19 l 544 163 l 200 163 l 151 47 q 124 5 138 18 q 84 -8 110 -8 m 373 566 l 371 566 l 244 265 l 500 265 l 373 566 m 184 769 q 159 780 168 770 q 154 807 150 790 q 200.5 893.5 166 863 q 284 924 235 924 q 336 914 312 924 q 382 891 360 904 q 424.5 868 404 878 q 465 858 445 858 q 506.5 871.5 491 858 q 527 905 522 885 q 540 925.5 531 919 q 562 931 549 932 q 587 920 578 930 q 592 893 596 910 q 546.5 806.5 580 837 q 463 776 513 776 q 410.5 786 435 776 q 364 809 386 796 q 321.5 832 342 822 q 281 842 301 842 q 240 828.5 256 842 q 219 795 224 815 q 206.5 775 215 782 q 184 769 198 768"},"Æ":{"ha":993,"x_min":-3,"x_max":949,"o":"m 54 -8 q 11.5 3.5 26 -8 q -3 33.5 -3 15 q 9 72 -3 52 l 380 670 q 406.5 697 391 689 q 444 705 422 705 l 896 705 q 935.5 692 922 705 q 949 655 949 679 q 935.5 616.5 949 630 q 896 603 922 603 l 540 603 l 582 409 l 875 409 q 914.5 396 901 409 q 928 358 928 383 q 914.5 320 928 333 q 875 307 901 307 l 605 307 l 649 102 l 896 102 q 935.5 89 922 102 q 949 51 949 76 q 935.5 13 949 26 q 896 0 922 0 l 604 0 q 546 47 557 0 l 521 163 l 197 163 l 119 32 q 92.5 2.5 107 13 q 54 -8 78 -8 m 435 562 l 433 562 l 256 265 l 499 265 l 435 562"},"Ǽ":{"ha":993,"x_min":-3,"x_max":949,"o":"m 54 -8 q 11.5 3.5 26 -8 q -3 33.5 -3 15 q 9 72 -3 52 l 380 670 q 406.5 697 391 689 q 444 705 422 705 l 896 705 q 935.5 692 922 705 q 949 655 949 679 q 935.5 616.5 949 630 q 896 603 922 603 l 540 603 l 582 409 l 875 409 q 914.5 396 901 409 q 928 358 928 383 q 914.5 320 928 333 q 875 307 901 307 l 605 307 l 649 102 l 896 102 q 935.5 89 922 102 q 949 51 949 76 q 935.5 13 949 26 q 896 0 922 0 l 604 0 q 546 47 557 0 l 521 163 l 197 163 l 119 32 q 92.5 2.5 107 13 q 54 -8 78 -8 m 435 562 l 433 562 l 256 265 l 499 265 l 435 562 m 635 876 l 539 771 q 512.5 757.5 527 758 q 486.5 765.5 498 757 q 471.5 787 475 774 q 477 814 468 800 l 555 929 q 581.5 949.5 566 946 q 612 947.5 597 953 q 636.5 930.5 627 942 q 647 904.5 646 919 q 635 876 648 890"},"B":{"ha":688,"x_min":77,"x_max":636,"o":"m 396 0 l 145 0 q 94.5 17.5 112 0 q 77 68 77 35 l 77 637 q 94.5 687.5 77 670 q 145 705 112 705 l 385 705 q 511 683 459 705 q 590.5 620 563 661 q 618 522 618 579 q 581 414 618 458 q 509 364 553 381 q 595 314 563 350 q 636 197 636 269 q 572.5 51.5 636 103 q 396 0 509 0 m 200 309 l 200 97 l 380 97 q 480 123.5 448 97 q 512 203 512 150 q 480 283 512 257 q 380 309 448 309 l 200 309 m 200 608 l 200 406 l 363 406 q 461.5 431.5 429 406 q 494 507 494 457 q 461.5 582.5 494 557 q 363 608 429 608 l 200 608"},"Ɓ":{"ha":838,"x_min":0,"x_max":786,"o":"m 546 0 l 295 0 q 244.5 17.5 262 0 q 227 68 227 35 l 227 614 l 201 614 q 129 591.5 153 614 q 105 522 105 569 l 105 506 q 99.5 485 105 496 q 82.5 467 94 474 q 53 460 71 460 q 23.5 467.5 35 460 q 6 486.5 12 475 q 0 509 0 498 l 0 527 q 52.5 659 0 613 q 208 705 105 705 l 535 705 q 661 683 609 705 q 740.5 620 713 661 q 768 522 768 579 q 731 414 768 458 q 659 364 703 381 q 745 314 713 350 q 786 197 786 269 q 722.5 51.5 786 103 q 546 0 659 0 m 350 309 l 350 97 l 530 97 q 630 123.5 598 97 q 662 203 662 150 q 630 283 662 257 q 530 309 598 309 l 350 309 m 350 608 l 350 406 l 513 406 q 611.5 431.5 579 406 q 644 507 644 457 q 611.5 582.5 644 557 q 513 608 579 608 l 350 608"},"C":{"ha":680,"x_min":54,"x_max":640.6,"o":"m 405 -10 q 216.5 34.5 295 -10 q 96 160.5 138 79 q 54 353 54 242 q 78 502.5 54 436 q 147 616.5 102 569 q 257.5 689.5 192 664 q 405 715 323 715 q 513 701 460 715 q 606 661 566 687 q 634 629.5 627 648 q 637 593.5 641 611 q 620.5 564 633 576 q 589.5 550.5 608 552 q 549 563 571 549 q 482 592 518 583 q 409 601 446 601 q 289 572 338 601 q 215 488 240 543 q 190 353 190 433 q 215 218 190 274 q 289 133 240 162 q 409 104 338 104 q 484 113.5 447 104 q 554 143 521 123 q 593.5 154.5 576 156 q 623 142 611 153 q 639 114.5 635 131 q 637 80.5 643 98 q 613 50 631 63 q 517.5 5.5 573 21 q 405 -10 462 -10"},"Ć":{"ha":680,"x_min":54,"x_max":640.6,"o":"m 405 -10 q 216.5 34.5 295 -10 q 96 160.5 138 79 q 54 353 54 242 q 78 502.5 54 436 q 147 616.5 102 569 q 257.5 689.5 192 664 q 405 715 323 715 q 513 701 460 715 q 606 661 566 687 q 634 629.5 627 648 q 637 593.5 641 611 q 620.5 564 633 576 q 589.5 550.5 608 552 q 549 563 571 549 q 482 592 518 583 q 409 601 446 601 q 289 572 338 601 q 215 488 240 543 q 190 353 190 433 q 215 218 190 274 q 289 133 240 162 q 409 104 338 104 q 484 113.5 447 104 q 554 143 521 123 q 593.5 154.5 576 156 q 623 142 611 153 q 639 114.5 635 131 q 637 80.5 643 98 q 613 50 631 63 q 517.5 5.5 573 21 q 405 -10 462 -10 m 539 876 l 443 771 q 416.5 757.5 431 758 q 390.5 765.5 402 757 q 375.5 787 379 774 q 381 814 372 800 l 459 929 q 485.5 949.5 470 946 q 516 947.5 501 953 q 540.5 930.5 531 942 q 551 904.5 550 919 q 539 876 552 890"},"Č":{"ha":680,"x_min":54,"x_max":640.6,"o":"m 405 -10 q 216.5 34.5 295 -10 q 96 160.5 138 79 q 54 353 54 242 q 78 502.5 54 436 q 147 616.5 102 569 q 257.5 689.5 192 664 q 405 715 323 715 q 513 701 460 715 q 606 661 566 687 q 634 629.5 627 648 q 637 593.5 641 611 q 620.5 564 633 576 q 589.5 550.5 608 552 q 549 563 571 549 q 482 592 518 583 q 409 601 446 601 q 289 572 338 601 q 215 488 240 543 q 190 353 190 433 q 215 218 190 274 q 289 133 240 162 q 409 104 338 104 q 484 113.5 447 104 q 554 143 521 123 q 593.5 154.5 576 156 q 623 142 611 153 q 639 114.5 635 131 q 637 80.5 643 98 q 613 50 631 63 q 517.5 5.5 573 21 q 405 -10 462 -10 m 392 754 q 351.5 763.5 370 754 q 319 793 333 773 l 246 895 q 239.5 922 236 909 q 255 942.5 243 935 q 281.5 948.5 267 950 q 308 933 296 947 l 392 835 l 477 933 q 503.5 948.5 489 947 q 529.5 942.5 518 950 q 544.5 922.5 541 935 q 538 895 548 910 l 466 793 q 433.5 763.5 452 773 q 392 754 415 754"},"Ç":{"ha":680,"x_min":54,"x_max":640.6,"o":"m 392 -195 q 352 -192.5 373 -195 q 314 -184 331 -190 q 293.5 -167.5 299 -179 q 291.5 -144.5 288 -156 q 305.5 -127 295 -133 q 331 -127 316 -121 q 356 -133 344 -131 q 382 -135 368 -135 q 422 -127.5 408 -135 q 436 -105 436 -120 q 427.5 -88 436 -94 q 399 -82 419 -82 q 384.5 -82.5 392 -82 q 369 -85 377 -83 q 356.5 -86.5 362 -87 q 346 -82 351 -86 q 341 -72 342 -78 q 341 -56 340 -66 l 348 -7 q 217 35 274 2 q 96 160.5 138 79 q 54 353 54 242 q 78 502.5 54 436 q 147 616.5 102 569 q 257.5 689.5 192 664 q 405 715 323 715 q 513 701 460 715 q 606 661 566 687 q 634 629.5 627 648 q 637 593.5 641 611 q 620.5 564 633 576 q 589.5 550.5 608 552 q 549 563 571 549 q 482 592 518 583 q 409 601 446 601 q 289 572 338 601 q 215 488 240 543 q 190 353 190 433 q 215 218 190 274 q 289 133 240 162 q 409 104 338 104 q 484 113.5 447 104 q 554 143 521 123 q 593.5 154.5 576 156 q 623 142 611 153 q 639 114.5 635 131 q 637 80.5 643 98 q 613 50 631 63 q 518 6 573 21 q 414 -10 466 -9 l 409 -38 q 420 -37 415 -37 q 486 -56 461 -37 q 511 -109 511 -75 q 478 -171.5 511 -148 q 392 -195 445 -195"},"Ḉ":{"ha":680,"x_min":54,"x_max":640.6,"o":"m 392 -195 q 352 -192.5 373 -195 q 314 -184 331 -190 q 293.5 -167.5 299 -179 q 291.5 -144.5 288 -156 q 305.5 -127 295 -133 q 331 -127 316 -121 q 356 -133 344 -131 q 382 -135 368 -135 q 422 -127.5 408 -135 q 436 -105 436 -120 q 427.5 -88 436 -94 q 399 -82 419 -82 q 384.5 -82.5 392 -82 q 369 -85 377 -83 q 356.5 -86.5 362 -87 q 346 -82 351 -86 q 341 -72 342 -78 q 341 -56 340 -66 l 348 -7 q 217 35 274 2 q 96 160.5 138 79 q 54 353 54 242 q 78 502.5 54 436 q 147 616.5 102 569 q 257.5 689.5 192 664 q 405 715 323 715 q 513 701 460 715 q 606 661 566 687 q 634 629.5 627 648 q 637 593.5 641 611 q 620.5 564 633 576 q 589.5 550.5 608 552 q 549 563 571 549 q 482 592 518 583 q 409 601 446 601 q 289 572 338 601 q 215 488 240 543 q 190 353 190 433 q 215 218 190 274 q 289 133 240 162 q 409 104 338 104 q 484 113.5 447 104 q 554 143 521 123 q 593.5 154.5 576 156 q 623 142 611 153 q 639 114.5 635 131 q 637 80.5 643 98 q 613 50 631 63 q 518 6 573 21 q 414 -10 466 -9 l 409 -38 q 420 -37 415 -37 q 486 -56 461 -37 q 511 -109 511 -75 q 478 -171.5 511 -148 q 392 -195 445 -195 m 539 876 l 443 771 q 416.5 757.5 431 758 q 390.5 765.5 402 757 q 375.5 787 379 774 q 381 814 372 800 l 459 929 q 485.5 949.5 470 946 q 516 947.5 501 953 q 540.5 930.5 531 942 q 551 904.5 550 919 q 539 876 552 890"},"Ĉ":{"ha":680,"x_min":54,"x_max":640.6,"o":"m 405 -10 q 216.5 34.5 295 -10 q 96 160.5 138 79 q 54 353 54 242 q 78 502.5 54 436 q 147 616.5 102 569 q 257.5 689.5 192 664 q 405 715 323 715 q 513 701 460 715 q 606 661 566 687 q 634 629.5 627 648 q 637 593.5 641 611 q 620.5 564 633 576 q 589.5 550.5 608 552 q 549 563 571 549 q 482 592 518 583 q 409 601 446 601 q 289 572 338 601 q 215 488 240 543 q 190 353 190 433 q 215 218 190 274 q 289 133 240 162 q 409 104 338 104 q 484 113.5 447 104 q 554 143 521 123 q 593.5 154.5 576 156 q 623 142 611 153 q 639 114.5 635 131 q 637 80.5 643 98 q 613 50 631 63 q 517.5 5.5 573 21 q 405 -10 462 -10 m 392 869 l 308 771 q 281 757 296 758 q 254.5 763.5 266 756 q 239.5 783.5 243 771 q 246 810 236 796 l 319 911 q 351.5 941.5 333 932 q 392 951 370 951 q 433 941.5 415 951 q 466 911 451 932 l 538 810 q 545.5 783.5 549 796 q 530.5 763.5 542 771 q 504 757 519 756 q 477 771 489 758 l 392 869"},"Ċ":{"ha":680,"x_min":54,"x_max":640.6,"o":"m 405 -10 q 216.5 34.5 295 -10 q 96 160.5 138 79 q 54 353 54 242 q 78 502.5 54 436 q 147 616.5 102 569 q 257.5 689.5 192 664 q 405 715 323 715 q 513 701 460 715 q 606 661 566 687 q 634 629.5 627 648 q 637 593.5 641 611 q 620.5 564 633 576 q 589.5 550.5 608 552 q 549 563 571 549 q 482 592 518 583 q 409 601 446 601 q 289 572 338 601 q 215 488 240 543 q 190 353 190 433 q 215 218 190 274 q 289 133 240 162 q 409 104 338 104 q 484 113.5 447 104 q 554 143 521 123 q 593.5 154.5 576 156 q 623 142 611 153 q 639 114.5 635 131 q 637 80.5 643 98 q 613 50 631 63 q 517.5 5.5 573 21 q 405 -10 462 -10 m 392 789 q 344 805.5 361 789 q 327 852 327 822 q 344 898 327 882 q 392 914 361 914 q 440.5 898 424 914 q 457 852 457 882 q 440.5 805.5 457 822 q 392 789 424 789"},"D":{"ha":762,"x_min":77,"x_max":709,"o":"m 339 0 l 145 0 q 94.5 17.5 112 0 q 77 68 77 35 l 77 637 q 94.5 687.5 77 670 q 145 705 112 705 l 339 705 q 612.5 614 516 705 q 709 353 709 523 q 684.5 202.5 709 268 q 612.5 92 660 137 q 496.5 23.5 565 47 q 339 0 428 0 m 205 599 l 205 106 l 331 106 q 438.5 121.5 393 106 q 514.5 167.5 484 137 q 560 244.5 545 198 q 575 353 575 291 q 514 538 575 477 q 331 599 453 599 l 205 599"},"Ǆ":{"ha":1352,"x_min":77,"x_max":1339,"o":"m 339 0 l 145 0 q 94.5 17.5 112 0 q 77 68 77 35 l 77 637 q 94.5 687.5 77 670 q 145 705 112 705 l 339 705 q 612.5 614 516 705 q 709 353 709 523 q 684.5 202.5 709 268 q 612.5 92 660 137 q 496.5 23.5 565 47 q 339 0 428 0 m 205 599 l 205 106 l 331 106 q 438.5 121.5 393 106 q 514.5 167.5 484 137 q 560 244.5 545 198 q 575 353 575 291 q 514 538 575 477 q 331 599 453 599 l 205 599 m 1282 0 l 853 0 q 812.5 10 828 0 q 791.5 37.5 797 20 q 791.5 76.5 786 55 q 814 121 797 98 l 1166 598 l 843 598 q 800.5 612 815 598 q 786 652 786 626 q 800.5 691.5 786 678 q 843 705 815 705 l 1257 705 q 1297.5 695 1282 705 q 1318.5 668 1313 685 q 1318.5 629 1324 651 q 1296 584 1313 607 l 944 107 l 1282 107 q 1324.5 93.5 1310 107 q 1339 54 1339 80 q 1324.5 14 1339 28 q 1282 0 1310 0 m 1060 754 q 1019.5 763.5 1038 754 q 987 793 1001 773 l 914 895 q 907.5 922 904 909 q 923 942.5 911 935 q 949.5 948.5 935 950 q 976 933 964 947 l 1060 835 l 1145 933 q 1171.5 948.5 1157 947 q 1197.5 942.5 1186 950 q 1212.5 922.5 1209 935 q 1206 895 1216 910 l 1134 793 q 1101.5 763.5 1120 773 q 1060 754 1083 754"},"Ð":{"ha":762,"x_min":-17,"x_max":709,"o":"m 339 0 l 145 0 q 94.5 17.5 112 0 q 77 68 77 35 l 77 310 l 32 310 q -4.5 322.5 8 310 q -17 357 -17 335 q -4.5 392 -17 380 q 32 404 8 404 l 77 404 l 77 637 q 94.5 687.5 77 670 q 145 705 112 705 l 339 705 q 612.5 614 516 705 q 709 353 709 523 q 684.5 202.5 709 268 q 612.5 92 660 137 q 496.5 23.5 565 47 q 339 0 428 0 m 205 310 l 205 106 l 331 106 q 438.5 121.5 393 106 q 514.5 167.5 484 137 q 560 244.5 545 198 q 575 353 575 291 q 514 538 575 477 q 331 599 453 599 l 205 599 l 205 404 l 355 404 q 391 392.5 378 404 q 404 357 404 381 q 391 322.5 404 335 q 355 310 378 310 l 205 310"},"Ď":{"ha":762,"x_min":77,"x_max":709,"o":"m 339 0 l 145 0 q 94.5 17.5 112 0 q 77 68 77 35 l 77 637 q 94.5 687.5 77 670 q 145 705 112 705 l 339 705 q 612.5 614 516 705 q 709 353 709 523 q 684.5 202.5 709 268 q 612.5 92 660 137 q 496.5 23.5 565 47 q 339 0 428 0 m 205 599 l 205 106 l 331 106 q 438.5 121.5 393 106 q 514.5 167.5 484 137 q 560 244.5 545 198 q 575 353 575 291 q 514 538 575 477 q 331 599 453 599 l 205 599 m 379 754 q 338.5 763.5 357 754 q 306 793 320 773 l 233 895 q 226.5 922 223 909 q 242 942.5 230 935 q 268.5 948.5 254 950 q 295 933 283 947 l 379 835 l 464 933 q 490.5 948.5 476 947 q 516.5 942.5 505 950 q 531.5 922.5 528 935 q 525 895 535 910 l 453 793 q 420.5 763.5 439 773 q 379 754 402 754"},"Đ":{"ha":762,"x_min":-17,"x_max":709,"o":"m 339 0 l 145 0 q 94.5 17.5 112 0 q 77 68 77 35 l 77 310 l 32 310 q -4.5 322.5 8 310 q -17 357 -17 335 q -4.5 392 -17 380 q 32 404 8 404 l 77 404 l 77 637 q 94.5 687.5 77 670 q 145 705 112 705 l 339 705 q 612.5 614 516 705 q 709 353 709 523 q 684.5 202.5 709 268 q 612.5 92 660 137 q 496.5 23.5 565 47 q 339 0 428 0 m 205 310 l 205 106 l 331 106 q 438.5 121.5 393 106 q 514.5 167.5 484 137 q 560 244.5 545 198 q 575 353 575 291 q 514 538 575 477 q 331 599 453 599 l 205 599 l 205 404 l 355 404 q 391 392.5 378 404 q 404 357 404 381 q 391 322.5 404 335 q 355 310 378 310 l 205 310"},"Ḍ":{"ha":762,"x_min":77,"x_max":709,"o":"m 339 0 l 145 0 q 94.5 17.5 112 0 q 77 68 77 35 l 77 637 q 94.5 687.5 77 670 q 145 705 112 705 l 339 705 q 612.5 614 516 705 q 709 353 709 523 q 684.5 202.5 709 268 q 612.5 92 660 137 q 496.5 23.5 565 47 q 339 0 428 0 m 205 599 l 205 106 l 331 106 q 438.5 121.5 393 106 q 514.5 167.5 484 137 q 560 244.5 545 198 q 575 353 575 291 q 514 538 575 477 q 331 599 453 599 l 205 599 m 379 -209 q 331 -192.5 348 -209 q 314 -146 314 -176 q 331 -100 314 -116 q 379 -84 348 -84 q 428 -100 411 -84 q 445 -146 445 -116 q 428 -192.5 445 -176 q 379 -209 411 -209"},"Ɗ":{"ha":913,"x_min":0,"x_max":859,"o":"m 489 0 l 295 0 q 244.5 17.5 262 0 q 227 68 227 35 l 227 614 l 201 614 q 129 591.5 153 614 q 105 522 105 569 l 105 506 q 99.5 485 105 496 q 82.5 467 94 474 q 53 460 71 460 q 23.5 467.5 35 460 q 6 486.5 12 475 q 0 509 0 498 l 0 527 q 51.5 659 0 613 q 203 705 103 705 l 489 705 q 762.5 614 666 705 q 859 353 859 523 q 834.5 202.5 859 268 q 762.5 92 810 137 q 646.5 23.5 715 47 q 489 0 578 0 m 355 599 l 355 106 l 481 106 q 588.5 121.5 543 106 q 664.5 167.5 634 137 q 710 244.5 695 198 q 725 353 725 291 q 664 538 725 477 q 481 599 603 599 l 355 599"},"Ḏ":{"ha":762,"x_min":77,"x_max":709,"o":"m 339 0 l 145 0 q 94.5 17.5 112 0 q 77 68 77 35 l 77 637 q 94.5 687.5 77 670 q 145 705 112 705 l 339 705 q 612.5 614 516 705 q 709 353 709 523 q 684.5 202.5 709 268 q 612.5 92 660 137 q 496.5 23.5 565 47 q 339 0 428 0 m 205 599 l 205 106 l 331 106 q 438.5 121.5 393 106 q 514.5 167.5 484 137 q 560 244.5 545 198 q 575 353 575 291 q 514 538 575 477 q 331 599 453 599 l 205 599 m 503 -165 l 256 -165 q 217 -128 217 -165 q 227 -100.5 217 -110 q 256 -91 237 -91 l 503 -91 q 542 -128 542 -91 q 532 -155 542 -145 q 503 -165 522 -165"},"ǅ":{"ha":1236,"x_min":77,"x_max":1218,"o":"m 339 0 l 145 0 q 94.5 17.5 112 0 q 77 68 77 35 l 77 637 q 94.5 687.5 77 670 q 145 705 112 705 l 339 705 q 612.5 614 516 705 q 709 353 709 523 q 684.5 202.5 709 268 q 612.5 92 660 137 q 496.5 23.5 565 47 q 339 0 428 0 m 205 599 l 205 106 l 331 106 q 438.5 121.5 393 106 q 514.5 167.5 484 137 q 560 244.5 545 198 q 575 353 575 291 q 514 538 575 477 q 331 599 453 599 l 205 599 m 1170 0 l 857 0 q 825.5 9.5 838 0 q 809 34 813 19 q 809.5 66.5 805 49 q 828 100 814 84 l 1063 395 l 851 395 q 815.5 407.5 828 395 q 803 442 803 420 q 815.5 477 803 465 q 851 489 828 489 l 1147 489 q 1183 479.5 1169 489 q 1201.5 455 1197 470 q 1202 423 1206 440 q 1184 391 1198 406 l 946 94 l 1170 94 q 1218 47 1218 94 q 1205.5 12.5 1218 25 q 1170 0 1193 0 m 1005 536 q 964.5 548.5 982 536 q 935 583 947 561 l 863 714 q 859 743 854 730 q 876 762.5 864 756 q 901.5 767 888 769 q 924 751 915 765 l 1005 625 l 1086 751 q 1108.5 767 1095 765 q 1134 762.5 1122 769 q 1151 743 1146 756 q 1147 714 1156 730 l 1076 583 q 1046 548.5 1064 561 q 1005 536 1028 536"},"E":{"ha":597,"x_min":77,"x_max":554,"o":"m 502 0 l 145 0 q 94.5 17.5 112 0 q 77 68 77 35 l 77 637 q 94.5 687.5 77 670 q 145 705 112 705 l 502 705 q 540.5 692 527 705 q 554 655 554 679 q 540.5 616.5 554 630 q 502 603 527 603 l 200 603 l 200 409 l 480 409 q 519 396 506 409 q 532 358 532 383 q 519 320 532 333 q 480 307 506 307 l 200 307 l 200 102 l 502 102 q 540.5 89 527 102 q 554 51 554 76 q 540.5 13 554 26 q 502 0 527 0"},"É":{"ha":597,"x_min":77,"x_max":554,"o":"m 502 0 l 145 0 q 94.5 17.5 112 0 q 77 68 77 35 l 77 637 q 94.5 687.5 77 670 q 145 705 112 705 l 502 705 q 540.5 692 527 705 q 554 655 554 679 q 540.5 616.5 554 630 q 502 603 527 603 l 200 603 l 200 409 l 480 409 q 519 396 506 409 q 532 358 532 383 q 519 320 532 333 q 480 307 506 307 l 200 307 l 200 102 l 502 102 q 540.5 89 527 102 q 554 51 554 76 q 540.5 13 554 26 q 502 0 527 0 m 475 876 l 379 771 q 352.5 757.5 367 758 q 326.5 765.5 338 757 q 311.5 787 315 774 q 317 814 308 800 l 395 929 q 421.5 949.5 406 946 q 452 947.5 437 953 q 476.5 930.5 467 942 q 487 904.5 486 919 q 475 876 488 890"},"Ĕ":{"ha":597,"x_min":77,"x_max":554,"o":"m 502 0 l 145 0 q 94.5 17.5 112 0 q 77 68 77 35 l 77 637 q 94.5 687.5 77 670 q 145 705 112 705 l 502 705 q 540.5 692 527 705 q 554 655 554 679 q 540.5 616.5 554 630 q 502 603 527 603 l 200 603 l 200 409 l 480 409 q 519 396 506 409 q 532 358 532 383 q 519 320 532 333 q 480 307 506 307 l 200 307 l 200 102 l 502 102 q 540.5 89 527 102 q 554 51 554 76 q 540.5 13 554 26 q 502 0 527 0 m 328 760 q 215.5 794.5 263 760 q 151 893 168 829 q 155.5 926 146 913 q 179 940 165 939 q 202 937.5 193 942 q 216 926 211 933 q 223 911 221 919 q 263.5 852.5 233 870 q 328 835 294 835 q 393 852.5 363 835 q 433 911 423 870 q 440 926 435 919 q 454 937.5 445 933 q 477 940 463 942 q 500.5 926 491 939 q 505 893 510 913 q 441 794.5 489 829 q 328 760 393 760"},"Ě":{"ha":597,"x_min":77,"x_max":554,"o":"m 502 0 l 145 0 q 94.5 17.5 112 0 q 77 68 77 35 l 77 637 q 94.5 687.5 77 670 q 145 705 112 705 l 502 705 q 540.5 692 527 705 q 554 655 554 679 q 540.5 616.5 554 630 q 502 603 527 603 l 200 603 l 200 409 l 480 409 q 519 396 506 409 q 532 358 532 383 q 519 320 532 333 q 480 307 506 307 l 200 307 l 200 102 l 502 102 q 540.5 89 527 102 q 554 51 554 76 q 540.5 13 554 26 q 502 0 527 0 m 328 754 q 287.5 763.5 306 754 q 255 793 269 773 l 182 895 q 175.5 922 172 909 q 191 942.5 179 935 q 217.5 948.5 203 950 q 244 933 232 947 l 328 835 l 413 933 q 439.5 948.5 425 947 q 465.5 942.5 454 950 q 480.5 922.5 477 935 q 474 895 484 910 l 402 793 q 369.5 763.5 388 773 q 328 754 351 754"},"Ȩ":{"ha":597,"x_min":77,"x_max":554,"o":"m 286 0 l 145 0 q 94.5 17.5 112 0 q 77 68 77 35 l 77 637 q 94.5 687.5 77 670 q 145 705 112 705 l 502 705 q 540.5 692 527 705 q 554 655 554 679 q 540.5 616.5 554 630 q 502 603 527 603 l 200 603 l 200 409 l 480 409 q 519 396 506 409 q 532 358 532 383 q 519 320 532 333 q 480 307 506 307 l 200 307 l 200 102 l 502 102 q 540.5 89 527 102 q 554 51 554 76 q 540.5 13 554 26 q 502 0 527 0 l 353 0 l 346 -38 q 357 -37 352 -37 q 423 -56 398 -37 q 448 -109 448 -75 q 415 -171.5 448 -148 q 329 -195 382 -195 q 289 -192.5 310 -195 q 251 -184 268 -190 q 230.5 -167.5 236 -179 q 228.5 -144.5 225 -156 q 242.5 -127 232 -133 q 268 -127 253 -121 q 293 -133 281 -131 q 319 -135 305 -135 q 359 -127.5 345 -135 q 373 -105 373 -120 q 364.5 -88 373 -94 q 336 -82 356 -82 q 321.5 -82.5 329 -82 q 306 -85 314 -83 q 293.5 -86.5 299 -87 q 283 -82 288 -86 q 278 -72 279 -78 q 278 -56 277 -66 l 286 0"},"Ḝ":{"ha":597,"x_min":77,"x_max":554,"o":"m 286 0 l 145 0 q 94.5 17.5 112 0 q 77 68 77 35 l 77 637 q 94.5 687.5 77 670 q 145 705 112 705 l 502 705 q 540.5 692 527 705 q 554 655 554 679 q 540.5 616.5 554 630 q 502 603 527 603 l 200 603 l 200 409 l 480 409 q 519 396 506 409 q 532 358 532 383 q 519 320 532 333 q 480 307 506 307 l 200 307 l 200 102 l 502 102 q 540.5 89 527 102 q 554 51 554 76 q 540.5 13 554 26 q 502 0 527 0 l 353 0 l 346 -38 q 357 -37 352 -37 q 423 -56 398 -37 q 448 -109 448 -75 q 415 -171.5 448 -148 q 329 -195 382 -195 q 289 -192.5 310 -195 q 251 -184 268 -190 q 230.5 -167.5 236 -179 q 228.5 -144.5 225 -156 q 242.5 -127 232 -133 q 268 -127 253 -121 q 293 -133 281 -131 q 319 -135 305 -135 q 359 -127.5 345 -135 q 373 -105 373 -120 q 364.5 -88 373 -94 q 336 -82 356 -82 q 321.5 -82.5 329 -82 q 306 -85 314 -83 q 293.5 -86.5 299 -87 q 283 -82 288 -86 q 278 -72 279 -78 q 278 -56 277 -66 l 286 0 m 328 760 q 215.5 794.5 263 760 q 151 893 168 829 q 155.5 926 146 913 q 179 940 165 939 q 202 937.5 193 942 q 216 926 211 933 q 223 911 221 919 q 263.5 852.5 233 870 q 328 835 294 835 q 393 852.5 363 835 q 433 911 423 870 q 440 926 435 919 q 454 937.5 445 933 q 477 940 463 942 q 500.5 926 491 939 q 505 893 510 913 q 441 794.5 489 829 q 328 760 393 760"},"Ê":{"ha":597,"x_min":77,"x_max":554,"o":"m 502 0 l 145 0 q 94.5 17.5 112 0 q 77 68 77 35 l 77 637 q 94.5 687.5 77 670 q 145 705 112 705 l 502 705 q 540.5 692 527 705 q 554 655 554 679 q 540.5 616.5 554 630 q 502 603 527 603 l 200 603 l 200 409 l 480 409 q 519 396 506 409 q 532 358 532 383 q 519 320 532 333 q 480 307 506 307 l 200 307 l 200 102 l 502 102 q 540.5 89 527 102 q 554 51 554 76 q 540.5 13 554 26 q 502 0 527 0 m 328 869 l 244 771 q 217 757 232 758 q 190.5 763.5 202 756 q 175.5 783.5 179 771 q 182 810 172 796 l 255 911 q 287.5 941.5 269 932 q 328 951 306 951 q 369 941.5 351 951 q 402 911 387 932 l 474 810 q 481.5 783.5 485 796 q 466.5 763.5 478 771 q 440 757 455 756 q 413 771 425 758 l 328 869"},"Ế":{"ha":597,"x_min":77,"x_max":594.08,"o":"m 502 0 l 145 0 q 94.5 17.5 112 0 q 77 68 77 35 l 77 637 q 94.5 687.5 77 670 q 145 705 112 705 l 502 705 q 540.5 692 527 705 q 554 655 554 679 q 540.5 616.5 554 630 q 502 603 527 603 l 200 603 l 200 409 l 480 409 q 519 396 506 409 q 532 358 532 383 q 519 320 532 333 q 480 307 506 307 l 200 307 l 200 102 l 502 102 q 540.5 89 527 102 q 554 51 554 76 q 540.5 13 554 26 q 502 0 527 0 m 328 860 l 247 769 q 221.5 754 235 756 q 197.5 759 208 752 q 184 778.5 187 766 q 191 806 181 791 l 256 903 q 288.5 933.5 271 925 q 328 942 306 942 q 356 938.5 343 942 q 380 926.5 369 935 q 400 903 391 918 l 465 806 q 472.5 778.5 475 791 q 460 759 470 766 q 436 754 450 752 q 410 769 422 756 l 328 860 m 584 968 l 503 865 q 482 851.5 494 853 q 460.5 856 470 850 q 448 873.5 451 862 q 453 900 445 885 l 515 1010 q 537 1030.5 524 1026 q 563 1031.5 550 1035 q 584.5 1018.5 576 1028 q 594 995.5 593 1009 q 584 968 595 982"},"Ệ":{"ha":597,"x_min":77,"x_max":554,"o":"m 502 0 l 145 0 q 94.5 17.5 112 0 q 77 68 77 35 l 77 637 q 94.5 687.5 77 670 q 145 705 112 705 l 502 705 q 540.5 692 527 705 q 554 655 554 679 q 540.5 616.5 554 630 q 502 603 527 603 l 200 603 l 200 409 l 480 409 q 519 396 506 409 q 532 358 532 383 q 519 320 532 333 q 480 307 506 307 l 200 307 l 200 102 l 502 102 q 540.5 89 527 102 q 554 51 554 76 q 540.5 13 554 26 q 502 0 527 0 m 328 -209 q 280 -192.5 297 -209 q 263 -146 263 -176 q 280 -100 263 -116 q 328 -84 297 -84 q 377 -100 360 -84 q 394 -146 394 -116 q 377 -192.5 394 -176 q 328 -209 360 -209 m 328 869 l 244 771 q 217 757 232 758 q 190.5 763.5 202 756 q 175.5 783.5 179 771 q 182 810 172 796 l 255 911 q 287.5 941.5 269 932 q 328 951 306 951 q 369 941.5 351 951 q 402 911 387 932 l 474 810 q 481.5 783.5 485 796 q 466.5 763.5 478 771 q 440 757 455 756 q 413 771 425 758 l 328 869"},"Ề":{"ha":597,"x_min":77,"x_max":554,"o":"m 502 0 l 145 0 q 94.5 17.5 112 0 q 77 68 77 35 l 77 637 q 94.5 687.5 77 670 q 145 705 112 705 l 502 705 q 540.5 692 527 705 q 554 655 554 679 q 540.5 616.5 554 630 q 502 603 527 603 l 200 603 l 200 409 l 480 409 q 519 396 506 409 q 532 358 532 383 q 519 320 532 333 q 480 307 506 307 l 200 307 l 200 102 l 502 102 q 540.5 89 527 102 q 554 51 554 76 q 540.5 13 554 26 q 502 0 527 0 m 328 860 l 247 769 q 221.5 754 235 756 q 197.5 759 208 752 q 184 778.5 187 766 q 191 806 181 791 l 256 903 q 288.5 933.5 271 925 q 328 942 306 942 q 356 938.5 343 942 q 380 926.5 369 935 q 400 903 391 918 l 465 806 q 472.5 778.5 475 791 q 460 759 470 766 q 436 754 450 752 q 410 769 422 756 l 328 860 m 482 865 l 401 968 q 391 995.5 390 982 q 400.5 1018.5 392 1009 q 422 1031.5 409 1028 q 448 1030.5 435 1035 q 470 1010 461 1026 l 532 900 q 537 873.5 540 885 q 524.5 856 534 862 q 503 851.5 515 850 q 482 865 491 853"},"Ể":{"ha":597,"x_min":77,"x_max":572,"o":"m 502 0 l 145 0 q 94.5 17.5 112 0 q 77 68 77 35 l 77 637 q 94.5 687.5 77 670 q 145 705 112 705 l 502 705 q 540.5 692 527 705 q 554 655 554 679 q 540.5 616.5 554 630 q 502 603 527 603 l 200 603 l 200 409 l 480 409 q 519 396 506 409 q 532 358 532 383 q 519 320 532 333 q 480 307 506 307 l 200 307 l 200 102 l 502 102 q 540.5 89 527 102 q 554 51 554 76 q 540.5 13 554 26 q 502 0 527 0 m 328 860 l 247 769 q 221.5 754 235 756 q 197.5 759 208 752 q 184 778.5 187 766 q 191 806 181 791 l 256 903 q 288.5 933.5 271 925 q 328 942 306 942 q 356 938.5 343 942 q 380 926.5 369 935 q 400 903 391 918 l 465 806 q 472.5 778.5 475 791 q 460 759 470 766 q 436 754 450 752 q 410 769 422 756 l 328 860 m 489 865 q 463 862.5 476 858 q 446.5 878 450 867 q 455 899 443 889 q 480.5 923 471 912 q 490 947 490 934 q 481 965.5 490 960 q 453 971 472 971 q 437.5 970 446 971 q 420 967 429 969 q 397 967 406 963 q 384 982 388 971 q 385 1003 380 994 q 405 1016 390 1012 q 440.5 1023 422 1021 q 479 1025 459 1025 q 547.5 1011 523 1025 q 572 966 572 997 q 559 926.5 572 946 q 527 891.5 546 907 q 489 865 508 876"},"Ễ":{"ha":597,"x_min":77,"x_max":554,"o":"m 502 0 l 145 0 q 94.5 17.5 112 0 q 77 68 77 35 l 77 637 q 94.5 687.5 77 670 q 145 705 112 705 l 502 705 q 540.5 692 527 705 q 554 655 554 679 q 540.5 616.5 554 630 q 502 603 527 603 l 200 603 l 200 409 l 480 409 q 519 396 506 409 q 532 358 532 383 q 519 320 532 333 q 480 307 506 307 l 200 307 l 200 102 l 502 102 q 540.5 89 527 102 q 554 51 554 76 q 540.5 13 554 26 q 502 0 527 0 m 328 837 l 238 763 q 206.5 754.5 222 750 q 185.5 772.5 191 759 q 192 800 180 786 l 251 870 q 287 897.5 268 890 q 328 905 306 905 q 357.5 901.5 344 905 q 383 890.5 371 898 q 406 870 395 883 l 464 800 q 471.5 779 473 790 q 462 760.5 470 768 q 442.5 753 454 753 q 418 763 431 753 l 328 837 m 187 922 q 165.5 933 173 923 q 162 959 158 943 q 198.5 1015 172 996 q 262 1034 225 1034 q 311 1023 289 1034 q 352.5 1001 333 1012 q 391 990 372 990 q 418 995.5 406 990 q 435 1014 430 1001 q 448.5 1031 440 1025 q 470 1036 457 1037 q 492 1025.5 484 1035 q 495 999 500 1016 q 458.5 943 485 962 q 395 924 432 924 q 345.5 935 368 924 q 304 957 323 946 q 266 968 285 968 q 239 962.5 251 968 q 222 944 227 957 q 209.5 927 218 933 q 187 922 201 921"},"Ȅ":{"ha":597,"x_min":77,"x_max":554,"o":"m 502 0 l 145 0 q 94.5 17.5 112 0 q 77 68 77 35 l 77 637 q 94.5 687.5 77 670 q 145 705 112 705 l 502 705 q 540.5 692 527 705 q 554 655 554 679 q 540.5 616.5 554 630 q 502 603 527 603 l 200 603 l 200 409 l 480 409 q 519 396 506 409 q 532 358 532 383 q 519 320 532 333 q 480 307 506 307 l 200 307 l 200 102 l 502 102 q 540.5 89 527 102 q 554 51 554 76 q 540.5 13 554 26 q 502 0 527 0 m 360 773 l 281 882 q 271 912 269 898 q 283 936 273 926 q 307.5 949.5 293 946 q 336 947.5 322 953 q 358 925 350 942 l 419 803 q 421.5 777.5 426 789 q 406 760.5 417 766 q 382.5 757.5 395 755 q 360 773 370 760 m 216 770 l 129 882 q 118 912 117 898 q 128.5 936 119 926 q 152 949.5 138 946 q 180 948 166 953 q 203 926 194 943 l 268 805 q 271.5 780 275 792 q 258.5 761.5 268 768 q 237 756.5 249 755 q 216 770 225 758"},"Ë":{"ha":597,"x_min":77,"x_max":554,"o":"m 502 0 l 145 0 q 94.5 17.5 112 0 q 77 68 77 35 l 77 637 q 94.5 687.5 77 670 q 145 705 112 705 l 502 705 q 540.5 692 527 705 q 554 655 554 679 q 540.5 616.5 554 630 q 502 603 527 603 l 200 603 l 200 409 l 480 409 q 519 396 506 409 q 532 358 532 383 q 519 320 532 333 q 480 307 506 307 l 200 307 l 200 102 l 502 102 q 540.5 89 527 102 q 554 51 554 76 q 540.5 13 554 26 q 502 0 527 0 m 423 786 q 377 802 393 786 q 361 848 361 818 q 377 893 361 877 q 423 909 393 909 q 468 893 452 909 q 484 848 484 877 q 468.5 802 484 818 q 423 786 453 786 m 234 786 q 188.5 802 205 786 q 172 848 172 818 q 188.5 893 172 877 q 234 909 205 909 q 280 893 264 909 q 296 848 296 877 q 280 802 296 818 q 234 786 264 786"},"Ė":{"ha":597,"x_min":77,"x_max":554,"o":"m 502 0 l 145 0 q 94.5 17.5 112 0 q 77 68 77 35 l 77 637 q 94.5 687.5 77 670 q 145 705 112 705 l 502 705 q 540.5 692 527 705 q 554 655 554 679 q 540.5 616.5 554 630 q 502 603 527 603 l 200 603 l 200 409 l 480 409 q 519 396 506 409 q 532 358 532 383 q 519 320 532 333 q 480 307 506 307 l 200 307 l 200 102 l 502 102 q 540.5 89 527 102 q 554 51 554 76 q 540.5 13 554 26 q 502 0 527 0 m 328 789 q 280 805.5 297 789 q 263 852 263 822 q 280 898 263 882 q 328 914 297 914 q 376.5 898 360 914 q 393 852 393 882 q 376.5 805.5 393 822 q 328 789 360 789"},"Ẹ":{"ha":597,"x_min":77,"x_max":554,"o":"m 502 0 l 145 0 q 94.5 17.5 112 0 q 77 68 77 35 l 77 637 q 94.5 687.5 77 670 q 145 705 112 705 l 502 705 q 540.5 692 527 705 q 554 655 554 679 q 540.5 616.5 554 630 q 502 603 527 603 l 200 603 l 200 409 l 480 409 q 519 396 506 409 q 532 358 532 383 q 519 320 532 333 q 480 307 506 307 l 200 307 l 200 102 l 502 102 q 540.5 89 527 102 q 554 51 554 76 q 540.5 13 554 26 q 502 0 527 0 m 328 -209 q 280 -192.5 297 -209 q 263 -146 263 -176 q 280 -100 263 -116 q 328 -84 297 -84 q 377 -100 360 -84 q 394 -146 394 -116 q 377 -192.5 394 -176 q 328 -209 360 -209"},"È":{"ha":597,"x_min":77,"x_max":554,"o":"m 502 0 l 145 0 q 94.5 17.5 112 0 q 77 68 77 35 l 77 637 q 94.5 687.5 77 670 q 145 705 112 705 l 502 705 q 540.5 692 527 705 q 554 655 554 679 q 540.5 616.5 554 630 q 502 603 527 603 l 200 603 l 200 409 l 480 409 q 519 396 506 409 q 532 358 532 383 q 519 320 532 333 q 480 307 506 307 l 200 307 l 200 102 l 502 102 q 540.5 89 527 102 q 554 51 554 76 q 540.5 13 554 26 q 502 0 527 0 m 278 771 l 182 876 q 170 904.5 169 890 q 180.5 930.5 171 919 q 205 947.5 190 942 q 235.5 949.5 220 953 q 262 929 251 946 l 340 814 q 345.5 787 349 800 q 330.5 765.5 342 774 q 304.5 757.5 319 757 q 278 771 290 758"},"Ẻ":{"ha":597,"x_min":77,"x_max":554,"o":"m 502 0 l 145 0 q 94.5 17.5 112 0 q 77 68 77 35 l 77 637 q 94.5 687.5 77 670 q 145 705 112 705 l 502 705 q 540.5 692 527 705 q 554 655 554 679 q 540.5 616.5 554 630 q 502 603 527 603 l 200 603 l 200 409 l 480 409 q 519 396 506 409 q 532 358 532 383 q 519 320 532 333 q 480 307 506 307 l 200 307 l 200 102 l 502 102 q 540.5 89 527 102 q 554 51 554 76 q 540.5 13 554 26 q 502 0 527 0 m 328 757 q 300 763.5 310 757 q 290 783 290 770 q 298.5 812 290 801 q 318 831.5 307 823 q 337.5 847.5 329 840 q 346 865 346 855 q 336 880 346 875 q 306 885 326 885 q 289.5 884 299 885 q 271 881 280 883 q 244.5 880 255 877 q 229 896 234 883 q 229.5 918.5 225 908 q 250 934 234 929 q 289.5 943 267 940 q 336 946 312 946 q 413 929 385 946 q 441 883 441 912 q 430 848 441 861 q 404 825.5 419 835 q 378 805.5 389 816 q 367 777 367 795 q 357 762.5 367 768 q 328 757 347 757"},"Ȇ":{"ha":597,"x_min":77,"x_max":554,"o":"m 502 0 l 145 0 q 94.5 17.5 112 0 q 77 68 77 35 l 77 637 q 94.5 687.5 77 670 q 145 705 112 705 l 502 705 q 540.5 692 527 705 q 554 655 554 679 q 540.5 616.5 554 630 q 502 603 527 603 l 200 603 l 200 409 l 480 409 q 519 396 506 409 q 532 358 532 383 q 519 320 532 333 q 480 307 506 307 l 200 307 l 200 102 l 502 102 q 540.5 89 527 102 q 554 51 554 76 q 540.5 13 554 26 q 502 0 527 0 m 179 760 q 155.5 774.5 165 762 q 151 807 146 787 q 215.5 905.5 168 872 q 328 939 263 939 q 441 905.5 393 939 q 505 807 489 872 q 500.5 774.5 510 787 q 477 760 491 762 q 454 763 463 759 q 440 774 445 767 q 433 789 435 781 q 393 847.5 423 830 q 328 865 363 865 q 264 847.5 294 865 q 223 789 234 830 q 216 774 221 781 q 202 763 211 767 q 179 760 193 759"},"Ē":{"ha":597,"x_min":77,"x_max":554,"o":"m 502 0 l 145 0 q 94.5 17.5 112 0 q 77 68 77 35 l 77 637 q 94.5 687.5 77 670 q 145 705 112 705 l 502 705 q 540.5 692 527 705 q 554 655 554 679 q 540.5 616.5 554 630 q 502 603 527 603 l 200 603 l 200 409 l 480 409 q 519 396 506 409 q 532 358 532 383 q 519 320 532 333 q 480 307 506 307 l 200 307 l 200 102 l 502 102 q 540.5 89 527 102 q 554 51 554 76 q 540.5 13 554 26 q 502 0 527 0 m 467 806 l 190 806 q 151 843 151 806 q 161 870.5 151 861 q 190 880 171 880 l 467 880 q 506 843 506 880 q 496 816 506 826 q 467 806 486 806"},"Ḗ":{"ha":597,"x_min":77,"x_max":554,"o":"m 502 0 l 145 0 q 94.5 17.5 112 0 q 77 68 77 35 l 77 637 q 94.5 687.5 77 670 q 145 705 112 705 l 502 705 q 540.5 692 527 705 q 554 655 554 679 q 540.5 616.5 554 630 q 502 603 527 603 l 200 603 l 200 409 l 480 409 q 519 396 506 409 q 532 358 532 383 q 519 320 532 333 q 480 307 506 307 l 200 307 l 200 102 l 502 102 q 540.5 89 527 102 q 554 51 554 76 q 540.5 13 554 26 q 502 0 527 0 m 448 783 l 208 783 q 177 792.5 188 783 q 166 820 166 802 q 177 847 166 837 q 208 857 188 857 l 448 857 q 479 847 468 857 q 490 820 490 837 q 479 792.5 490 802 q 448 783 468 783 m 437 975 l 367 893 q 343 879.5 356 881 q 319.5 885 330 878 q 305 904 309 892 q 309 930 301 916 l 358 1019 q 382.5 1041.5 368 1036 q 412 1043 397 1047 q 437 1029 427 1039 q 448.5 1004.5 447 1019 q 437 975 450 990"},"Ḕ":{"ha":597,"x_min":77,"x_max":554,"o":"m 502 0 l 145 0 q 94.5 17.5 112 0 q 77 68 77 35 l 77 637 q 94.5 687.5 77 670 q 145 705 112 705 l 502 705 q 540.5 692 527 705 q 554 655 554 679 q 540.5 616.5 554 630 q 502 603 527 603 l 200 603 l 200 409 l 480 409 q 519 396 506 409 q 532 358 532 383 q 519 320 532 333 q 480 307 506 307 l 200 307 l 200 102 l 502 102 q 540.5 89 527 102 q 554 51 554 76 q 540.5 13 554 26 q 502 0 527 0 m 289 893 l 219 975 q 207.5 1004.5 206 990 q 219 1029 209 1019 q 244 1043 229 1039 q 273.5 1041.5 259 1047 q 298 1019 288 1036 l 347 930 q 351 904 355 916 q 336.5 885 347 892 q 313 879.5 326 878 q 289 893 300 881 m 448 783 l 208 783 q 177 792.5 188 783 q 166 820 166 802 q 177 847 166 837 q 208 857 188 857 l 448 857 q 479 847 468 857 q 490 820 490 837 q 479 792.5 490 802 q 448 783 468 783"},"Ę":{"ha":597,"x_min":77,"x_max":565.24,"o":"m 398 0 l 145 0 q 94.5 17.5 112 0 q 77 68 77 35 l 77 637 q 94.5 687.5 77 670 q 145 705 112 705 l 502 705 q 540.5 692 527 705 q 554 655 554 679 q 540.5 616.5 554 630 q 502 603 527 603 l 200 603 l 200 409 l 480 409 q 519 396 506 409 q 532 358 532 383 q 519 320 532 333 q 480 307 506 307 l 200 307 l 200 102 l 502 102 q 540.5 89 527 102 q 554 51 554 76 q 540.5 13 554 26 q 502 0 527 0 l 498 0 q 468 -18.5 482 -7 q 446 -45 454 -30 q 438 -77 438 -60 q 454 -115 438 -102 q 494 -128 470 -128 q 508.5 -127 501 -128 q 524 -124 516 -126 q 552 -125.5 542 -119 q 564.5 -144.5 562 -132 q 561 -168.5 567 -157 q 540 -186 555 -180 q 507.5 -193.5 524 -192 q 477 -195 491 -195 q 390.5 -167 422 -195 q 359 -91 359 -139 q 387 -13 359 -49 q 398 0 392 -6"},"Ẽ":{"ha":597,"x_min":77,"x_max":554,"o":"m 502 0 l 145 0 q 94.5 17.5 112 0 q 77 68 77 35 l 77 637 q 94.5 687.5 77 670 q 145 705 112 705 l 502 705 q 540.5 692 527 705 q 554 655 554 679 q 540.5 616.5 554 630 q 502 603 527 603 l 200 603 l 200 409 l 480 409 q 519 396 506 409 q 532 358 532 383 q 519 320 532 333 q 480 307 506 307 l 200 307 l 200 102 l 502 102 q 540.5 89 527 102 q 554 51 554 76 q 540.5 13 554 26 q 502 0 527 0 m 139 769 q 114 780 123 770 q 109 807 105 790 q 155.5 893.5 121 863 q 239 924 190 924 q 291 914 267 924 q 337 891 315 904 q 379.5 868 359 878 q 420 858 400 858 q 461.5 871.5 446 858 q 482 905 477 885 q 495 925.5 486 919 q 517 931 504 932 q 542 920 533 930 q 547 893 551 910 q 501.5 806.5 535 837 q 418 776 468 776 q 365.5 786 390 776 q 319 809 341 796 q 276.5 832 297 822 q 236 842 256 842 q 195 828.5 211 842 q 174 795 179 815 q 161.5 775 170 782 q 139 769 153 768"},"Ə":{"ha":785,"x_min":54,"x_max":732,"o":"m 400 -10 q 250 17 315 -10 q 141.5 93 185 44 q 76 210.5 98 142 q 54 361 54 279 q 64.5 395 54 384 q 95 406 75 406 l 595 406 q 570 491 588 454 q 488 576 542 547 q 355 605 434 605 q 258.5 595 303 605 q 171 562 214 585 q 131.5 553.5 149 551 q 103 568 114 556 q 89.5 596.5 92 580 q 93.5 629 87 613 q 119 656 100 645 q 233.5 700 169 685 q 370 715 298 715 q 561 671 480 715 q 687 546 642 627 q 732 352 732 465 q 708 202.5 732 269 q 640 88.5 684 136 q 535 15.5 596 41 q 400 -10 474 -10 m 596 302 l 188 302 q 209 212 193 251 q 278.5 125 232 154 q 394 96 325 96 q 504.5 125.5 459 96 q 574 212 550 155 q 596 302 590 251"},"F":{"ha":562,"x_min":77,"x_max":546,"o":"m 143 -8 q 94.5 9.5 112 -8 q 77 60 77 27 l 77 637 q 94.5 687.5 77 670 q 145 705 112 705 l 494 705 q 533 692 520 705 q 546 655 546 679 q 533 616.5 546 630 q 494 603 520 603 l 205 603 l 205 404 l 473 404 q 511.5 391 498 404 q 525 354 525 378 q 511.5 315.5 525 329 q 473 302 498 302 l 205 302 l 205 60 q 143 -8 205 -8"},"G":{"ha":736,"x_min":54,"x_max":665,"o":"m 416 -10 q 218.5 34 299 -10 q 96 159 138 78 q 54 351 54 240 q 78.5 502 54 435 q 149.5 616.5 103 569 q 263 689.5 196 664 q 415 715 330 715 q 527.5 701.5 471 715 q 634 656 584 688 q 656.5 629 651 645 q 658 596.5 662 613 q 643 568 654 580 q 615.5 553 632 556 q 579 561 599 550 q 502 593 541 583 q 415 603 463 603 q 290 573.5 341 603 q 213.5 488 239 544 q 188 351 188 432 q 247 164 188 228 q 422 100 306 100 q 503 108 462 100 q 558 122 531 113 l 558 286 l 448 286 q 409.5 299 423 286 q 396 334 396 312 q 409.5 369 396 357 q 448 381 423 381 l 613 381 q 651.5 367.5 638 381 q 665 329 665 354 l 665 86 q 656.5 49 665 64 q 629 27 648 34 q 528 0.5 585 11 q 416 -10 471 -10"},"Ğ":{"ha":736,"x_min":54,"x_max":665,"o":"m 416 -10 q 218.5 34 299 -10 q 96 159 138 78 q 54 351 54 240 q 78.5 502 54 435 q 149.5 616.5 103 569 q 263 689.5 196 664 q 415 715 330 715 q 527.5 701.5 471 715 q 634 656 584 688 q 656.5 629 651 645 q 658 596.5 662 613 q 643 568 654 580 q 615.5 553 632 556 q 579 561 599 550 q 502 593 541 583 q 415 603 463 603 q 290 573.5 341 603 q 213.5 488 239 544 q 188 351 188 432 q 247 164 188 228 q 422 100 306 100 q 503 108 462 100 q 558 122 531 113 l 558 286 l 448 286 q 409.5 299 423 286 q 396 334 396 312 q 409.5 369 396 357 q 448 381 423 381 l 613 381 q 651.5 367.5 638 381 q 665 329 665 354 l 665 86 q 656.5 49 665 64 q 629 27 648 34 q 528 0.5 585 11 q 416 -10 471 -10 m 401 760 q 288.5 794.5 336 760 q 224 893 241 829 q 228.5 926 219 913 q 252 940 238 939 q 275 937.5 266 942 q 289 926 284 933 q 296 911 294 919 q 336.5 852.5 306 870 q 401 835 367 835 q 466 852.5 436 835 q 506 911 496 870 q 513 926 508 919 q 527 937.5 518 933 q 550 940 536 942 q 573.5 926 564 939 q 578 893 583 913 q 514 794.5 562 829 q 401 760 466 760"},"Ǧ":{"ha":736,"x_min":54,"x_max":665,"o":"m 416 -10 q 218.5 34 299 -10 q 96 159 138 78 q 54 351 54 240 q 78.5 502 54 435 q 149.5 616.5 103 569 q 263 689.5 196 664 q 415 715 330 715 q 527.5 701.5 471 715 q 634 656 584 688 q 656.5 629 651 645 q 658 596.5 662 613 q 643 568 654 580 q 615.5 553 632 556 q 579 561 599 550 q 502 593 541 583 q 415 603 463 603 q 290 573.5 341 603 q 213.5 488 239 544 q 188 351 188 432 q 247 164 188 228 q 422 100 306 100 q 503 108 462 100 q 558 122 531 113 l 558 286 l 448 286 q 409.5 299 423 286 q 396 334 396 312 q 409.5 369 396 357 q 448 381 423 381 l 613 381 q 651.5 367.5 638 381 q 665 329 665 354 l 665 86 q 656.5 49 665 64 q 629 27 648 34 q 528 0.5 585 11 q 416 -10 471 -10 m 401 754 q 360.5 763.5 379 754 q 328 793 342 773 l 255 895 q 248.5 922 245 909 q 264 942.5 252 935 q 290.5 948.5 276 950 q 317 933 305 947 l 401 835 l 486 933 q 512.5 948.5 498 947 q 538.5 942.5 527 950 q 553.5 922.5 550 935 q 547 895 557 910 l 475 793 q 442.5 763.5 461 773 q 401 754 424 754"},"Ĝ":{"ha":736,"x_min":54,"x_max":665,"o":"m 416 -10 q 218.5 34 299 -10 q 96 159 138 78 q 54 351 54 240 q 78.5 502 54 435 q 149.5 616.5 103 569 q 263 689.5 196 664 q 415 715 330 715 q 527.5 701.5 471 715 q 634 656 584 688 q 656.5 629 651 645 q 658 596.5 662 613 q 643 568 654 580 q 615.5 553 632 556 q 579 561 599 550 q 502 593 541 583 q 415 603 463 603 q 290 573.5 341 603 q 213.5 488 239 544 q 188 351 188 432 q 247 164 188 228 q 422 100 306 100 q 503 108 462 100 q 558 122 531 113 l 558 286 l 448 286 q 409.5 299 423 286 q 396 334 396 312 q 409.5 369 396 357 q 448 381 423 381 l 613 381 q 651.5 367.5 638 381 q 665 329 665 354 l 665 86 q 656.5 49 665 64 q 629 27 648 34 q 528 0.5 585 11 q 416 -10 471 -10 m 401 869 l 317 771 q 290 757 305 758 q 263.5 763.5 275 756 q 248.5 783.5 252 771 q 255 810 245 796 l 328 911 q 360.5 941.5 342 932 q 401 951 379 951 q 442 941.5 424 951 q 475 911 460 932 l 547 810 q 554.5 783.5 558 796 q 539.5 763.5 551 771 q 513 757 528 756 q 486 771 498 758 l 401 869"},"Ģ":{"ha":736,"x_min":54,"x_max":665,"o":"m 416 -10 q 218.5 34 299 -10 q 96 159 138 78 q 54 351 54 240 q 78.5 502 54 435 q 149.5 616.5 103 569 q 263 689.5 196 664 q 415 715 330 715 q 527.5 701.5 471 715 q 634 656 584 688 q 656.5 629 651 645 q 658 596.5 662 613 q 643 568 654 580 q 615.5 553 632 556 q 579 561 599 550 q 502 593 541 583 q 415 603 463 603 q 290 573.5 341 603 q 213.5 488 239 544 q 188 351 188 432 q 247 164 188 228 q 422 100 306 100 q 503 108 462 100 q 558 122 531 113 l 558 286 l 448 286 q 409.5 299 423 286 q 396 334 396 312 q 409.5 369 396 357 q 448 381 423 381 l 613 381 q 651.5 367.5 638 381 q 665 329 665 354 l 665 86 q 656.5 49 665 64 q 629 27 648 34 q 528 0.5 585 11 q 416 -10 471 -10 m 434 -260 q 411.5 -274 424 -272 q 389.5 -269.5 399 -276 q 378.5 -251.5 380 -263 q 387 -225 377 -240 q 402 -193 397 -211 q 404 -184 403 -189 q 358 -168 374 -183 q 340 -125 340 -153 q 357.5 -82 340 -97 q 407 -67 375 -67 q 457.5 -84 440 -67 q 475 -136 475 -101 q 470.5 -179 475 -157 q 457 -222 466 -201 q 434 -260 448 -243"},"Ġ":{"ha":736,"x_min":54,"x_max":665,"o":"m 416 -10 q 218.5 34 299 -10 q 96 159 138 78 q 54 351 54 240 q 78.5 502 54 435 q 149.5 616.5 103 569 q 263 689.5 196 664 q 415 715 330 715 q 527.5 701.5 471 715 q 634 656 584 688 q 656.5 629 651 645 q 658 596.5 662 613 q 643 568 654 580 q 615.5 553 632 556 q 579 561 599 550 q 502 593 541 583 q 415 603 463 603 q 290 573.5 341 603 q 213.5 488 239 544 q 188 351 188 432 q 247 164 188 228 q 422 100 306 100 q 503 108 462 100 q 558 122 531 113 l 558 286 l 448 286 q 409.5 299 423 286 q 396 334 396 312 q 409.5 369 396 357 q 448 381 423 381 l 613 381 q 651.5 367.5 638 381 q 665 329 665 354 l 665 86 q 656.5 49 665 64 q 629 27 648 34 q 528 0.5 585 11 q 416 -10 471 -10 m 401 789 q 353 805.5 370 789 q 336 852 336 822 q 353 898 336 882 q 401 914 370 914 q 449.5 898 433 914 q 466 852 466 882 q 449.5 805.5 466 822 q 401 789 433 789"},"Ḡ":{"ha":736,"x_min":54,"x_max":665,"o":"m 416 -10 q 218.5 34 299 -10 q 96 159 138 78 q 54 351 54 240 q 78.5 502 54 435 q 149.5 616.5 103 569 q 263 689.5 196 664 q 415 715 330 715 q 527.5 701.5 471 715 q 634 656 584 688 q 656.5 629 651 645 q 658 596.5 662 613 q 643 568 654 580 q 615.5 553 632 556 q 579 561 599 550 q 502 593 541 583 q 415 603 463 603 q 290 573.5 341 603 q 213.5 488 239 544 q 188 351 188 432 q 247 164 188 228 q 422 100 306 100 q 503 108 462 100 q 558 122 531 113 l 558 286 l 448 286 q 409.5 299 423 286 q 396 334 396 312 q 409.5 369 396 357 q 448 381 423 381 l 613 381 q 651.5 367.5 638 381 q 665 329 665 354 l 665 86 q 656.5 49 665 64 q 629 27 648 34 q 528 0.5 585 11 q 416 -10 471 -10 m 540 806 l 263 806 q 224 843 224 806 q 234 870.5 224 861 q 263 880 244 880 l 540 880 q 579 843 579 880 q 569 816 579 826 q 540 806 559 806"},"H":{"ha":773,"x_min":77,"x_max":696,"o":"m 141 -8 q 93.5 9.5 110 -8 q 77 58 77 27 l 77 647 q 93.5 696 77 679 q 141 713 110 713 q 188.5 696 172 713 q 205 647 205 679 l 205 411 l 568 411 l 568 647 q 584.5 696 568 679 q 632 713 601 713 q 679.5 696 663 713 q 696 647 696 679 l 696 58 q 679.5 9.5 696 27 q 632 -8 663 -8 q 584.5 9.5 601 -8 q 568 58 568 27 l 568 304 l 205 304 l 205 58 q 189 9.5 205 27 q 141 -8 173 -8"},"Ħ":{"ha":817,"x_min":6,"x_max":812,"o":"m 164 -8 q 116 9.5 133 -8 q 99 58 99 27 l 99 511 l 55 511 q 6 558 6 511 q 19 593 6 581 q 55 605 32 605 l 99 605 l 99 647 q 116 696 99 679 q 164 713 133 713 q 211.5 696 195 713 q 228 647 228 679 l 228 605 l 590 605 l 590 647 q 607 696 590 679 q 655 713 624 713 q 702.5 696 686 713 q 719 647 719 679 l 719 605 l 763 605 q 812 558 812 605 q 799 523.5 812 536 q 763 511 786 511 l 719 511 l 719 58 q 702.5 9.5 719 27 q 655 -8 686 -8 q 607 9.5 624 -8 q 590 58 590 27 l 590 294 l 228 294 l 228 58 q 212 9.5 228 27 q 164 -8 196 -8 m 228 511 l 228 401 l 590 401 l 590 511 l 228 511"},"Ḫ":{"ha":773,"x_min":77,"x_max":696,"o":"m 141 -8 q 93.5 9.5 110 -8 q 77 58 77 27 l 77 647 q 93.5 696 77 679 q 141 713 110 713 q 188.5 696 172 713 q 205 647 205 679 l 205 411 l 568 411 l 568 647 q 584.5 696 568 679 q 632 713 601 713 q 679.5 696 663 713 q 696 647 696 679 l 696 58 q 679.5 9.5 696 27 q 632 -8 663 -8 q 584.5 9.5 601 -8 q 568 58 568 27 l 568 304 l 205 304 l 205 58 q 189 9.5 205 27 q 141 -8 173 -8 m 387 -215 q 282.5 -184.5 325 -215 q 226 -98 240 -154 q 229.5 -64.5 221 -77 q 254 -51 238 -52 q 273 -52.5 265 -50 q 287.5 -61.5 281 -55 q 297 -80 294 -68 q 329 -124.5 305 -108 q 387 -141 353 -141 q 445.5 -124.5 422 -141 q 477 -80 469 -108 q 493 -55.5 482 -62 q 520 -51 504 -49 q 545 -64.5 537 -52 q 548 -98 553 -77 q 491.5 -184.5 534 -154 q 387 -215 449 -215"},"Ĥ":{"ha":773,"x_min":77,"x_max":696,"o":"m 141 -8 q 93.5 9.5 110 -8 q 77 58 77 27 l 77 647 q 93.5 696 77 679 q 141 713 110 713 q 188.5 696 172 713 q 205 647 205 679 l 205 411 l 568 411 l 568 647 q 584.5 696 568 679 q 632 713 601 713 q 679.5 696 663 713 q 696 647 696 679 l 696 58 q 679.5 9.5 696 27 q 632 -8 663 -8 q 584.5 9.5 601 -8 q 568 58 568 27 l 568 304 l 205 304 l 205 58 q 189 9.5 205 27 q 141 -8 173 -8 m 386 869 l 302 771 q 275 757 290 758 q 248.5 763.5 260 756 q 233.5 783.5 237 771 q 240 810 230 796 l 313 911 q 345.5 941.5 327 932 q 386 951 364 951 q 427 941.5 409 951 q 460 911 445 932 l 532 810 q 539.5 783.5 543 796 q 524.5 763.5 536 771 q 498 757 513 756 q 471 771 483 758 l 386 869"},"Ḥ":{"ha":773,"x_min":77,"x_max":696,"o":"m 141 -8 q 93.5 9.5 110 -8 q 77 58 77 27 l 77 647 q 93.5 696 77 679 q 141 713 110 713 q 188.5 696 172 713 q 205 647 205 679 l 205 411 l 568 411 l 568 647 q 584.5 696 568 679 q 632 713 601 713 q 679.5 696 663 713 q 696 647 696 679 l 696 58 q 679.5 9.5 696 27 q 632 -8 663 -8 q 584.5 9.5 601 -8 q 568 58 568 27 l 568 304 l 205 304 l 205 58 q 189 9.5 205 27 q 141 -8 173 -8 m 387 -209 q 339 -192.5 356 -209 q 322 -146 322 -176 q 339 -100 322 -116 q 387 -84 356 -84 q 436 -100 419 -84 q 453 -146 453 -116 q 436 -192.5 453 -176 q 387 -209 419 -209"},"I":{"ha":282,"x_min":77,"x_max":205,"o":"m 141 -8 q 93.5 9.5 110 -8 q 77 58 77 27 l 77 647 q 93.5 696 77 679 q 141 713 110 713 q 188.5 696 172 713 q 205 647 205 679 l 205 58 q 189 9.5 205 27 q 141 -8 173 -8"},"Ĳ":{"ha":636,"x_min":77,"x_max":560,"o":"m 141 -8 q 93.5 9.5 110 -8 q 77 58 77 27 l 77 647 q 93.5 696 77 679 q 141 713 110 713 q 188.5 696 172 713 q 205 647 205 679 l 205 58 q 189 9.5 205 27 q 141 -8 173 -8 m 362 -5 l 328 -7 q 284 8 300 -8 q 268 49 268 24 q 279.5 82.5 268 68 q 313 98 291 97 l 343 100 q 409.5 127.5 387 103 q 432 198 432 152 l 432 648 q 448.5 696.5 432 680 q 496 713 465 713 q 543.5 696.5 527 713 q 560 648 560 680 l 560 199 q 537.5 92 560 136 q 471 23.5 515 48 q 362 -5 427 -1"},"Í":{"ha":282,"x_min":77,"x_max":300.07,"o":"m 141 -8 q 93.5 9.5 110 -8 q 77 58 77 27 l 77 647 q 93.5 696 77 679 q 141 713 110 713 q 188.5 696 172 713 q 205 647 205 679 l 205 58 q 189 9.5 205 27 q 141 -8 173 -8 m 288 876 l 192 771 q 165.5 757.5 180 758 q 139.5 765.5 151 757 q 124.5 787 128 774 q 130 814 121 800 l 208 929 q 234.5 949.5 219 946 q 265 947.5 250 953 q 289.5 930.5 280 942 q 300 904.5 299 919 q 288 876 301 890"},"Ĭ":{"ha":282,"x_min":-37.72,"x_max":319.72,"o":"m 141 -8 q 93.5 9.5 110 -8 q 77 58 77 27 l 77 647 q 93.5 696 77 679 q 141 713 110 713 q 188.5 696 172 713 q 205 647 205 679 l 205 58 q 189 9.5 205 27 q 141 -8 173 -8 m 141 760 q 28.5 794.5 76 760 q -36 893 -19 829 q -31.5 926 -41 913 q -8 940 -22 939 q 15 937.5 6 942 q 29 926 24 933 q 36 911 34 919 q 76.5 852.5 46 870 q 141 835 107 835 q 206 852.5 176 835 q 246 911 236 870 q 253 926 248 919 q 267 937.5 258 933 q 290 940 276 942 q 313.5 926 304 939 q 318 893 323 913 q 254 794.5 302 829 q 141 760 206 760"},"Î":{"ha":282,"x_min":-12.41,"x_max":295.34,"o":"m 141 -8 q 93.5 9.5 110 -8 q 77 58 77 27 l 77 647 q 93.5 696 77 679 q 141 713 110 713 q 188.5 696 172 713 q 205 647 205 679 l 205 58 q 189 9.5 205 27 q 141 -8 173 -8 m 141 869 l 57 771 q 30 757 45 758 q 3.5 763.5 15 756 q -11.5 783.5 -8 771 q -5 810 -15 796 l 68 911 q 100.5 941.5 82 932 q 141 951 119 951 q 182 941.5 164 951 q 215 911 200 932 l 287 810 q 294.5 783.5 298 796 q 279.5 763.5 291 771 q 253 757 268 756 q 226 771 238 758 l 141 869"},"Ȉ":{"ha":282,"x_min":-69.08,"x_max":236.26,"o":"m 141 -8 q 93.5 9.5 110 -8 q 77 58 77 27 l 77 647 q 93.5 696 77 679 q 141 713 110 713 q 188.5 696 172 713 q 205 647 205 679 l 205 58 q 189 9.5 205 27 q 141 -8 173 -8 m 173 773 l 94 882 q 84 912 82 898 q 96 936 86 926 q 120.5 949.5 106 946 q 149 947.5 135 953 q 171 925 163 942 l 232 803 q 234.5 777.5 239 789 q 219 760.5 230 766 q 195.5 757.5 208 755 q 173 773 183 760 m 29 770 l -58 882 q -69 912 -70 898 q -58.5 936 -68 926 q -35 949.5 -49 946 q -7 948 -21 953 q 16 926 7 943 l 81 805 q 84.5 780 88 792 q 71.5 761.5 81 768 q 50 756.5 62 755 q 29 770 38 758"},"Ï":{"ha":282,"x_min":-15,"x_max":297,"o":"m 141 -8 q 93.5 9.5 110 -8 q 77 58 77 27 l 77 647 q 93.5 696 77 679 q 141 713 110 713 q 188.5 696 172 713 q 205 647 205 679 l 205 58 q 189 9.5 205 27 q 141 -8 173 -8 m 236 786 q 190 802 206 786 q 174 848 174 818 q 190 893 174 877 q 236 909 206 909 q 281 893 265 909 q 297 848 297 877 q 281.5 802 297 818 q 236 786 266 786 m 47 786 q 1.5 802 18 786 q -15 848 -15 818 q 1.5 893 -15 877 q 47 909 18 909 q 93 893 77 909 q 109 848 109 877 q 93 802 109 818 q 47 786 77 786"},"Ḯ":{"ha":282,"x_min":-15,"x_max":297,"o":"m 141 -8 q 93.5 9.5 110 -8 q 77 58 77 27 l 77 647 q 93.5 696 77 679 q 141 713 110 713 q 188.5 696 172 713 q 205 647 205 679 l 205 58 q 189 9.5 205 27 q 141 -8 173 -8 m 250 974 l 179 893 q 155 879 168 880 q 131.5 884.5 142 878 q 117.5 903.5 121 891 q 122 930 114 916 l 171 1019 q 195.5 1041 181 1036 q 225 1042 210 1046 q 250.5 1027.5 240 1038 q 262 1003 261 1017 q 250 974 263 989 m 47 766 q 1.5 778.5 18 766 q -15 814 -15 791 q 1.5 849.5 -15 837 q 47 862 18 862 q 93 849.5 77 862 q 109 814 109 837 q 93 778.5 109 791 q 47 766 77 766 m 236 766 q 190 778.5 206 766 q 174 814 174 791 q 190 849.5 174 837 q 236 862 206 862 q 281 849.5 265 862 q 297 814 297 837 q 281.5 778.5 297 791 q 236 766 266 766"},"İ":{"ha":282,"x_min":76,"x_max":206,"o":"m 141 -8 q 93.5 9.5 110 -8 q 77 58 77 27 l 77 647 q 93.5 696 77 679 q 141 713 110 713 q 188.5 696 172 713 q 205 647 205 679 l 205 58 q 189 9.5 205 27 q 141 -8 173 -8 m 141 789 q 93 805.5 110 789 q 76 852 76 822 q 93 898 76 882 q 141 914 110 914 q 189.5 898 173 914 q 206 852 206 882 q 189.5 805.5 206 822 q 141 789 173 789"},"Ị":{"ha":282,"x_min":76,"x_max":207,"o":"m 141 -8 q 93.5 9.5 110 -8 q 77 58 77 27 l 77 647 q 93.5 696 77 679 q 141 713 110 713 q 188.5 696 172 713 q 205 647 205 679 l 205 58 q 189 9.5 205 27 q 141 -8 173 -8 m 141 -209 q 93 -192.5 110 -209 q 76 -146 76 -176 q 93 -100 76 -116 q 141 -84 110 -84 q 190 -100 173 -84 q 207 -146 207 -116 q 190 -192.5 207 -176 q 141 -209 173 -209"},"Ì":{"ha":282,"x_min":-17.07,"x_max":205,"o":"m 141 -8 q 93.5 9.5 110 -8 q 77 58 77 27 l 77 647 q 93.5 696 77 679 q 141 713 110 713 q 188.5 696 172 713 q 205 647 205 679 l 205 58 q 189 9.5 205 27 q 141 -8 173 -8 m 91 771 l -5 876 q -17 904.5 -18 890 q -6.5 930.5 -16 919 q 18 947.5 3 942 q 48.5 949.5 33 953 q 75 929 64 946 l 153 814 q 158.5 787 162 800 q 143.5 765.5 155 774 q 117.5 757.5 132 757 q 91 771 103 758"},"Ỉ":{"ha":282,"x_min":40.12,"x_max":254,"o":"m 141 -8 q 93.5 9.5 110 -8 q 77 58 77 27 l 77 647 q 93.5 696 77 679 q 141 713 110 713 q 188.5 696 172 713 q 205 647 205 679 l 205 58 q 189 9.5 205 27 q 141 -8 173 -8 m 141 757 q 113 763.5 123 757 q 103 783 103 770 q 111.5 812 103 801 q 131 831.5 120 823 q 150.5 847.5 142 840 q 159 865 159 855 q 149 880 159 875 q 119 885 139 885 q 102.5 884 112 885 q 84 881 93 883 q 57.5 880 68 877 q 42 896 47 883 q 42.5 918.5 38 908 q 63 934 47 929 q 102.5 943 80 940 q 149 946 125 946 q 226 929 198 946 q 254 883 254 912 q 243 848 254 861 q 217 825.5 232 835 q 191 805.5 202 816 q 180 777 180 795 q 170 762.5 180 768 q 141 757 160 757"},"Ȋ":{"ha":282,"x_min":-37.72,"x_max":319.72,"o":"m 141 -8 q 93.5 9.5 110 -8 q 77 58 77 27 l 77 647 q 93.5 696 77 679 q 141 713 110 713 q 188.5 696 172 713 q 205 647 205 679 l 205 58 q 189 9.5 205 27 q 141 -8 173 -8 m -8 760 q -31.5 774.5 -22 762 q -36 807 -41 787 q 28.5 905.5 -19 872 q 141 939 76 939 q 254 905.5 206 939 q 318 807 302 872 q 313.5 774.5 323 787 q 290 760 304 762 q 267 763 276 759 q 253 774 258 767 q 246 789 248 781 q 206 847.5 236 830 q 141 865 176 865 q 77 847.5 107 865 q 36 789 47 830 q 29 774 34 781 q 15 763 24 767 q -8 760 6 759"},"Ī":{"ha":282,"x_min":-36,"x_max":319,"o":"m 141 -8 q 93.5 9.5 110 -8 q 77 58 77 27 l 77 647 q 93.5 696 77 679 q 141 713 110 713 q 188.5 696 172 713 q 205 647 205 679 l 205 58 q 189 9.5 205 27 q 141 -8 173 -8 m 280 806 l 3 806 q -36 843 -36 806 q -26 870.5 -36 861 q 3 880 -16 880 l 280 880 q 319 843 319 880 q 309 816 319 826 q 280 806 299 806"},"Į":{"ha":282,"x_min":39,"x_max":245.24,"o":"m 157 -195 q 70.5 -167 102 -195 q 39 -91 39 -139 q 54 -34 39 -61 q 91 12 67 -8 q 82 30 85 19 q 77 58 77 42 l 77 647 q 93.5 696 77 679 q 141 713 110 713 q 188.5 696 172 713 q 205 647 205 679 l 205 58 q 196.5 20.5 205 36 q 175 -1 188 5 q 135 -31.5 152 -11 q 118 -77 118 -52 q 134 -115 118 -102 q 174 -128 150 -128 q 188.5 -127 181 -128 q 204 -124 196 -126 q 232 -125.5 222 -119 q 244.5 -144.5 242 -132 q 241 -168.5 247 -157 q 220 -186 235 -180 q 187.5 -193.5 204 -192 q 157 -195 171 -195"},"Ĩ":{"ha":282,"x_min":-79.23,"x_max":361.23,"o":"m 141 -8 q 93.5 9.5 110 -8 q 77 58 77 27 l 77 647 q 93.5 696 77 679 q 141 713 110 713 q 188.5 696 172 713 q 205 647 205 679 l 205 58 q 189 9.5 205 27 q 141 -8 173 -8 m -48 769 q -73 780 -64 770 q -78 807 -82 790 q -31.5 893.5 -66 863 q 52 924 3 924 q 104 914 80 924 q 150 891 128 904 q 192.5 868 172 878 q 233 858 213 858 q 274.5 871.5 259 858 q 295 905 290 885 q 308 925.5 299 919 q 330 931 317 932 q 355 920 346 930 q 360 893 364 910 q 314.5 806.5 348 837 q 231 776 281 776 q 178.5 786 203 776 q 132 809 154 796 q 89.5 832 110 822 q 49 842 69 842 q 8 828.5 24 842 q -13 795 -8 815 q -25.5 775 -17 782 q -48 769 -34 768"},"J":{"ha":354,"x_min":-14,"x_max":278,"o":"m 80 -5 l 46 -7 q 2 8 18 -8 q -14 49 -14 24 q -2.5 82.5 -14 68 q 31 98 9 97 l 61 100 q 127.5 127.5 105 103 q 150 198 150 152 l 150 648 q 166.5 696.5 150 680 q 214 713 183 713 q 261.5 696.5 245 713 q 278 648 278 680 l 278 199 q 255.5 92 278 136 q 189 23.5 233 48 q 80 -5 145 -1"},"Ĵ":{"ha":354,"x_min":-14,"x_max":367.34,"o":"m 80 -5 l 46 -7 q 2 8 18 -8 q -14 49 -14 24 q -2.5 82.5 -14 68 q 31 98 9 97 l 61 100 q 127.5 127.5 105 103 q 150 198 150 152 l 150 648 q 166.5 696.5 150 680 q 214 713 183 713 q 261.5 696.5 245 713 q 278 648 278 680 l 278 199 q 255.5 92 278 136 q 189 23.5 233 48 q 80 -5 145 -1 m 213 869 l 129 771 q 102 757 117 758 q 75.5 763.5 87 756 q 60.5 783.5 64 771 q 67 810 57 796 l 140 911 q 172.5 941.5 154 932 q 213 951 191 951 q 254 941.5 236 951 q 287 911 272 932 l 359 810 q 366.5 783.5 370 796 q 351.5 763.5 363 771 q 325 757 340 756 q 298 771 310 758 l 213 869"},"K":{"ha":665,"x_min":77,"x_max":630.06,"o":"m 141 -8 q 93.5 9.5 110 -8 q 77 58 77 27 l 77 648 q 93.5 696.5 77 680 q 141 713 110 713 q 188.5 696.5 172 713 q 205 648 205 680 l 205 393 l 207 393 l 494 681 q 526 705 510 697 q 562 713 542 713 q 603.5 698 591 713 q 613.5 663 616 683 q 594 626 611 643 l 331 366 l 608 85 q 630 43 629 65 q 616.5 6.5 631 21 q 574 -8 602 -8 q 535.5 2 550 -8 q 502 31 521 12 l 207 326 l 205 326 l 205 58 q 189 9.5 205 27 q 141 -8 173 -8"},"Ķ":{"ha":665,"x_min":77,"x_max":630.06,"o":"m 141 -8 q 93.5 9.5 110 -8 q 77 58 77 27 l 77 648 q 93.5 696.5 77 680 q 141 713 110 713 q 188.5 696.5 172 713 q 205 648 205 680 l 205 393 l 207 393 l 494 681 q 526 705 510 697 q 562 713 542 713 q 603.5 698 591 713 q 613.5 663 616 683 q 594 626 611 643 l 331 366 l 608 85 q 630 43 629 65 q 616.5 6.5 631 21 q 574 -8 602 -8 q 535.5 2 550 -8 q 502 31 521 12 l 207 326 l 205 326 l 205 58 q 189 9.5 205 27 q 141 -8 173 -8 m 358 -260 q 335.5 -274 348 -272 q 313.5 -269.5 323 -276 q 302.5 -251.5 304 -263 q 311 -225 301 -240 q 326 -193 321 -211 q 328 -184 327 -189 q 282 -168 298 -183 q 264 -125 264 -153 q 281.5 -82 264 -97 q 331 -67 299 -67 q 381.5 -84 364 -67 q 399 -136 399 -101 q 394.5 -179 399 -157 q 381 -222 390 -201 q 358 -260 372 -243"},"L":{"ha":562,"x_min":77,"x_max":551,"o":"m 495 0 l 142 0 q 94 17.5 111 0 q 77 66 77 35 l 77 643 q 93.5 691.5 77 675 q 141 708 110 708 q 188.5 691.5 172 708 q 205 643 205 675 l 205 109 l 495 109 q 536.5 95 522 109 q 551 55 551 81 q 536.5 14.5 551 29 q 495 0 522 0"},"Ǉ":{"ha":956,"x_min":77,"x_max":880,"o":"m 495 0 l 142 0 q 94 17.5 111 0 q 77 66 77 35 l 77 643 q 93.5 691.5 77 675 q 141 708 110 708 q 188.5 691.5 172 708 q 205 643 205 675 l 205 109 l 495 109 q 536.5 95 522 109 q 551 55 551 81 q 536.5 14.5 551 29 q 495 0 522 0 m 682 -5 l 648 -7 q 604 8 620 -8 q 588 49 588 24 q 599.5 82.5 588 68 q 633 98 611 97 l 663 100 q 729.5 127.5 707 103 q 752 198 752 152 l 752 648 q 768.5 696.5 752 680 q 816 713 785 713 q 863.5 696.5 847 713 q 880 648 880 680 l 880 199 q 857.5 92 880 136 q 791 23.5 835 48 q 682 -5 747 -1"},"Ĺ":{"ha":562,"x_min":77,"x_max":551,"o":"m 495 0 l 142 0 q 94 17.5 111 0 q 77 66 77 35 l 77 643 q 93.5 691.5 77 675 q 141 708 110 708 q 188.5 691.5 172 708 q 205 643 205 675 l 205 109 l 495 109 q 536.5 95 522 109 q 551 55 551 81 q 536.5 14.5 551 29 q 495 0 522 0 m 288 876 l 192 771 q 165.5 757.5 180 758 q 139.5 765.5 151 757 q 124.5 787 128 774 q 130 814 121 800 l 208 929 q 234.5 949.5 219 946 q 265 947.5 250 953 q 289.5 930.5 280 942 q 300 904.5 299 919 q 288 876 301 890"},"Ľ":{"ha":562,"x_min":77,"x_max":551,"o":"m 495 0 l 142 0 q 94 17.5 111 0 q 77 66 77 35 l 77 643 q 93.5 691.5 77 675 q 141 708 110 708 q 188.5 691.5 172 708 q 205 643 205 675 l 205 109 l 495 109 q 536.5 95 522 109 q 551 55 551 81 q 536.5 14.5 551 29 q 495 0 522 0 m 348 462 q 321 472 331 462 q 311 501 311 482 l 311 664 q 324 700.5 311 688 q 360 713 337 713 q 394.5 700.5 383 713 q 404 662 406 688 l 388 499 q 348 462 386 462"},"Ļ":{"ha":562,"x_min":77,"x_max":551,"o":"m 495 0 l 142 0 q 94 17.5 111 0 q 77 66 77 35 l 77 643 q 93.5 691.5 77 675 q 141 708 110 708 q 188.5 691.5 172 708 q 205 643 205 675 l 205 109 l 495 109 q 536.5 95 522 109 q 551 55 551 81 q 536.5 14.5 551 29 q 495 0 522 0 m 336 -260 q 313.5 -274 326 -272 q 291.5 -269.5 301 -276 q 280.5 -251.5 282 -263 q 289 -225 279 -240 q 304 -193 299 -211 q 306 -184 305 -189 q 260 -168 276 -183 q 242 -125 242 -153 q 259.5 -82 242 -97 q 309 -67 277 -67 q 359.5 -84 342 -67 q 377 -136 377 -101 q 372.5 -179 377 -157 q 359 -222 368 -201 q 336 -260 350 -243"},"Ŀ":{"ha":562,"x_min":77,"x_max":551,"o":"m 495 0 l 142 0 q 94 17.5 111 0 q 77 66 77 35 l 77 643 q 93.5 691.5 77 675 q 141 708 110 708 q 188.5 691.5 172 708 q 205 643 205 675 l 205 109 l 495 109 q 536.5 95 522 109 q 551 55 551 81 q 536.5 14.5 551 29 q 495 0 522 0 m 425 320 q 370.5 341 391 320 q 350 394 350 362 q 370.5 447.5 350 427 q 425 468 391 468 q 479.5 447.5 460 468 q 499 394 499 427 q 479.5 341 499 362 q 425 320 460 320"},"Ḷ":{"ha":562,"x_min":77,"x_max":551,"o":"m 495 0 l 142 0 q 94 17.5 111 0 q 77 66 77 35 l 77 643 q 93.5 691.5 77 675 q 141 708 110 708 q 188.5 691.5 172 708 q 205 643 205 675 l 205 109 l 495 109 q 536.5 95 522 109 q 551 55 551 81 q 536.5 14.5 551 29 q 495 0 522 0 m 310 -209 q 262 -192.5 279 -209 q 245 -146 245 -176 q 262 -100 245 -116 q 310 -84 279 -84 q 359 -100 342 -84 q 376 -146 376 -116 q 359 -192.5 376 -176 q 310 -209 342 -209"},"ǈ":{"ha":821,"x_min":77,"x_max":767,"o":"m 495 0 l 142 0 q 94 17.5 111 0 q 77 66 77 35 l 77 643 q 93.5 691.5 77 675 q 141 708 110 708 q 188.5 691.5 172 708 q 205 643 205 675 l 205 109 l 495 109 q 536.5 95 522 109 q 551 55 551 81 q 536.5 14.5 551 29 q 495 0 522 0 m 567 -189 q 531 -182.5 545 -191 q 511.5 -161 517 -174 q 508 -134 506 -148 q 519.5 -109.5 510 -120 q 545 -98 529 -99 q 610.5 -72.5 590 -94 q 631 -7 631 -51 l 631 434 q 647.5 481 631 465 q 694 497 664 497 q 740 481 724 497 q 756 434 756 465 l 756 4 q 735.5 -101 756 -60 q 673.5 -163 715 -142 q 567 -189 632 -184 m 693 589 q 638.5 606.5 658 589 q 619 655 619 624 q 638.5 704 619 687 q 693 721 658 721 q 748 704 729 721 q 767 655 767 687 q 748 606.5 767 624 q 693 589 729 589"},"Ḻ":{"ha":562,"x_min":77,"x_max":551,"o":"m 495 0 l 142 0 q 94 17.5 111 0 q 77 66 77 35 l 77 643 q 93.5 691.5 77 675 q 141 708 110 708 q 188.5 691.5 172 708 q 205 643 205 675 l 205 109 l 495 109 q 536.5 95 522 109 q 551 55 551 81 q 536.5 14.5 551 29 q 495 0 522 0 m 434 -165 l 187 -165 q 148 -128 148 -165 q 158 -100.5 148 -110 q 187 -91 168 -91 l 434 -91 q 473 -128 473 -91 q 463 -155 473 -145 q 434 -165 453 -165"},"Ł":{"ha":562,"x_min":-32.79,"x_max":551,"o":"m 495 0 l 142 0 q 94 17.5 111 0 q 77 66 77 35 l 77 267 l 44 248 q 9 239 25 237 q -17.5 251.5 -7 241 q -31.5 277 -28 262 q -29 307 -35 292 q -4 333 -23 322 l 77 380 l 77 643 q 93.5 691.5 77 675 q 141 708 110 708 q 188.5 691.5 172 708 q 205 643 205 675 l 205 453 l 331 526 q 366 534.5 350 537 q 392.5 521.5 382 532 q 406.5 496 403 511 q 404 466 410 481 q 379 440 398 451 l 205 340 l 205 109 l 495 109 q 536.5 95 522 109 q 551 55 551 81 q 536.5 14.5 551 29 q 495 0 522 0"},"M":{"ha":868,"x_min":79,"x_max":790,"o":"m 137 -8 q 94 8 109 -8 q 79 52 79 24 l 79 653 q 95 697.5 79 682 q 139 713 111 713 q 178.5 703.5 164 713 q 205 671 193 694 l 436 244 l 667 671 q 693 703.5 679 694 q 732 713 707 713 q 775 697.5 760 713 q 790 653 790 682 l 790 52 q 775.5 8 790 24 q 732 -8 761 -8 q 689 8 704 -8 q 674 52 674 24 l 674 475 l 486 132 q 465 107 476 115 q 435 99 454 99 q 404 107.5 416 99 q 383 132 392 116 l 195 473 l 195 52 q 180.5 8 195 24 q 137 -8 166 -8"},"Ṃ":{"ha":868,"x_min":79,"x_max":790,"o":"m 137 -8 q 94 8 109 -8 q 79 52 79 24 l 79 653 q 95 697.5 79 682 q 139 713 111 713 q 178.5 703.5 164 713 q 205 671 193 694 l 436 244 l 667 671 q 693 703.5 679 694 q 732 713 707 713 q 775 697.5 760 713 q 790 653 790 682 l 790 52 q 775.5 8 790 24 q 732 -8 761 -8 q 689 8 704 -8 q 674 52 674 24 l 674 475 l 486 132 q 465 107 476 115 q 435 99 454 99 q 404 107.5 416 99 q 383 132 392 116 l 195 473 l 195 52 q 180.5 8 195 24 q 137 -8 166 -8 m 435 -209 q 387 -192.5 404 -209 q 370 -146 370 -176 q 387 -100 370 -116 q 435 -84 404 -84 q 484 -100 467 -84 q 501 -146 501 -116 q 484 -192.5 501 -176 q 435 -209 467 -209"},"N":{"ha":748,"x_min":77,"x_max":671,"o":"m 137 -8 q 92.5 8 108 -8 q 77 54 77 24 l 77 649 q 92.5 696.5 77 680 q 133 713 108 713 q 167.5 704.5 156 713 q 195 676 179 696 l 552 213 l 552 652 q 567.5 697 552 681 q 612 713 583 713 q 656 697 641 713 q 671 652 671 681 l 671 52 q 657 8 671 24 q 619 -8 643 -8 q 582.5 1 596 -8 q 553 30 569 10 l 196 494 l 196 54 q 181 8 196 24 q 137 -8 166 -8"},"Ǌ":{"ha":1102,"x_min":77,"x_max":1026,"o":"m 137 -8 q 92.5 8 108 -8 q 77 54 77 24 l 77 649 q 92.5 696.5 77 680 q 133 713 108 713 q 167.5 704.5 156 713 q 195 676 179 696 l 552 213 l 552 652 q 567.5 697 552 681 q 612 713 583 713 q 656 697 641 713 q 671 652 671 681 l 671 52 q 657 8 671 24 q 619 -8 643 -8 q 582.5 1 596 -8 q 553 30 569 10 l 196 494 l 196 54 q 181 8 196 24 q 137 -8 166 -8 m 828 -5 l 794 -7 q 750 8 766 -8 q 734 49 734 24 q 745.5 82.5 734 68 q 779 98 757 97 l 809 100 q 875.5 127.5 853 103 q 898 198 898 152 l 898 648 q 914.5 696.5 898 680 q 962 713 931 713 q 1009.5 696.5 993 713 q 1026 648 1026 680 l 1026 199 q 1003.5 92 1026 136 q 937 23.5 981 48 q 828 -5 893 -1"},"Ń":{"ha":748,"x_min":77,"x_max":671,"o":"m 137 -8 q 92.5 8 108 -8 q 77 54 77 24 l 77 649 q 92.5 696.5 77 680 q 133 713 108 713 q 167.5 704.5 156 713 q 195 676 179 696 l 552 213 l 552 652 q 567.5 697 552 681 q 612 713 583 713 q 656 697 641 713 q 671 652 671 681 l 671 52 q 657 8 671 24 q 619 -8 643 -8 q 582.5 1 596 -8 q 553 30 569 10 l 196 494 l 196 54 q 181 8 196 24 q 137 -8 166 -8 m 521 876 l 425 771 q 398.5 757.5 413 758 q 372.5 765.5 384 757 q 357.5 787 361 774 q 363 814 354 800 l 441 929 q 467.5 949.5 452 946 q 498 947.5 483 953 q 522.5 930.5 513 942 q 533 904.5 532 919 q 521 876 534 890"},"Ň":{"ha":748,"x_min":77,"x_max":671,"o":"m 137 -8 q 92.5 8 108 -8 q 77 54 77 24 l 77 649 q 92.5 696.5 77 680 q 133 713 108 713 q 167.5 704.5 156 713 q 195 676 179 696 l 552 213 l 552 652 q 567.5 697 552 681 q 612 713 583 713 q 656 697 641 713 q 671 652 671 681 l 671 52 q 657 8 671 24 q 619 -8 643 -8 q 582.5 1 596 -8 q 553 30 569 10 l 196 494 l 196 54 q 181 8 196 24 q 137 -8 166 -8 m 374 754 q 333.5 763.5 352 754 q 301 793 315 773 l 228 895 q 221.5 922 218 909 q 237 942.5 225 935 q 263.5 948.5 249 950 q 290 933 278 947 l 374 835 l 459 933 q 485.5 948.5 471 947 q 511.5 942.5 500 950 q 526.5 922.5 523 935 q 520 895 530 910 l 448 793 q 415.5 763.5 434 773 q 374 754 397 754"},"Ņ":{"ha":748,"x_min":77,"x_max":671,"o":"m 137 -8 q 92.5 8 108 -8 q 77 54 77 24 l 77 649 q 92.5 696.5 77 680 q 133 713 108 713 q 167.5 704.5 156 713 q 195 676 179 696 l 552 213 l 552 652 q 567.5 697 552 681 q 612 713 583 713 q 656 697 641 713 q 671 652 671 681 l 671 52 q 657 8 671 24 q 619 -8 643 -8 q 582.5 1 596 -8 q 553 30 569 10 l 196 494 l 196 54 q 181 8 196 24 q 137 -8 166 -8 m 400 -260 q 377.5 -274 390 -272 q 355.5 -269.5 365 -276 q 344.5 -251.5 346 -263 q 353 -225 343 -240 q 368 -193 363 -211 q 370 -184 369 -189 q 324 -168 340 -183 q 306 -125 306 -153 q 323.5 -82 306 -97 q 373 -67 341 -67 q 423.5 -84 406 -67 q 441 -136 441 -101 q 436.5 -179 441 -157 q 423 -222 432 -201 q 400 -260 414 -243"},"Ṅ":{"ha":748,"x_min":77,"x_max":671,"o":"m 137 -8 q 92.5 8 108 -8 q 77 54 77 24 l 77 649 q 92.5 696.5 77 680 q 133 713 108 713 q 167.5 704.5 156 713 q 195 676 179 696 l 552 213 l 552 652 q 567.5 697 552 681 q 612 713 583 713 q 656 697 641 713 q 671 652 671 681 l 671 52 q 657 8 671 24 q 619 -8 643 -8 q 582.5 1 596 -8 q 553 30 569 10 l 196 494 l 196 54 q 181 8 196 24 q 137 -8 166 -8 m 374 789 q 326 805.5 343 789 q 309 852 309 822 q 326 898 309 882 q 374 914 343 914 q 422.5 898 406 914 q 439 852 439 882 q 422.5 805.5 439 822 q 374 789 406 789"},"Ṇ":{"ha":748,"x_min":77,"x_max":671,"o":"m 137 -8 q 92.5 8 108 -8 q 77 54 77 24 l 77 649 q 92.5 696.5 77 680 q 133 713 108 713 q 167.5 704.5 156 713 q 195 676 179 696 l 552 213 l 552 652 q 567.5 697 552 681 q 612 713 583 713 q 656 697 641 713 q 671 652 671 681 l 671 52 q 657 8 671 24 q 619 -8 643 -8 q 582.5 1 596 -8 q 553 30 569 10 l 196 494 l 196 54 q 181 8 196 24 q 137 -8 166 -8 m 374 -209 q 326 -192.5 343 -209 q 309 -146 309 -176 q 326 -100 309 -116 q 374 -84 343 -84 q 423 -100 406 -84 q 440 -146 440 -116 q 423 -192.5 440 -176 q 374 -209 406 -209"},"ǋ":{"ha":1007,"x_min":77,"x_max":953,"o":"m 137 -8 q 92.5 8 108 -8 q 77 54 77 24 l 77 649 q 92.5 696.5 77 680 q 133 713 108 713 q 167.5 704.5 156 713 q 195 676 179 696 l 552 213 l 552 652 q 567.5 697 552 681 q 612 713 583 713 q 656 697 641 713 q 671 652 671 681 l 671 52 q 657 8 671 24 q 619 -8 643 -8 q 582.5 1 596 -8 q 553 30 569 10 l 196 494 l 196 54 q 181 8 196 24 q 137 -8 166 -8 m 753 -189 q 717 -182.5 731 -191 q 697.5 -161 703 -174 q 694 -134 692 -148 q 705.5 -109.5 696 -120 q 731 -98 715 -99 q 796.5 -72.5 776 -94 q 817 -7 817 -51 l 817 434 q 833.5 481 817 465 q 880 497 850 497 q 926 481 910 497 q 942 434 942 465 l 942 4 q 921.5 -101 942 -60 q 859.5 -163 901 -142 q 753 -189 818 -184 m 879 589 q 824.5 606.5 844 589 q 805 655 805 624 q 824.5 704 805 687 q 879 721 844 721 q 934 704 915 721 q 953 655 953 687 q 934 606.5 953 624 q 879 589 915 589"},"Ṉ":{"ha":748,"x_min":77,"x_max":671,"o":"m 137 -8 q 92.5 8 108 -8 q 77 54 77 24 l 77 649 q 92.5 696.5 77 680 q 133 713 108 713 q 167.5 704.5 156 713 q 195 676 179 696 l 552 213 l 552 652 q 567.5 697 552 681 q 612 713 583 713 q 656 697 641 713 q 671 652 671 681 l 671 52 q 657 8 671 24 q 619 -8 643 -8 q 582.5 1 596 -8 q 553 30 569 10 l 196 494 l 196 54 q 181 8 196 24 q 137 -8 166 -8 m 498 -165 l 251 -165 q 212 -128 212 -165 q 222 -100.5 212 -110 q 251 -91 232 -91 l 498 -91 q 537 -128 537 -91 q 527 -155 537 -145 q 498 -165 517 -165"},"Ñ":{"ha":748,"x_min":77,"x_max":671,"o":"m 137 -8 q 92.5 8 108 -8 q 77 54 77 24 l 77 649 q 92.5 696.5 77 680 q 133 713 108 713 q 167.5 704.5 156 713 q 195 676 179 696 l 552 213 l 552 652 q 567.5 697 552 681 q 612 713 583 713 q 656 697 641 713 q 671 652 671 681 l 671 52 q 657 8 671 24 q 619 -8 643 -8 q 582.5 1 596 -8 q 553 30 569 10 l 196 494 l 196 54 q 181 8 196 24 q 137 -8 166 -8 m 185 769 q 160 780 169 770 q 155 807 151 790 q 201.5 893.5 167 863 q 285 924 236 924 q 337 914 313 924 q 383 891 361 904 q 425.5 868 405 878 q 466 858 446 858 q 507.5 871.5 492 858 q 528 905 523 885 q 541 925.5 532 919 q 563 931 550 932 q 588 920 579 930 q 593 893 597 910 q 547.5 806.5 581 837 q 464 776 514 776 q 411.5 786 436 776 q 365 809 387 796 q 322.5 832 343 822 q 282 842 302 842 q 241 828.5 257 842 q 220 795 225 815 q 207.5 775 216 782 q 185 769 199 768"},"Ŋ":{"ha":748,"x_min":77,"x_max":671,"o":"m 480 -189 q 444 -182.5 458 -191 q 425 -160.5 430 -174 q 422.5 -133.5 420 -147 q 434.5 -109.5 425 -120 q 460 -98 444 -99 q 529 -73 506 -93 q 552 -7 552 -53 l 552 31 l 196 494 l 196 54 q 181 8 196 24 q 137 -8 166 -8 q 92.5 8 108 -8 q 77 54 77 24 l 77 649 q 92.5 696.5 77 680 q 133 713 108 713 q 167.5 704.5 156 713 q 195 676 179 696 l 552 213 l 552 652 q 567.5 697 552 681 q 612 713 583 713 q 656 697 641 713 q 671 652 671 681 l 671 9 q 623.5 -138 671 -94 q 480 -189 576 -182"},"O":{"ha":785,"x_min":54,"x_max":732,"o":"m 393 -10 q 214.5 35 291 -10 q 96 161.5 138 80 q 54 353 54 243 q 78 502.5 54 436 q 146.5 616.5 102 569 q 253.5 689.5 191 664 q 393 715 316 715 q 572 670.5 496 715 q 690 545 648 626 q 732 354 732 464 q 708 204 732 271 q 639.5 89 684 137 q 532.5 15.5 595 41 q 393 -10 470 -10 m 393 100 q 503.5 130 458 100 q 573.5 217 549 160 q 598 353 598 274 q 544.5 539 598 473 q 393 605 491 605 q 283 575.5 329 605 q 212.5 489.5 237 546 q 188 353 188 433 q 242 167 188 234 q 393 100 296 100"},"Ó":{"ha":785,"x_min":54,"x_max":732,"o":"m 393 -10 q 214.5 35 291 -10 q 96 161.5 138 80 q 54 353 54 243 q 78 502.5 54 436 q 146.5 616.5 102 569 q 253.5 689.5 191 664 q 393 715 316 715 q 572 670.5 496 715 q 690 545 648 626 q 732 354 732 464 q 708 204 732 271 q 639.5 89 684 137 q 532.5 15.5 595 41 q 393 -10 470 -10 m 393 100 q 503.5 130 458 100 q 573.5 217 549 160 q 598 353 598 274 q 544.5 539 598 473 q 393 605 491 605 q 283 575.5 329 605 q 212.5 489.5 237 546 q 188 353 188 433 q 242 167 188 234 q 393 100 296 100 m 539 876 l 443 771 q 416.5 757.5 431 758 q 390.5 765.5 402 757 q 375.5 787 379 774 q 381 814 372 800 l 459 929 q 485.5 949.5 470 946 q 516 947.5 501 953 q 540.5 930.5 531 942 q 551 904.5 550 919 q 539 876 552 890"},"Ŏ":{"ha":785,"x_min":54,"x_max":732,"o":"m 393 -10 q 214.5 35 291 -10 q 96 161.5 138 80 q 54 353 54 243 q 78 502.5 54 436 q 146.5 616.5 102 569 q 253.5 689.5 191 664 q 393 715 316 715 q 572 670.5 496 715 q 690 545 648 626 q 732 354 732 464 q 708 204 732 271 q 639.5 89 684 137 q 532.5 15.5 595 41 q 393 -10 470 -10 m 393 100 q 503.5 130 458 100 q 573.5 217 549 160 q 598 353 598 274 q 544.5 539 598 473 q 393 605 491 605 q 283 575.5 329 605 q 212.5 489.5 237 546 q 188 353 188 433 q 242 167 188 234 q 393 100 296 100 m 392 760 q 279.5 794.5 327 760 q 215 893 232 829 q 219.5 926 210 913 q 243 940 229 939 q 266 937.5 257 942 q 280 926 275 933 q 287 911 285 919 q 327.5 852.5 297 870 q 392 835 358 835 q 457 852.5 427 835 q 497 911 487 870 q 504 926 499 919 q 518 937.5 509 933 q 541 940 527 942 q 564.5 926 555 939 q 569 893 574 913 q 505 794.5 553 829 q 392 760 457 760"},"Ô":{"ha":785,"x_min":54,"x_max":732,"o":"m 393 -10 q 214.5 35 291 -10 q 96 161.5 138 80 q 54 353 54 243 q 78 502.5 54 436 q 146.5 616.5 102 569 q 253.5 689.5 191 664 q 393 715 316 715 q 572 670.5 496 715 q 690 545 648 626 q 732 354 732 464 q 708 204 732 271 q 639.5 89 684 137 q 532.5 15.5 595 41 q 393 -10 470 -10 m 393 100 q 503.5 130 458 100 q 573.5 217 549 160 q 598 353 598 274 q 544.5 539 598 473 q 393 605 491 605 q 283 575.5 329 605 q 212.5 489.5 237 546 q 188 353 188 433 q 242 167 188 234 q 393 100 296 100 m 392 869 l 308 771 q 281 757 296 758 q 254.5 763.5 266 756 q 239.5 783.5 243 771 q 246 810 236 796 l 319 911 q 351.5 941.5 333 932 q 392 951 370 951 q 433 941.5 415 951 q 466 911 451 932 l 538 810 q 545.5 783.5 549 796 q 530.5 763.5 542 771 q 504 757 519 756 q 477 771 489 758 l 392 869"},"Ố":{"ha":785,"x_min":54,"x_max":732,"o":"m 393 -10 q 214.5 35 291 -10 q 96 161.5 138 80 q 54 353 54 243 q 78 502.5 54 436 q 146.5 616.5 102 569 q 253.5 689.5 191 664 q 393 715 316 715 q 572 670.5 496 715 q 690 545 648 626 q 732 354 732 464 q 708 204 732 271 q 639.5 89 684 137 q 532.5 15.5 595 41 q 393 -10 470 -10 m 393 100 q 503.5 130 458 100 q 573.5 217 549 160 q 598 353 598 274 q 544.5 539 598 473 q 393 605 491 605 q 283 575.5 329 605 q 212.5 489.5 237 546 q 188 353 188 433 q 242 167 188 234 q 393 100 296 100 m 392 860 l 311 769 q 285.5 754 299 756 q 261.5 759 272 752 q 248 778.5 251 766 q 255 806 245 791 l 320 903 q 352.5 933.5 335 925 q 392 942 370 942 q 420 938.5 407 942 q 444 926.5 433 935 q 464 903 455 918 l 529 806 q 536.5 778.5 539 791 q 524 759 534 766 q 500 754 514 752 q 474 769 486 756 l 392 860 m 648 968 l 567 865 q 546 851.5 558 853 q 524.5 856 534 850 q 512 873.5 515 862 q 517 900 509 885 l 579 1010 q 601 1030.5 588 1026 q 627 1031.5 614 1035 q 648.5 1018.5 640 1028 q 658 995.5 657 1009 q 648 968 659 982"},"Ộ":{"ha":785,"x_min":54,"x_max":732,"o":"m 393 -10 q 214.5 35 291 -10 q 96 161.5 138 80 q 54 353 54 243 q 78 502.5 54 436 q 146.5 616.5 102 569 q 253.5 689.5 191 664 q 393 715 316 715 q 572 670.5 496 715 q 690 545 648 626 q 732 354 732 464 q 708 204 732 271 q 639.5 89 684 137 q 532.5 15.5 595 41 q 393 -10 470 -10 m 393 100 q 503.5 130 458 100 q 573.5 217 549 160 q 598 353 598 274 q 544.5 539 598 473 q 393 605 491 605 q 283 575.5 329 605 q 212.5 489.5 237 546 q 188 353 188 433 q 242 167 188 234 q 393 100 296 100 m 392 -209 q 344 -192.5 361 -209 q 327 -146 327 -176 q 344 -100 327 -116 q 392 -84 361 -84 q 441 -100 424 -84 q 458 -146 458 -116 q 441 -192.5 458 -176 q 392 -209 424 -209 m 392 869 l 308 771 q 281 757 296 758 q 254.5 763.5 266 756 q 239.5 783.5 243 771 q 246 810 236 796 l 319 911 q 351.5 941.5 333 932 q 392 951 370 951 q 433 941.5 415 951 q 466 911 451 932 l 538 810 q 545.5 783.5 549 796 q 530.5 763.5 542 771 q 504 757 519 756 q 477 771 489 758 l 392 869"},"Ồ":{"ha":785,"x_min":54,"x_max":732,"o":"m 393 -10 q 214.5 35 291 -10 q 96 161.5 138 80 q 54 353 54 243 q 78 502.5 54 436 q 146.5 616.5 102 569 q 253.5 689.5 191 664 q 393 715 316 715 q 572 670.5 496 715 q 690 545 648 626 q 732 354 732 464 q 708 204 732 271 q 639.5 89 684 137 q 532.5 15.5 595 41 q 393 -10 470 -10 m 393 100 q 503.5 130 458 100 q 573.5 217 549 160 q 598 353 598 274 q 544.5 539 598 473 q 393 605 491 605 q 283 575.5 329 605 q 212.5 489.5 237 546 q 188 353 188 433 q 242 167 188 234 q 393 100 296 100 m 392 860 l 311 769 q 285.5 754 299 756 q 261.5 759 272 752 q 248 778.5 251 766 q 255 806 245 791 l 320 903 q 352.5 933.5 335 925 q 392 942 370 942 q 420 938.5 407 942 q 444 926.5 433 935 q 464 903 455 918 l 529 806 q 536.5 778.5 539 791 q 524 759 534 766 q 500 754 514 752 q 474 769 486 756 l 392 860 m 546 865 l 465 968 q 455 995.5 454 982 q 464.5 1018.5 456 1009 q 486 1031.5 473 1028 q 512 1030.5 499 1035 q 534 1010 525 1026 l 596 900 q 601 873.5 604 885 q 588.5 856 598 862 q 567 851.5 579 850 q 546 865 555 853"},"Ổ":{"ha":785,"x_min":54,"x_max":732,"o":"m 393 -10 q 214.5 35 291 -10 q 96 161.5 138 80 q 54 353 54 243 q 78 502.5 54 436 q 146.5 616.5 102 569 q 253.5 689.5 191 664 q 393 715 316 715 q 572 670.5 496 715 q 690 545 648 626 q 732 354 732 464 q 708 204 732 271 q 639.5 89 684 137 q 532.5 15.5 595 41 q 393 -10 470 -10 m 393 100 q 503.5 130 458 100 q 573.5 217 549 160 q 598 353 598 274 q 544.5 539 598 473 q 393 605 491 605 q 283 575.5 329 605 q 212.5 489.5 237 546 q 188 353 188 433 q 242 167 188 234 q 393 100 296 100 m 392 860 l 311 769 q 285.5 754 299 756 q 261.5 759 272 752 q 248 778.5 251 766 q 255 806 245 791 l 320 903 q 352.5 933.5 335 925 q 392 942 370 942 q 420 938.5 407 942 q 444 926.5 433 935 q 464 903 455 918 l 529 806 q 536.5 778.5 539 791 q 524 759 534 766 q 500 754 514 752 q 474 769 486 756 l 392 860 m 553 865 q 527 862.5 540 858 q 510.5 878 514 867 q 519 899 507 889 q 544.5 923 535 912 q 554 947 554 934 q 545 965.5 554 960 q 517 971 536 971 q 501.5 970 510 971 q 484 967 493 969 q 461 967 470 963 q 448 982 452 971 q 449 1003 444 994 q 469 1016 454 1012 q 504.5 1023 486 1021 q 543 1025 523 1025 q 611.5 1011 587 1025 q 636 966 636 997 q 623 926.5 636 946 q 591 891.5 610 907 q 553 865 572 876"},"Ỗ":{"ha":785,"x_min":54,"x_max":732,"o":"m 393 -10 q 214.5 35 291 -10 q 96 161.5 138 80 q 54 353 54 243 q 78 502.5 54 436 q 146.5 616.5 102 569 q 253.5 689.5 191 664 q 393 715 316 715 q 572 670.5 496 715 q 690 545 648 626 q 732 354 732 464 q 708 204 732 271 q 639.5 89 684 137 q 532.5 15.5 595 41 q 393 -10 470 -10 m 393 100 q 503.5 130 458 100 q 573.5 217 549 160 q 598 353 598 274 q 544.5 539 598 473 q 393 605 491 605 q 283 575.5 329 605 q 212.5 489.5 237 546 q 188 353 188 433 q 242 167 188 234 q 393 100 296 100 m 392 837 l 302 763 q 270.5 754.5 286 750 q 249.5 772.5 255 759 q 256 800 244 786 l 315 870 q 351 897.5 332 890 q 392 905 370 905 q 421.5 901.5 408 905 q 447 890.5 435 898 q 470 870 459 883 l 528 800 q 535.5 779 537 790 q 526 760.5 534 768 q 506.5 753 518 753 q 482 763 495 753 l 392 837 m 251 922 q 229.5 933 237 923 q 226 959 222 943 q 262.5 1015 236 996 q 326 1034 289 1034 q 375 1023 353 1034 q 416.5 1001 397 1012 q 455 990 436 990 q 482 995.5 470 990 q 499 1014 494 1001 q 512.5 1031 504 1025 q 534 1036 521 1037 q 556 1025.5 548 1035 q 559 999 564 1016 q 522.5 943 549 962 q 459 924 496 924 q 409.5 935 432 924 q 368 957 387 946 q 330 968 349 968 q 303 962.5 315 968 q 286 944 291 957 q 273.5 927 282 933 q 251 922 265 921"},"Ȍ":{"ha":785,"x_min":54,"x_max":732,"o":"m 393 -10 q 214.5 35 291 -10 q 96 161.5 138 80 q 54 353 54 243 q 78 502.5 54 436 q 146.5 616.5 102 569 q 253.5 689.5 191 664 q 393 715 316 715 q 572 670.5 496 715 q 690 545 648 626 q 732 354 732 464 q 708 204 732 271 q 639.5 89 684 137 q 532.5 15.5 595 41 q 393 -10 470 -10 m 393 100 q 503.5 130 458 100 q 573.5 217 549 160 q 598 353 598 274 q 544.5 539 598 473 q 393 605 491 605 q 283 575.5 329 605 q 212.5 489.5 237 546 q 188 353 188 433 q 242 167 188 234 q 393 100 296 100 m 424 773 l 345 882 q 335 912 333 898 q 347 936 337 926 q 371.5 949.5 357 946 q 400 947.5 386 953 q 422 925 414 942 l 483 803 q 485.5 777.5 490 789 q 470 760.5 481 766 q 446.5 757.5 459 755 q 424 773 434 760 m 280 770 l 193 882 q 182 912 181 898 q 192.5 936 183 926 q 216 949.5 202 946 q 244 948 230 953 q 267 926 258 943 l 332 805 q 335.5 780 339 792 q 322.5 761.5 332 768 q 301 756.5 313 755 q 280 770 289 758"},"Ö":{"ha":785,"x_min":54,"x_max":732,"o":"m 393 -10 q 214.5 35 291 -10 q 96 161.5 138 80 q 54 353 54 243 q 78 502.5 54 436 q 146.5 616.5 102 569 q 253.5 689.5 191 664 q 393 715 316 715 q 572 670.5 496 715 q 690 545 648 626 q 732 354 732 464 q 708 204 732 271 q 639.5 89 684 137 q 532.5 15.5 595 41 q 393 -10 470 -10 m 393 100 q 503.5 130 458 100 q 573.5 217 549 160 q 598 353 598 274 q 544.5 539 598 473 q 393 605 491 605 q 283 575.5 329 605 q 212.5 489.5 237 546 q 188 353 188 433 q 242 167 188 234 q 393 100 296 100 m 487 786 q 441 802 457 786 q 425 848 425 818 q 441 893 425 877 q 487 909 457 909 q 532 893 516 909 q 548 848 548 877 q 532.5 802 548 818 q 487 786 517 786 m 298 786 q 252.5 802 269 786 q 236 848 236 818 q 252.5 893 236 877 q 298 909 269 909 q 344 893 328 909 q 360 848 360 877 q 344 802 360 818 q 298 786 328 786"},"Ȫ":{"ha":785,"x_min":54,"x_max":732,"o":"m 393 -10 q 214.5 35 291 -10 q 96 161.5 138 80 q 54 353 54 243 q 78 502.5 54 436 q 146.5 616.5 102 569 q 253.5 689.5 191 664 q 393 715 316 715 q 572 670.5 496 715 q 690 545 648 626 q 732 354 732 464 q 708 204 732 271 q 639.5 89 684 137 q 532.5 15.5 595 41 q 393 -10 470 -10 m 393 100 q 503.5 130 458 100 q 573.5 217 549 160 q 598 353 598 274 q 544.5 539 598 473 q 393 605 491 605 q 283 575.5 329 605 q 212.5 489.5 237 546 q 188 353 188 433 q 242 167 188 234 q 393 100 296 100 m 512 924 l 272 924 q 241 934 252 924 q 230 961 230 944 q 241 988.5 230 979 q 272 998 252 998 l 512 998 q 543 988.5 532 998 q 554 961 554 979 q 543 934 554 944 q 512 924 532 924 m 298 783 q 252.5 796 269 783 q 236 832 236 809 q 252.5 867.5 236 855 q 298 880 269 880 q 344 867.5 328 880 q 360 832 360 855 q 344 796 360 809 q 298 783 328 783 m 487 783 q 441 796 457 783 q 425 832 425 809 q 441 867.5 425 855 q 487 880 457 880 q 532 867.5 516 880 q 548 832 548 855 q 532.5 796 548 809 q 487 783 517 783"},"Ȱ":{"ha":785,"x_min":54,"x_max":732,"o":"m 393 -10 q 214.5 35 291 -10 q 96 161.5 138 80 q 54 353 54 243 q 78 502.5 54 436 q 146.5 616.5 102 569 q 253.5 689.5 191 664 q 393 715 316 715 q 572 670.5 496 715 q 690 545 648 626 q 732 354 732 464 q 708 204 732 271 q 639.5 89 684 137 q 532.5 15.5 595 41 q 393 -10 470 -10 m 393 100 q 503.5 130 458 100 q 573.5 217 549 160 q 598 353 598 274 q 544.5 539 598 473 q 393 605 491 605 q 283 575.5 329 605 q 212.5 489.5 237 546 q 188 353 188 433 q 242 167 188 234 q 393 100 296 100 m 512 924 l 272 924 q 241 934 252 924 q 230 961 230 944 q 241 988.5 230 979 q 272 998 252 998 l 512 998 q 543 988.5 532 998 q 554 961 554 979 q 543 934 554 944 q 512 924 532 924 m 393 783 q 347.5 796 364 783 q 331 832 331 809 q 347.5 867.5 331 855 q 393 880 364 880 q 439 867.5 423 880 q 455 832 455 855 q 439 796 455 809 q 393 783 423 783"},"Ọ":{"ha":785,"x_min":54,"x_max":732,"o":"m 393 -10 q 214.5 35 291 -10 q 96 161.5 138 80 q 54 353 54 243 q 78 502.5 54 436 q 146.5 616.5 102 569 q 253.5 689.5 191 664 q 393 715 316 715 q 572 670.5 496 715 q 690 545 648 626 q 732 354 732 464 q 708 204 732 271 q 639.5 89 684 137 q 532.5 15.5 595 41 q 393 -10 470 -10 m 393 100 q 503.5 130 458 100 q 573.5 217 549 160 q 598 353 598 274 q 544.5 539 598 473 q 393 605 491 605 q 283 575.5 329 605 q 212.5 489.5 237 546 q 188 353 188 433 q 242 167 188 234 q 393 100 296 100 m 392 -209 q 344 -192.5 361 -209 q 327 -146 327 -176 q 344 -100 327 -116 q 392 -84 361 -84 q 441 -100 424 -84 q 458 -146 458 -116 q 441 -192.5 458 -176 q 392 -209 424 -209"},"Ò":{"ha":785,"x_min":54,"x_max":732,"o":"m 393 -10 q 214.5 35 291 -10 q 96 161.5 138 80 q 54 353 54 243 q 78 502.5 54 436 q 146.5 616.5 102 569 q 253.5 689.5 191 664 q 393 715 316 715 q 572 670.5 496 715 q 690 545 648 626 q 732 354 732 464 q 708 204 732 271 q 639.5 89 684 137 q 532.5 15.5 595 41 q 393 -10 470 -10 m 393 100 q 503.5 130 458 100 q 573.5 217 549 160 q 598 353 598 274 q 544.5 539 598 473 q 393 605 491 605 q 283 575.5 329 605 q 212.5 489.5 237 546 q 188 353 188 433 q 242 167 188 234 q 393 100 296 100 m 342 771 l 246 876 q 234 904.5 233 890 q 244.5 930.5 235 919 q 269 947.5 254 942 q 299.5 949.5 284 953 q 326 929 315 946 l 404 814 q 409.5 787 413 800 q 394.5 765.5 406 774 q 368.5 757.5 383 757 q 342 771 354 758"},"Ỏ":{"ha":785,"x_min":54,"x_max":732,"o":"m 393 -10 q 214.5 35 291 -10 q 96 161.5 138 80 q 54 353 54 243 q 78 502.5 54 436 q 146.5 616.5 102 569 q 253.5 689.5 191 664 q 393 715 316 715 q 572 670.5 496 715 q 690 545 648 626 q 732 354 732 464 q 708 204 732 271 q 639.5 89 684 137 q 532.5 15.5 595 41 q 393 -10 470 -10 m 393 100 q 503.5 130 458 100 q 573.5 217 549 160 q 598 353 598 274 q 544.5 539 598 473 q 393 605 491 605 q 283 575.5 329 605 q 212.5 489.5 237 546 q 188 353 188 433 q 242 167 188 234 q 393 100 296 100 m 392 757 q 364 763.5 374 757 q 354 783 354 770 q 362.5 812 354 801 q 382 831.5 371 823 q 401.5 847.5 393 840 q 410 865 410 855 q 400 880 410 875 q 370 885 390 885 q 353.5 884 363 885 q 335 881 344 883 q 308.5 880 319 877 q 293 896 298 883 q 293.5 918.5 289 908 q 314 934 298 929 q 353.5 943 331 940 q 400 946 376 946 q 477 929 449 946 q 505 883 505 912 q 494 848 505 861 q 468 825.5 483 835 q 442 805.5 453 816 q 431 777 431 795 q 421 762.5 431 768 q 392 757 411 757"},"Ơ":{"ha":785,"x_min":54,"x_max":732,"o":"m 393 -10 q 214.5 35 291 -10 q 96 161.5 138 80 q 54 353 54 243 q 78 502.5 54 436 q 146.5 616.5 102 569 q 253.5 689.5 191 664 q 393 715 316 715 q 471 708 434 715 q 490 707 481 707 q 523 705 507 705 q 579 715.5 558 705 q 609.5 746 600 726 q 619 794 619 766 q 633 827.5 619 815 q 674 840 647 840 q 714 826 700 840 q 728 790 728 812 q 710 716 728 750 q 660 662 692 682 q 611 643 638 648 q 690 545 660 604 q 732 354 732 464 q 708 204 732 271 q 639.5 89 684 137 q 532.5 15.5 595 41 q 393 -10 470 -10 m 393 100 q 503.5 130 458 100 q 573.5 217 549 160 q 598 353 598 274 q 544.5 539 598 473 q 393 605 491 605 q 283 575.5 329 605 q 212.5 489.5 237 546 q 188 353 188 433 q 242 167 188 234 q 393 100 296 100"},"Ớ":{"ha":785,"x_min":54,"x_max":732,"o":"m 393 -10 q 214.5 35 291 -10 q 96 161.5 138 80 q 54 353 54 243 q 78 502.5 54 436 q 146.5 616.5 102 569 q 253.5 689.5 191 664 q 393 715 316 715 q 471 708 434 715 q 490 707 481 707 q 523 705 507 705 q 579 715.5 558 705 q 609.5 746 600 726 q 619 794 619 766 q 633 827.5 619 815 q 674 840 647 840 q 714 826 700 840 q 728 790 728 812 q 710 716 728 750 q 660 662 692 682 q 611 643 638 648 q 690 545 660 604 q 732 354 732 464 q 708 204 732 271 q 639.5 89 684 137 q 532.5 15.5 595 41 q 393 -10 470 -10 m 393 100 q 503.5 130 458 100 q 573.5 217 549 160 q 598 353 598 274 q 544.5 539 598 473 q 393 605 491 605 q 283 575.5 329 605 q 212.5 489.5 237 546 q 188 353 188 433 q 242 167 188 234 q 393 100 296 100 m 536 876 l 440 771 q 413.5 757.5 428 758 q 387.5 765.5 399 757 q 372.5 787 376 774 q 378 814 369 800 l 456 929 q 482.5 949.5 467 946 q 513 947.5 498 953 q 537.5 930.5 528 942 q 548 904.5 547 919 q 536 876 549 890"},"Ợ":{"ha":785,"x_min":54,"x_max":732,"o":"m 393 -10 q 214.5 35 291 -10 q 96 161.5 138 80 q 54 353 54 243 q 78 502.5 54 436 q 146.5 616.5 102 569 q 253.5 689.5 191 664 q 393 715 316 715 q 471 708 434 715 q 490 707 481 707 q 523 705 507 705 q 579 715.5 558 705 q 609.5 746 600 726 q 619 794 619 766 q 633 827.5 619 815 q 674 840 647 840 q 714 826 700 840 q 728 790 728 812 q 710 716 728 750 q 660 662 692 682 q 611 643 638 648 q 690 545 660 604 q 732 354 732 464 q 708 204 732 271 q 639.5 89 684 137 q 532.5 15.5 595 41 q 393 -10 470 -10 m 393 100 q 503.5 130 458 100 q 573.5 217 549 160 q 598 353 598 274 q 544.5 539 598 473 q 393 605 491 605 q 283 575.5 329 605 q 212.5 489.5 237 546 q 188 353 188 433 q 242 167 188 234 q 393 100 296 100 m 390 -209 q 342 -192.5 359 -209 q 325 -146 325 -176 q 342 -100 325 -116 q 390 -84 359 -84 q 439 -100 422 -84 q 456 -146 456 -116 q 439 -192.5 456 -176 q 390 -209 422 -209"},"Ờ":{"ha":785,"x_min":54,"x_max":732,"o":"m 393 -10 q 214.5 35 291 -10 q 96 161.5 138 80 q 54 353 54 243 q 78 502.5 54 436 q 146.5 616.5 102 569 q 253.5 689.5 191 664 q 393 715 316 715 q 471 708 434 715 q 490 707 481 707 q 523 705 507 705 q 579 715.5 558 705 q 609.5 746 600 726 q 619 794 619 766 q 633 827.5 619 815 q 674 840 647 840 q 714 826 700 840 q 728 790 728 812 q 710 716 728 750 q 660 662 692 682 q 611 643 638 648 q 690 545 660 604 q 732 354 732 464 q 708 204 732 271 q 639.5 89 684 137 q 532.5 15.5 595 41 q 393 -10 470 -10 m 393 100 q 503.5 130 458 100 q 573.5 217 549 160 q 598 353 598 274 q 544.5 539 598 473 q 393 605 491 605 q 283 575.5 329 605 q 212.5 489.5 237 546 q 188 353 188 433 q 242 167 188 234 q 393 100 296 100 m 339 771 l 243 876 q 231 904.5 230 890 q 241.5 930.5 232 919 q 266 947.5 251 942 q 296.5 949.5 281 953 q 323 929 312 946 l 401 814 q 406.5 787 410 800 q 391.5 765.5 403 774 q 365.5 757.5 380 757 q 339 771 351 758"},"Ở":{"ha":785,"x_min":54,"x_max":732,"o":"m 393 -10 q 214.5 35 291 -10 q 96 161.5 138 80 q 54 353 54 243 q 78 502.5 54 436 q 146.5 616.5 102 569 q 253.5 689.5 191 664 q 393 715 316 715 q 471 708 434 715 q 490 707 481 707 q 523 705 507 705 q 579 715.5 558 705 q 609.5 746 600 726 q 619 794 619 766 q 633 827.5 619 815 q 674 840 647 840 q 714 826 700 840 q 728 790 728 812 q 710 716 728 750 q 660 662 692 682 q 611 643 638 648 q 690 545 660 604 q 732 354 732 464 q 708 204 732 271 q 639.5 89 684 137 q 532.5 15.5 595 41 q 393 -10 470 -10 m 393 100 q 503.5 130 458 100 q 573.5 217 549 160 q 598 353 598 274 q 544.5 539 598 473 q 393 605 491 605 q 283 575.5 329 605 q 212.5 489.5 237 546 q 188 353 188 433 q 242 167 188 234 q 393 100 296 100 m 389 757 q 361 763.5 371 757 q 351 783 351 770 q 359.5 812 351 801 q 379 831.5 368 823 q 398.5 847.5 390 840 q 407 865 407 855 q 397 880 407 875 q 367 885 387 885 q 350.5 884 360 885 q 332 881 341 883 q 305.5 880 316 877 q 290 896 295 883 q 290.5 918.5 286 908 q 311 934 295 929 q 350.5 943 328 940 q 397 946 373 946 q 474 929 446 946 q 502 883 502 912 q 491 848 502 861 q 465 825.5 480 835 q 439 805.5 450 816 q 428 777 428 795 q 418 762.5 428 768 q 389 757 408 757"},"Ỡ":{"ha":785,"x_min":54,"x_max":732,"o":"m 393 -10 q 214.5 35 291 -10 q 96 161.5 138 80 q 54 353 54 243 q 78 502.5 54 436 q 146.5 616.5 102 569 q 253.5 689.5 191 664 q 393 715 316 715 q 471 708 434 715 q 490 707 481 707 q 523 705 507 705 q 579 715.5 558 705 q 609.5 746 600 726 q 619 794 619 766 q 633 827.5 619 815 q 674 840 647 840 q 714 826 700 840 q 728 790 728 812 q 710 716 728 750 q 660 662 692 682 q 611 643 638 648 q 690 545 660 604 q 732 354 732 464 q 708 204 732 271 q 639.5 89 684 137 q 532.5 15.5 595 41 q 393 -10 470 -10 m 393 100 q 503.5 130 458 100 q 573.5 217 549 160 q 598 353 598 274 q 544.5 539 598 473 q 393 605 491 605 q 283 575.5 329 605 q 212.5 489.5 237 546 q 188 353 188 433 q 242 167 188 234 q 393 100 296 100 m 208 769 q 185.5 779.5 194 770 q 180 807 177 789 q 222.5 893 189 862 q 302 924 256 924 q 348 914 328 924 q 385.5 891 368 904 q 420.5 868 403 878 q 457 858 438 858 q 494 871.5 479 858 q 515 904 509 885 q 528.5 925 520 918 q 551 931 537 932 q 573.5 920.5 565 930 q 579 893 582 911 q 537 807 570 838 q 457 776 504 776 q 411.5 786 432 776 q 373 809 391 796 q 338 832 355 822 q 302 842 321 842 q 265 828.5 280 842 q 244 796 250 815 q 231 775.5 240 783 q 208 769 222 768"},"Ő":{"ha":785,"x_min":54,"x_max":732,"o":"m 393 -10 q 214.5 35 291 -10 q 96 161.5 138 80 q 54 353 54 243 q 78 502.5 54 436 q 146.5 616.5 102 569 q 253.5 689.5 191 664 q 393 715 316 715 q 572 670.5 496 715 q 690 545 648 626 q 732 354 732 464 q 708 204 732 271 q 639.5 89 684 137 q 532.5 15.5 595 41 q 393 -10 470 -10 m 393 100 q 503.5 130 458 100 q 573.5 217 549 160 q 598 353 598 274 q 544.5 539 598 473 q 393 605 491 605 q 283 575.5 329 605 q 212.5 489.5 237 546 q 188 353 188 433 q 242 167 188 234 q 393 100 296 100 m 439 882 l 360 773 q 337.5 757.5 350 760 q 314.5 760.5 325 755 q 299.5 777.5 304 766 q 302 803 295 789 l 362 925 q 384 947.5 370 942 q 412.5 949.5 398 953 q 437 936 427 946 q 449 912 447 926 q 439 882 451 898 m 592 882 l 505 770 q 483 756.5 495 758 q 461 761.5 471 755 q 448 779.5 451 768 q 452 805 445 791 l 518 926 q 541 948 527 943 q 569 949.5 555 953 q 592.5 936 583 946 q 603 912 602 926 q 592 882 604 898"},"Ȏ":{"ha":785,"x_min":54,"x_max":732,"o":"m 393 -10 q 214.5 35 291 -10 q 96 161.5 138 80 q 54 353 54 243 q 78 502.5 54 436 q 146.5 616.5 102 569 q 253.5 689.5 191 664 q 393 715 316 715 q 572 670.5 496 715 q 690 545 648 626 q 732 354 732 464 q 708 204 732 271 q 639.5 89 684 137 q 532.5 15.5 595 41 q 393 -10 470 -10 m 393 100 q 503.5 130 458 100 q 573.5 217 549 160 q 598 353 598 274 q 544.5 539 598 473 q 393 605 491 605 q 283 575.5 329 605 q 212.5 489.5 237 546 q 188 353 188 433 q 242 167 188 234 q 393 100 296 100 m 243 760 q 219.5 774.5 229 762 q 215 807 210 787 q 279.5 905.5 232 872 q 392 939 327 939 q 505 905.5 457 939 q 569 807 553 872 q 564.5 774.5 574 787 q 541 760 555 762 q 518 763 527 759 q 504 774 509 767 q 497 789 499 781 q 457 847.5 487 830 q 392 865 427 865 q 328 847.5 358 865 q 287 789 298 830 q 280 774 285 781 q 266 763 275 767 q 243 760 257 759"},"Ō":{"ha":785,"x_min":54,"x_max":732,"o":"m 393 -10 q 214.5 35 291 -10 q 96 161.5 138 80 q 54 353 54 243 q 78 502.5 54 436 q 146.5 616.5 102 569 q 253.5 689.5 191 664 q 393 715 316 715 q 572 670.5 496 715 q 690 545 648 626 q 732 354 732 464 q 708 204 732 271 q 639.5 89 684 137 q 532.5 15.5 595 41 q 393 -10 470 -10 m 393 100 q 503.5 130 458 100 q 573.5 217 549 160 q 598 353 598 274 q 544.5 539 598 473 q 393 605 491 605 q 283 575.5 329 605 q 212.5 489.5 237 546 q 188 353 188 433 q 242 167 188 234 q 393 100 296 100 m 531 806 l 254 806 q 215 843 215 806 q 225 870.5 215 861 q 254 880 235 880 l 531 880 q 570 843 570 880 q 560 816 570 826 q 531 806 550 806"},"Ṓ":{"ha":785,"x_min":54,"x_max":732,"o":"m 393 -10 q 214.5 35 291 -10 q 96 161.5 138 80 q 54 353 54 243 q 78 502.5 54 436 q 146.5 616.5 102 569 q 253.5 689.5 191 664 q 393 715 316 715 q 572 670.5 496 715 q 690 545 648 626 q 732 354 732 464 q 708 204 732 271 q 639.5 89 684 137 q 532.5 15.5 595 41 q 393 -10 470 -10 m 393 100 q 503.5 130 458 100 q 573.5 217 549 160 q 598 353 598 274 q 544.5 539 598 473 q 393 605 491 605 q 283 575.5 329 605 q 212.5 489.5 237 546 q 188 353 188 433 q 242 167 188 234 q 393 100 296 100 m 512 783 l 272 783 q 241 792.5 252 783 q 230 820 230 802 q 241 847 230 837 q 272 857 252 857 l 512 857 q 543 847 532 857 q 554 820 554 837 q 543 792.5 554 802 q 512 783 532 783 m 501 975 l 431 893 q 407 879.5 420 881 q 383.5 885 394 878 q 369 904 373 892 q 373 930 365 916 l 422 1019 q 446.5 1041.5 432 1036 q 476 1043 461 1047 q 501 1029 491 1039 q 512.5 1004.5 511 1019 q 501 975 514 990"},"Ṑ":{"ha":785,"x_min":54,"x_max":732,"o":"m 393 -10 q 214.5 35 291 -10 q 96 161.5 138 80 q 54 353 54 243 q 78 502.5 54 436 q 146.5 616.5 102 569 q 253.5 689.5 191 664 q 393 715 316 715 q 572 670.5 496 715 q 690 545 648 626 q 732 354 732 464 q 708 204 732 271 q 639.5 89 684 137 q 532.5 15.5 595 41 q 393 -10 470 -10 m 393 100 q 503.5 130 458 100 q 573.5 217 549 160 q 598 353 598 274 q 544.5 539 598 473 q 393 605 491 605 q 283 575.5 329 605 q 212.5 489.5 237 546 q 188 353 188 433 q 242 167 188 234 q 393 100 296 100 m 353 893 l 283 975 q 271.5 1004.5 270 990 q 283 1029 273 1019 q 308 1043 293 1039 q 337.5 1041.5 323 1047 q 362 1019 352 1036 l 411 930 q 415 904 419 916 q 400.5 885 411 892 q 377 879.5 390 878 q 353 893 364 881 m 512 783 l 272 783 q 241 792.5 252 783 q 230 820 230 802 q 241 847 230 837 q 272 857 252 857 l 512 857 q 543 847 532 857 q 554 820 554 837 q 543 792.5 554 802 q 512 783 532 783"},"Ǫ":{"ha":785,"x_min":54,"x_max":732,"o":"m 431 -195 q 344.5 -167 376 -195 q 313 -91 313 -139 q 341 -13 313 -49 q 346 -7 343 -10 q 215 35 273 1 q 96 161.5 138 80 q 54 353 54 243 q 78 502.5 54 436 q 146.5 616.5 102 569 q 253.5 689.5 191 664 q 393 715 316 715 q 572 670.5 496 715 q 690 545 648 626 q 732 354 732 464 q 708 204 732 271 q 639.5 89 684 137 q 533 16 595 41 q 437 -8 488 -3 q 422 -18 429 -13 q 400 -45 408 -30 q 392 -77 392 -60 q 408 -115 392 -102 q 448 -128 424 -128 q 462.5 -127 455 -128 q 478 -124 470 -126 q 506 -125.5 496 -119 q 518.5 -144.5 516 -132 q 515 -168.5 521 -157 q 494 -186 509 -180 q 461.5 -193.5 478 -192 q 431 -195 445 -195 m 393 100 q 503.5 130 458 100 q 573.5 217 549 160 q 598 353 598 274 q 544.5 539 598 473 q 393 605 491 605 q 283 575.5 329 605 q 212.5 489.5 237 546 q 188 353 188 433 q 242 167 188 234 q 393 100 296 100"},"Ø":{"ha":785,"x_min":54,"x_max":732,"o":"m 393 -10 q 253 16 316 -10 l 227 -29 q 202.5 -51 217 -46 q 173.5 -52 188 -56 q 148.5 -37 159 -48 q 135.5 -10.5 138 -26 q 144 23 133 5 l 170 67 q 96 162 125 105 q 54 353 54 243 q 78 502.5 54 436 q 146.5 616.5 102 569 q 253.5 689.5 191 664 q 393 715 316 715 q 533 690 471 715 l 559 734 q 583 756 569 751 q 612 757 597 761 q 637.5 742.5 627 753 q 650.5 716.5 648 732 q 642 683 653 701 l 616 639 q 690 545 661 601 q 732 354 732 464 q 708 204 732 271 q 639.5 89 684 137 q 532.5 15.5 595 41 q 393 -10 470 -10 m 393 100 q 503.5 130 458 100 q 573.5 217 549 160 q 598 353 598 274 q 551 530 598 465 l 309 116 q 393 100 346 100 m 235 176 l 477 590 q 393 605 440 605 q 283 575.5 329 605 q 212.5 489.5 237 546 q 188 353 188 433 q 235 176 188 242"},"Ǿ":{"ha":785,"x_min":54,"x_max":732,"o":"m 393 -10 q 253 16 316 -10 l 227 -29 q 202.5 -51 217 -46 q 173.5 -52 188 -56 q 148.5 -37 159 -48 q 135.5 -10.5 138 -26 q 144 23 133 5 l 170 67 q 96 162 125 105 q 54 353 54 243 q 78 502.5 54 436 q 146.5 616.5 102 569 q 253.5 689.5 191 664 q 393 715 316 715 q 533 690 471 715 l 559 734 q 583 756 569 751 q 612 757 597 761 q 637.5 742.5 627 753 q 650.5 716.5 648 732 q 642 683 653 701 l 616 639 q 690 545 661 601 q 732 354 732 464 q 708 204 732 271 q 639.5 89 684 137 q 532.5 15.5 595 41 q 393 -10 470 -10 m 393 100 q 503.5 130 458 100 q 573.5 217 549 160 q 598 353 598 274 q 551 530 598 465 l 309 116 q 393 100 346 100 m 235 176 l 477 590 q 393 605 440 605 q 283 575.5 329 605 q 212.5 489.5 237 546 q 188 353 188 433 q 235 176 188 242 m 539 876 l 443 771 q 416.5 757.5 431 758 q 390.5 765.5 402 757 q 375.5 787 379 774 q 381 814 372 800 l 459 929 q 485.5 949.5 470 946 q 516 947.5 501 953 q 540.5 930.5 531 942 q 551 904.5 550 919 q 539 876 552 890"},"Õ":{"ha":785,"x_min":54,"x_max":732,"o":"m 393 -10 q 214.5 35 291 -10 q 96 161.5 138 80 q 54 353 54 243 q 78 502.5 54 436 q 146.5 616.5 102 569 q 253.5 689.5 191 664 q 393 715 316 715 q 572 670.5 496 715 q 690 545 648 626 q 732 354 732 464 q 708 204 732 271 q 639.5 89 684 137 q 532.5 15.5 595 41 q 393 -10 470 -10 m 393 100 q 503.5 130 458 100 q 573.5 217 549 160 q 598 353 598 274 q 544.5 539 598 473 q 393 605 491 605 q 283 575.5 329 605 q 212.5 489.5 237 546 q 188 353 188 433 q 242 167 188 234 q 393 100 296 100 m 203 769 q 178 780 187 770 q 173 807 169 790 q 219.5 893.5 185 863 q 303 924 254 924 q 355 914 331 924 q 401 891 379 904 q 443.5 868 423 878 q 484 858 464 858 q 525.5 871.5 510 858 q 546 905 541 885 q 559 925.5 550 919 q 581 931 568 932 q 606 920 597 930 q 611 893 615 910 q 565.5 806.5 599 837 q 482 776 532 776 q 429.5 786 454 776 q 383 809 405 796 q 340.5 832 361 822 q 300 842 320 842 q 259 828.5 275 842 q 238 795 243 815 q 225.5 775 234 782 q 203 769 217 768"},"Ṍ":{"ha":785,"x_min":54,"x_max":732,"o":"m 393 -10 q 214.5 35 291 -10 q 96 161.5 138 80 q 54 353 54 243 q 78 502.5 54 436 q 146.5 616.5 102 569 q 253.5 689.5 191 664 q 393 715 316 715 q 572 670.5 496 715 q 690 545 648 626 q 732 354 732 464 q 708 204 732 271 q 639.5 89 684 137 q 532.5 15.5 595 41 q 393 -10 470 -10 m 393 100 q 503.5 130 458 100 q 573.5 217 549 160 q 598 353 598 274 q 544.5 539 598 473 q 393 605 491 605 q 283 575.5 329 605 q 212.5 489.5 237 546 q 188 353 188 433 q 242 167 188 234 q 393 100 296 100 m 499 972 l 431 894 q 407.5 880.5 421 882 q 383.5 885.5 394 879 q 369 904 373 892 q 373 930 365 916 l 422 1019 q 446.5 1041 432 1036 q 475.5 1042 461 1046 q 500 1027 490 1038 q 511 1001.5 510 1016 q 499 972 512 987 m 251 765 q 229.5 776 237 766 q 226 802 222 786 q 262.5 858 236 839 q 326 877 289 877 q 375 866 353 877 q 416.5 844 397 855 q 455 833 436 833 q 482 838.5 470 833 q 499 857 494 844 q 512.5 874 504 868 q 534 879 521 880 q 556 868.5 548 878 q 559 842 564 859 q 522.5 786 549 805 q 459 767 496 767 q 409.5 778 432 767 q 368 800 387 789 q 330 811 349 811 q 303 805.5 315 811 q 286 787 291 800 q 273.5 770 282 776 q 251 765 265 764"},"Ṏ":{"ha":785,"x_min":54,"x_max":732,"o":"m 393 -10 q 214.5 35 291 -10 q 96 161.5 138 80 q 54 353 54 243 q 78 502.5 54 436 q 146.5 616.5 102 569 q 253.5 689.5 191 664 q 393 715 316 715 q 572 670.5 496 715 q 690 545 648 626 q 732 354 732 464 q 708 204 732 271 q 639.5 89 684 137 q 532.5 15.5 595 41 q 393 -10 470 -10 m 393 100 q 503.5 130 458 100 q 573.5 217 549 160 q 598 353 598 274 q 544.5 539 598 473 q 393 605 491 605 q 283 575.5 329 605 q 212.5 489.5 237 546 q 188 353 188 433 q 242 167 188 234 q 393 100 296 100 m 251 765 q 229.5 776 237 766 q 226 802 222 786 q 262.5 858 236 839 q 326 877 289 877 q 375 866 353 877 q 416.5 844 397 855 q 455 833 436 833 q 482 838.5 470 833 q 499 857 494 844 q 512.5 874 504 868 q 534 879 521 880 q 556 868.5 548 878 q 559 842 564 859 q 522.5 786 549 805 q 459 767 496 767 q 409.5 778 432 767 q 368 800 387 789 q 330 811 349 811 q 303 805.5 315 811 q 286 787 291 800 q 274 770 283 776 q 251 765 265 764 m 298 909 q 252.5 921.5 269 909 q 236 957 236 934 q 252.5 992.5 236 980 q 298 1005 269 1005 q 344 992.5 328 1005 q 360 957 360 980 q 344 921.5 360 934 q 298 909 328 909 m 487 909 q 441 921.5 457 909 q 425 957 425 934 q 441 992.5 425 980 q 487 1005 457 1005 q 532.5 992.5 517 1005 q 548 957 548 980 q 532 921.5 548 934 q 487 909 516 909"},"Ȭ":{"ha":785,"x_min":54,"x_max":732,"o":"m 393 -10 q 214.5 35 291 -10 q 96 161.5 138 80 q 54 353 54 243 q 78 502.5 54 436 q 146.5 616.5 102 569 q 253.5 689.5 191 664 q 393 715 316 715 q 572 670.5 496 715 q 690 545 648 626 q 732 354 732 464 q 708 204 732 271 q 639.5 89 684 137 q 532.5 15.5 595 41 q 393 -10 470 -10 m 393 100 q 503.5 130 458 100 q 573.5 217 549 160 q 598 353 598 274 q 544.5 539 598 473 q 393 605 491 605 q 283 575.5 329 605 q 212.5 489.5 237 546 q 188 353 188 433 q 242 167 188 234 q 393 100 296 100 m 512 924 l 272 924 q 241 934 252 924 q 230 961 230 944 q 241 988.5 230 979 q 272 998 252 998 l 512 998 q 543 988.5 532 998 q 554 961 554 979 q 543 934 554 944 q 512 924 532 924 m 251 765 q 229.5 776 237 766 q 226 802 222 786 q 262.5 858 236 839 q 326 877 289 877 q 375 866 353 877 q 416.5 844 397 855 q 455 833 436 833 q 482 838.5 470 833 q 499 857 494 844 q 512.5 874 504 868 q 534 879 521 880 q 556 868.5 548 878 q 559 842 564 859 q 522.5 786 549 805 q 459 767 496 767 q 409.5 778 432 767 q 368 800 387 789 q 330 811 349 811 q 303 805.5 315 811 q 286 787 291 800 q 273.5 770 282 776 q 251 765 265 764"},"Œ":{"ha":1056,"x_min":54,"x_max":1013,"o":"m 961 0 l 424 0 q 150.5 92 247 0 q 54 353 54 184 q 78.5 503.5 54 438 q 150.5 614 103 569 q 267 682 198 659 q 424 705 336 705 l 961 705 q 999.5 692 986 705 q 1013 655 1013 679 q 999.5 616.5 1013 630 q 961 603 986 603 l 659 603 l 659 409 l 939 409 q 978 396 965 409 q 991 358 991 383 q 978 320 991 333 q 939 307 965 307 l 659 307 l 659 102 l 961 102 q 999.5 89 986 102 q 1013 51 1013 76 q 999.5 13 1013 26 q 961 0 986 0 m 432 106 l 536 106 l 536 599 l 432 599 q 325 584 371 599 q 248.5 538 279 569 q 203 461 218 507 q 188 353 188 415 q 248.5 167.5 188 229 q 432 106 309 106"},"P":{"ha":652,"x_min":77,"x_max":625,"o":"m 141 -8 q 93.5 9.5 110 -8 q 77 58 77 27 l 77 640 q 94 688.5 77 672 q 142 705 111 705 l 383 705 q 562 647 499 705 q 625 485 625 589 q 562 322.5 625 381 q 383 264 499 264 l 205 264 l 205 58 q 189 9.5 205 27 q 141 -8 173 -8 m 205 604 l 205 365 l 363 365 q 466 395.5 431 365 q 501 485 501 426 q 466 574 501 544 q 363 604 431 604 l 205 604"},"Þ":{"ha":655,"x_min":77,"x_max":627,"o":"m 141 -3 q 93.5 14.5 110 -3 q 77 63 77 32 l 77 643 q 94.5 691.5 77 675 q 143 708 112 708 q 189 692 173 708 q 205 650 205 676 l 205 587 l 385 587 q 564 529 501 587 q 627 367 627 471 q 564 204.5 627 263 q 385 146 501 146 l 205 146 l 205 63 q 189 14.5 205 32 q 141 -3 173 -3 m 205 486 l 205 247 l 365 247 q 468 277.5 433 247 q 503 367 503 308 q 468 456 503 426 q 365 486 433 486 l 205 486"},"Q":{"ha":785,"x_min":54,"x_max":732,"o":"m 620 -45 l 663 -113 q 674 -153 677 -135 q 658 -183.5 671 -171 q 626 -199.5 645 -196 q 588 -195.5 607 -203 q 556 -167 569 -188 l 487 -56 q 449.5 -21.5 473 -33 q 392 -10 426 -10 q 215 35 291 -10 q 96 161.5 138 80 q 54 353 54 243 q 78 502.5 54 436 q 146.5 616.5 102 569 q 253.5 689.5 191 664 q 393 715 316 715 q 572 670.5 496 715 q 690 545 648 626 q 732 354 732 464 q 708 204 732 271 q 640 89 684 137 q 546 21 600 46 q 566 13 557 18 q 620 -45 594 -4 m 393 100 q 503.5 130 458 100 q 573.5 217 549 160 q 598 353 598 274 q 544.5 539 598 473 q 393 605 491 605 q 283 575.5 329 605 q 212.5 489.5 237 546 q 188 353 188 433 q 242 167 188 234 q 393 100 296 100"},"R":{"ha":686,"x_min":77,"x_max":636.08,"o":"m 141 -8 q 93.5 9.5 110 -8 q 77 58 77 27 l 77 640 q 94 688.5 77 672 q 142 705 111 705 l 383 705 q 562 649.5 499 705 q 625 494 625 594 q 596.5 382 625 429 q 514 310 568 335 q 467 294 492 300 q 497 280 483 289 q 550 217 527 260 l 625 78 q 636 37 637 57 q 621 4.5 635 17 q 580 -8 607 -8 q 536 3.5 553 -8 q 506 39 519 15 l 405 225 q 362.5 270.5 387 259 q 300 282 338 282 l 205 282 l 205 58 q 189 9.5 205 27 q 141 -8 173 -8 m 205 604 l 205 377 l 361 377 q 465.5 405.5 430 377 q 501 491 501 434 q 465.5 575.5 501 547 q 361 604 430 604 l 205 604"},"Ŕ":{"ha":686,"x_min":77,"x_max":636.08,"o":"m 141 -8 q 93.5 9.5 110 -8 q 77 58 77 27 l 77 640 q 94 688.5 77 672 q 142 705 111 705 l 383 705 q 562 649.5 499 705 q 625 494 625 594 q 596.5 382 625 429 q 514 310 568 335 q 467 294 492 300 q 497 280 483 289 q 550 217 527 260 l 625 78 q 636 37 637 57 q 621 4.5 635 17 q 580 -8 607 -8 q 536 3.5 553 -8 q 506 39 519 15 l 405 225 q 362.5 270.5 387 259 q 300 282 338 282 l 205 282 l 205 58 q 189 9.5 205 27 q 141 -8 173 -8 m 205 604 l 205 377 l 361 377 q 465.5 405.5 430 377 q 501 491 501 434 q 465.5 575.5 501 547 q 361 604 430 604 l 205 604 m 495 876 l 399 771 q 372.5 757.5 387 758 q 346.5 765.5 358 757 q 331.5 787 335 774 q 337 814 328 800 l 415 929 q 441.5 949.5 426 946 q 472 947.5 457 953 q 496.5 930.5 487 942 q 507 904.5 506 919 q 495 876 508 890"},"Ř":{"ha":686,"x_min":77,"x_max":636.08,"o":"m 141 -8 q 93.5 9.5 110 -8 q 77 58 77 27 l 77 640 q 94 688.5 77 672 q 142 705 111 705 l 383 705 q 562 649.5 499 705 q 625 494 625 594 q 596.5 382 625 429 q 514 310 568 335 q 467 294 492 300 q 497 280 483 289 q 550 217 527 260 l 625 78 q 636 37 637 57 q 621 4.5 635 17 q 580 -8 607 -8 q 536 3.5 553 -8 q 506 39 519 15 l 405 225 q 362.5 270.5 387 259 q 300 282 338 282 l 205 282 l 205 58 q 189 9.5 205 27 q 141 -8 173 -8 m 205 604 l 205 377 l 361 377 q 465.5 405.5 430 377 q 501 491 501 434 q 465.5 575.5 501 547 q 361 604 430 604 l 205 604 m 348 754 q 307.5 763.5 326 754 q 275 793 289 773 l 202 895 q 195.5 922 192 909 q 211 942.5 199 935 q 237.5 948.5 223 950 q 264 933 252 947 l 348 835 l 433 933 q 459.5 948.5 445 947 q 485.5 942.5 474 950 q 500.5 922.5 497 935 q 494 895 504 910 l 422 793 q 389.5 763.5 408 773 q 348 754 371 754"},"Ŗ":{"ha":686,"x_min":77,"x_max":636.08,"o":"m 141 -8 q 93.5 9.5 110 -8 q 77 58 77 27 l 77 640 q 94 688.5 77 672 q 142 705 111 705 l 383 705 q 562 649.5 499 705 q 625 494 625 594 q 596.5 382 625 429 q 514 310 568 335 q 467 294 492 300 q 497 280 483 289 q 550 217 527 260 l 625 78 q 636 37 637 57 q 621 4.5 635 17 q 580 -8 607 -8 q 536 3.5 553 -8 q 506 39 519 15 l 405 225 q 362.5 270.5 387 259 q 300 282 338 282 l 205 282 l 205 58 q 189 9.5 205 27 q 141 -8 173 -8 m 205 604 l 205 377 l 361 377 q 465.5 405.5 430 377 q 501 491 501 434 q 465.5 575.5 501 547 q 361 604 430 604 l 205 604 m 375 -260 q 352.5 -274 365 -272 q 330.5 -269.5 340 -276 q 319.5 -251.5 321 -263 q 328 -225 318 -240 q 343 -193 338 -211 q 345 -184 344 -189 q 299 -168 315 -183 q 281 -125 281 -153 q 298.5 -82 281 -97 q 348 -67 316 -67 q 398.5 -84 381 -67 q 416 -136 416 -101 q 411.5 -179 416 -157 q 398 -222 407 -201 q 375 -260 389 -243"},"Ȑ":{"ha":686,"x_min":77,"x_max":636.08,"o":"m 141 -8 q 93.5 9.5 110 -8 q 77 58 77 27 l 77 640 q 94 688.5 77 672 q 142 705 111 705 l 383 705 q 562 649.5 499 705 q 625 494 625 594 q 596.5 382 625 429 q 514 310 568 335 q 467 294 492 300 q 497 280 483 289 q 550 217 527 260 l 625 78 q 636 37 637 57 q 621 4.5 635 17 q 580 -8 607 -8 q 536 3.5 553 -8 q 506 39 519 15 l 405 225 q 362.5 270.5 387 259 q 300 282 338 282 l 205 282 l 205 58 q 189 9.5 205 27 q 141 -8 173 -8 m 205 604 l 205 377 l 361 377 q 465.5 405.5 430 377 q 501 491 501 434 q 465.5 575.5 501 547 q 361 604 430 604 l 205 604 m 380 773 l 301 882 q 291 912 289 898 q 303 936 293 926 q 327.5 949.5 313 946 q 356 947.5 342 953 q 378 925 370 942 l 439 803 q 441.5 777.5 446 789 q 426 760.5 437 766 q 402.5 757.5 415 755 q 380 773 390 760 m 236 770 l 149 882 q 138 912 137 898 q 148.5 936 139 926 q 172 949.5 158 946 q 200 948 186 953 q 223 926 214 943 l 288 805 q 291.5 780 295 792 q 278.5 761.5 288 768 q 257 756.5 269 755 q 236 770 245 758"},"Ṛ":{"ha":686,"x_min":77,"x_max":636.08,"o":"m 141 -8 q 93.5 9.5 110 -8 q 77 58 77 27 l 77 640 q 94 688.5 77 672 q 142 705 111 705 l 383 705 q 562 649.5 499 705 q 625 494 625 594 q 596.5 382 625 429 q 514 310 568 335 q 467 294 492 300 q 497 280 483 289 q 550 217 527 260 l 625 78 q 636 37 637 57 q 621 4.5 635 17 q 580 -8 607 -8 q 536 3.5 553 -8 q 506 39 519 15 l 405 225 q 362.5 270.5 387 259 q 300 282 338 282 l 205 282 l 205 58 q 189 9.5 205 27 q 141 -8 173 -8 m 205 604 l 205 377 l 361 377 q 465.5 405.5 430 377 q 501 491 501 434 q 465.5 575.5 501 547 q 361 604 430 604 l 205 604 m 349 -209 q 301 -192.5 318 -209 q 284 -146 284 -176 q 301 -100 284 -116 q 349 -84 318 -84 q 398 -100 381 -84 q 415 -146 415 -116 q 398 -192.5 415 -176 q 349 -209 381 -209"},"Ȓ":{"ha":686,"x_min":77,"x_max":636.08,"o":"m 141 -8 q 93.5 9.5 110 -8 q 77 58 77 27 l 77 640 q 94 688.5 77 672 q 142 705 111 705 l 383 705 q 562 649.5 499 705 q 625 494 625 594 q 596.5 382 625 429 q 514 310 568 335 q 467 294 492 300 q 497 280 483 289 q 550 217 527 260 l 625 78 q 636 37 637 57 q 621 4.5 635 17 q 580 -8 607 -8 q 536 3.5 553 -8 q 506 39 519 15 l 405 225 q 362.5 270.5 387 259 q 300 282 338 282 l 205 282 l 205 58 q 189 9.5 205 27 q 141 -8 173 -8 m 205 604 l 205 377 l 361 377 q 465.5 405.5 430 377 q 501 491 501 434 q 465.5 575.5 501 547 q 361 604 430 604 l 205 604 m 199 760 q 175.5 774.5 185 762 q 171 807 166 787 q 235.5 905.5 188 872 q 348 939 283 939 q 461 905.5 413 939 q 525 807 509 872 q 520.5 774.5 530 787 q 497 760 511 762 q 474 763 483 759 q 460 774 465 767 q 453 789 455 781 q 413 847.5 443 830 q 348 865 383 865 q 284 847.5 314 865 q 243 789 254 830 q 236 774 241 781 q 222 763 231 767 q 199 760 213 759"},"Ṟ":{"ha":686,"x_min":77,"x_max":636.08,"o":"m 141 -8 q 93.5 9.5 110 -8 q 77 58 77 27 l 77 640 q 94 688.5 77 672 q 142 705 111 705 l 383 705 q 562 649.5 499 705 q 625 494 625 594 q 596.5 382 625 429 q 514 310 568 335 q 467 294 492 300 q 497 280 483 289 q 550 217 527 260 l 625 78 q 636 37 637 57 q 621 4.5 635 17 q 580 -8 607 -8 q 536 3.5 553 -8 q 506 39 519 15 l 405 225 q 362.5 270.5 387 259 q 300 282 338 282 l 205 282 l 205 58 q 189 9.5 205 27 q 141 -8 173 -8 m 205 604 l 205 377 l 361 377 q 465.5 405.5 430 377 q 501 491 501 434 q 465.5 575.5 501 547 q 361 604 430 604 l 205 604 m 473 -165 l 226 -165 q 187 -128 187 -165 q 197 -100.5 187 -110 q 226 -91 207 -91 l 473 -91 q 512 -128 512 -91 q 502 -155 512 -145 q 473 -165 492 -165"},"S":{"ha":631,"x_min":48.84,"x_max":598,"o":"m 320 -10 q 232 -3.5 276 -10 q 149 16.5 188 3 q 79 50 110 30 q 54 79 61 62 q 49.5 112.5 47 96 q 62.5 141.5 52 129 q 89 157 73 154 q 124 148 105 160 q 217 110 168 122 q 320 98 266 98 q 435 124.5 399 98 q 471 193 471 151 q 445.5 248 471 228 q 358 281 420 268 l 248 304 q 106.5 371.5 153 324 q 60 497 60 419 q 80 586 60 546 q 136.5 655 100 626 q 223.5 699.5 173 684 q 335 715 274 715 q 449 700 395 715 q 546 656 503 685 q 567.5 629 562 645 q 570 597.5 573 613 q 556 571 567 582 q 528.5 558 545 560 q 491 568 512 556 q 416 598 454 589 q 334 607 378 607 q 255 594 288 607 q 204.5 557.5 222 581 q 187 502 187 534 q 211 444.5 187 466 q 293 411 235 423 l 402 388 q 549.5 322 501 367 q 598 202 598 277 q 578.5 115 598 154 q 522.5 48 559 76 q 435 5 486 20 q 320 -10 384 -10"},"Ś":{"ha":631,"x_min":48.84,"x_max":598,"o":"m 320 -10 q 232 -3.5 276 -10 q 149 16.5 188 3 q 79 50 110 30 q 54 79 61 62 q 49.5 112.5 47 96 q 62.5 141.5 52 129 q 89 157 73 154 q 124 148 105 160 q 217 110 168 122 q 320 98 266 98 q 435 124.5 399 98 q 471 193 471 151 q 445.5 248 471 228 q 358 281 420 268 l 248 304 q 106.5 371.5 153 324 q 60 497 60 419 q 80 586 60 546 q 136.5 655 100 626 q 223.5 699.5 173 684 q 335 715 274 715 q 449 700 395 715 q 546 656 503 685 q 567.5 629 562 645 q 570 597.5 573 613 q 556 571 567 582 q 528.5 558 545 560 q 491 568 512 556 q 416 598 454 589 q 334 607 378 607 q 255 594 288 607 q 204.5 557.5 222 581 q 187 502 187 534 q 211 444.5 187 466 q 293 411 235 423 l 402 388 q 549.5 322 501 367 q 598 202 598 277 q 578.5 115 598 154 q 522.5 48 559 76 q 435 5 486 20 q 320 -10 384 -10 m 472 876 l 376 771 q 349.5 757.5 364 758 q 323.5 765.5 335 757 q 308.5 787 312 774 q 314 814 305 800 l 392 929 q 418.5 949.5 403 946 q 449 947.5 434 953 q 473.5 930.5 464 942 q 484 904.5 483 919 q 472 876 485 890"},"Ṥ":{"ha":631,"x_min":48.84,"x_max":598,"o":"m 320 -10 q 232 -3.5 276 -10 q 149 16.5 188 3 q 79 50 110 30 q 54 79 61 62 q 49.5 112.5 47 96 q 62.5 141.5 52 129 q 89 157 73 154 q 124 148 105 160 q 217 110 168 122 q 320 98 266 98 q 435 124.5 399 98 q 471 193 471 151 q 445.5 248 471 228 q 358 281 420 268 l 248 304 q 106.5 371.5 153 324 q 60 497 60 419 q 80 586 60 546 q 136.5 655 100 626 q 223.5 699.5 173 684 q 335 715 274 715 q 449 700 395 715 q 546 656 503 685 q 567.5 629 562 645 q 570 597.5 573 613 q 556 571 567 582 q 528.5 558 545 560 q 491 568 512 556 q 416 598 454 589 q 334 607 378 607 q 255 594 288 607 q 204.5 557.5 222 581 q 187 502 187 534 q 211 444.5 187 466 q 293 411 235 423 l 402 388 q 549.5 322 501 367 q 598 202 598 277 q 578.5 115 598 154 q 522.5 48 559 76 q 435 5 486 20 q 320 -10 384 -10 m 269 929 q 222.5 942 239 929 q 206 978 206 955 q 222.5 1013.5 206 1001 q 269 1026 239 1026 q 314 1013.5 298 1026 q 330 978 330 1001 q 314.5 942 330 955 q 269 929 299 929 m 474 879 l 376 772 q 349.5 758 364 759 q 323.5 765.5 335 757 q 308.5 787 312 774 q 315 815 305 800 l 393 931 q 421.5 954.5 406 950 q 452 953.5 437 959 q 476.5 936 467 948 q 486.5 909 486 924 q 474 879 487 894"},"Š":{"ha":631,"x_min":48.84,"x_max":598,"o":"m 320 -10 q 232 -3.5 276 -10 q 149 16.5 188 3 q 79 50 110 30 q 54 79 61 62 q 49.5 112.5 47 96 q 62.5 141.5 52 129 q 89 157 73 154 q 124 148 105 160 q 217 110 168 122 q 320 98 266 98 q 435 124.5 399 98 q 471 193 471 151 q 445.5 248 471 228 q 358 281 420 268 l 248 304 q 106.5 371.5 153 324 q 60 497 60 419 q 80 586 60 546 q 136.5 655 100 626 q 223.5 699.5 173 684 q 335 715 274 715 q 449 700 395 715 q 546 656 503 685 q 567.5 629 562 645 q 570 597.5 573 613 q 556 571 567 582 q 528.5 558 545 560 q 491 568 512 556 q 416 598 454 589 q 334 607 378 607 q 255 594 288 607 q 204.5 557.5 222 581 q 187 502 187 534 q 211 444.5 187 466 q 293 411 235 423 l 402 388 q 549.5 322 501 367 q 598 202 598 277 q 578.5 115 598 154 q 522.5 48 559 76 q 435 5 486 20 q 320 -10 384 -10 m 325 754 q 284.5 763.5 303 754 q 252 793 266 773 l 179 895 q 172.5 922 169 909 q 188 942.5 176 935 q 214.5 948.5 200 950 q 241 933 229 947 l 325 835 l 410 933 q 436.5 948.5 422 947 q 462.5 942.5 451 950 q 477.5 922.5 474 935 q 471 895 481 910 l 399 793 q 366.5 763.5 385 773 q 325 754 348 754"},"Ṧ":{"ha":631,"x_min":48.84,"x_max":598,"o":"m 320 -10 q 232 -3.5 276 -10 q 149 16.5 188 3 q 79 50 110 30 q 54 79 61 62 q 49.5 112.5 47 96 q 62.5 141.5 52 129 q 89 157 73 154 q 124 148 105 160 q 217 110 168 122 q 320 98 266 98 q 435 124.5 399 98 q 471 193 471 151 q 445.5 248 471 228 q 358 281 420 268 l 248 304 q 106.5 371.5 153 324 q 60 497 60 419 q 80 586 60 546 q 136.5 655 100 626 q 223.5 699.5 173 684 q 335 715 274 715 q 449 700 395 715 q 546 656 503 685 q 567.5 629 562 645 q 570 597.5 573 613 q 556 571 567 582 q 528.5 558 545 560 q 491 568 512 556 q 416 598 454 589 q 334 607 378 607 q 255 594 288 607 q 204.5 557.5 222 581 q 187 502 187 534 q 211 444.5 187 466 q 293 411 235 423 l 402 388 q 549.5 322 501 367 q 598 202 598 277 q 578.5 115 598 154 q 522.5 48 559 76 q 435 5 486 20 q 320 -10 384 -10 m 325 755 q 284.5 763 302 755 q 252 792 267 771 l 181 894 q 175.5 916.5 173 905 q 187 935.5 178 928 q 208 943 196 943 q 231 932 220 943 l 325 834 l 420 932 q 442.5 943 431 943 q 463 935.5 454 943 q 474.5 916.5 472 928 q 469 894 477 905 l 399 792 q 366.5 763 385 771 q 325 755 348 755 m 326 958 q 280.5 971 297 958 q 264 1007 264 984 q 280.5 1042.5 264 1030 q 326 1055 297 1055 q 372 1042.5 356 1055 q 388 1007 388 1030 q 372 971 388 984 q 326 958 356 958"},"Ş":{"ha":631,"x_min":48.84,"x_max":598,"o":"m 324 -195 q 284 -192.5 305 -195 q 246 -184 263 -190 q 225.5 -167.5 231 -179 q 223.5 -144.5 220 -156 q 237.5 -127 227 -133 q 263 -127 248 -121 q 288 -133 276 -131 q 314 -135 300 -135 q 354 -127.5 340 -135 q 368 -105 368 -120 q 359.5 -88 368 -94 q 331 -82 351 -82 q 316.5 -82.5 324 -82 q 301 -85 309 -83 q 288.5 -86.5 294 -87 q 278 -82 283 -86 q 273 -72 274 -78 q 273 -56 272 -66 l 280 -9 q 232 -3 256 -7 q 149 16.5 188 3 q 79 50 110 30 q 54 79 61 62 q 49.5 112.5 47 96 q 62.5 141.5 52 129 q 89 157 73 154 q 124 148 105 160 q 217 110 168 122 q 320 98 266 98 q 435 124.5 399 98 q 471 193 471 151 q 445.5 248 471 228 q 358 281 420 268 l 248 304 q 106.5 371.5 153 324 q 60 497 60 419 q 80 586 60 546 q 136.5 655 100 626 q 223.5 699.5 173 684 q 335 715 274 715 q 449 700 395 715 q 546 656 503 685 q 567.5 629 562 645 q 570 597.5 573 613 q 556 571 567 582 q 528.5 558 545 560 q 491 568 512 556 q 416 598 454 589 q 334 607 378 607 q 255 594 288 607 q 204.5 557.5 222 581 q 187 502 187 534 q 211 444.5 187 466 q 293 411 235 423 l 402 388 q 549.5 322 501 367 q 598 202 598 277 q 578.5 115 598 154 q 522.5 48 559 76 q 435 5 486 20 q 346 -9 395 -7 l 341 -38 q 352 -37 347 -37 q 418 -56 393 -37 q 443 -109 443 -75 q 410 -171.5 443 -148 q 324 -195 377 -195"},"Ŝ":{"ha":631,"x_min":48.84,"x_max":598,"o":"m 320 -10 q 232 -3.5 276 -10 q 149 16.5 188 3 q 79 50 110 30 q 54 79 61 62 q 49.5 112.5 47 96 q 62.5 141.5 52 129 q 89 157 73 154 q 124 148 105 160 q 217 110 168 122 q 320 98 266 98 q 435 124.5 399 98 q 471 193 471 151 q 445.5 248 471 228 q 358 281 420 268 l 248 304 q 106.5 371.5 153 324 q 60 497 60 419 q 80 586 60 546 q 136.5 655 100 626 q 223.5 699.5 173 684 q 335 715 274 715 q 449 700 395 715 q 546 656 503 685 q 567.5 629 562 645 q 570 597.5 573 613 q 556 571 567 582 q 528.5 558 545 560 q 491 568 512 556 q 416 598 454 589 q 334 607 378 607 q 255 594 288 607 q 204.5 557.5 222 581 q 187 502 187 534 q 211 444.5 187 466 q 293 411 235 423 l 402 388 q 549.5 322 501 367 q 598 202 598 277 q 578.5 115 598 154 q 522.5 48 559 76 q 435 5 486 20 q 320 -10 384 -10 m 325 869 l 241 771 q 214 757 229 758 q 187.5 763.5 199 756 q 172.5 783.5 176 771 q 179 810 169 796 l 252 911 q 284.5 941.5 266 932 q 325 951 303 951 q 366 941.5 348 951 q 399 911 384 932 l 471 810 q 478.5 783.5 482 796 q 463.5 763.5 475 771 q 437 757 452 756 q 410 771 422 758 l 325 869"},"Ș":{"ha":631,"x_min":48.84,"x_max":598,"o":"m 320 -10 q 232 -3.5 276 -10 q 149 16.5 188 3 q 79 50 110 30 q 54 79 61 62 q 49.5 112.5 47 96 q 62.5 141.5 52 129 q 89 157 73 154 q 124 148 105 160 q 217 110 168 122 q 320 98 266 98 q 435 124.5 399 98 q 471 193 471 151 q 445.5 248 471 228 q 358 281 420 268 l 248 304 q 106.5 371.5 153 324 q 60 497 60 419 q 80 586 60 546 q 136.5 655 100 626 q 223.5 699.5 173 684 q 335 715 274 715 q 449 700 395 715 q 546 656 503 685 q 567.5 629 562 645 q 570 597.5 573 613 q 556 571 567 582 q 528.5 558 545 560 q 491 568 512 556 q 416 598 454 589 q 334 607 378 607 q 255 594 288 607 q 204.5 557.5 222 581 q 187 502 187 534 q 211 444.5 187 466 q 293 411 235 423 l 402 388 q 549.5 322 501 367 q 598 202 598 277 q 578.5 115 598 154 q 522.5 48 559 76 q 435 5 486 20 q 320 -10 384 -10 m 349 -260 q 326.5 -274 339 -272 q 304.5 -269.5 314 -276 q 293.5 -251.5 295 -263 q 302 -225 292 -240 q 317 -193 312 -211 q 319 -184 318 -189 q 273 -168 289 -183 q 255 -125 255 -153 q 272.5 -82 255 -97 q 322 -67 290 -67 q 372.5 -84 355 -67 q 390 -136 390 -101 q 385.5 -179 390 -157 q 372 -222 381 -201 q 349 -260 363 -243"},"Ṡ":{"ha":631,"x_min":48.84,"x_max":598,"o":"m 320 -10 q 232 -3.5 276 -10 q 149 16.5 188 3 q 79 50 110 30 q 54 79 61 62 q 49.5 112.5 47 96 q 62.5 141.5 52 129 q 89 157 73 154 q 124 148 105 160 q 217 110 168 122 q 320 98 266 98 q 435 124.5 399 98 q 471 193 471 151 q 445.5 248 471 228 q 358 281 420 268 l 248 304 q 106.5 371.5 153 324 q 60 497 60 419 q 80 586 60 546 q 136.5 655 100 626 q 223.5 699.5 173 684 q 335 715 274 715 q 449 700 395 715 q 546 656 503 685 q 567.5 629 562 645 q 570 597.5 573 613 q 556 571 567 582 q 528.5 558 545 560 q 491 568 512 556 q 416 598 454 589 q 334 607 378 607 q 255 594 288 607 q 204.5 557.5 222 581 q 187 502 187 534 q 211 444.5 187 466 q 293 411 235 423 l 402 388 q 549.5 322 501 367 q 598 202 598 277 q 578.5 115 598 154 q 522.5 48 559 76 q 435 5 486 20 q 320 -10 384 -10 m 325 789 q 277 805.5 294 789 q 260 852 260 822 q 277 898 260 882 q 325 914 294 914 q 373.5 898 357 914 q 390 852 390 882 q 373.5 805.5 390 822 q 325 789 357 789"},"Ṣ":{"ha":631,"x_min":48.84,"x_max":598,"o":"m 320 -10 q 232 -3.5 276 -10 q 149 16.5 188 3 q 79 50 110 30 q 54 79 61 62 q 49.5 112.5 47 96 q 62.5 141.5 52 129 q 89 157 73 154 q 124 148 105 160 q 217 110 168 122 q 320 98 266 98 q 435 124.5 399 98 q 471 193 471 151 q 445.5 248 471 228 q 358 281 420 268 l 248 304 q 106.5 371.5 153 324 q 60 497 60 419 q 80 586 60 546 q 136.5 655 100 626 q 223.5 699.5 173 684 q 335 715 274 715 q 449 700 395 715 q 546 656 503 685 q 567.5 629 562 645 q 570 597.5 573 613 q 556 571 567 582 q 528.5 558 545 560 q 491 568 512 556 q 416 598 454 589 q 334 607 378 607 q 255 594 288 607 q 204.5 557.5 222 581 q 187 502 187 534 q 211 444.5 187 466 q 293 411 235 423 l 402 388 q 549.5 322 501 367 q 598 202 598 277 q 578.5 115 598 154 q 522.5 48 559 76 q 435 5 486 20 q 320 -10 384 -10 m 323 -209 q 275 -192.5 292 -209 q 258 -146 258 -176 q 275 -100 258 -116 q 323 -84 292 -84 q 372 -100 355 -84 q 389 -146 389 -116 q 372 -192.5 389 -176 q 323 -209 355 -209"},"Ṩ":{"ha":631,"x_min":48.84,"x_max":598,"o":"m 320 -10 q 232 -3.5 276 -10 q 149 16.5 188 3 q 79 50 110 30 q 54 79 61 62 q 49.5 112.5 47 96 q 62.5 141.5 52 129 q 89 157 73 154 q 124 148 105 160 q 217 110 168 122 q 320 98 266 98 q 435 124.5 399 98 q 471 193 471 151 q 445.5 248 471 228 q 358 281 420 268 l 248 304 q 106.5 371.5 153 324 q 60 497 60 419 q 80 586 60 546 q 136.5 655 100 626 q 223.5 699.5 173 684 q 335 715 274 715 q 449 700 395 715 q 546 656 503 685 q 567.5 629 562 645 q 570 597.5 573 613 q 556 571 567 582 q 528.5 558 545 560 q 491 568 512 556 q 416 598 454 589 q 334 607 378 607 q 255 594 288 607 q 204.5 557.5 222 581 q 187 502 187 534 q 211 444.5 187 466 q 293 411 235 423 l 402 388 q 549.5 322 501 367 q 598 202 598 277 q 578.5 115 598 154 q 522.5 48 559 76 q 435 5 486 20 q 320 -10 384 -10 m 323 -209 q 275 -192.5 292 -209 q 258 -146 258 -176 q 275 -100 258 -116 q 323 -84 292 -84 q 372 -100 355 -84 q 389 -146 389 -116 q 372 -192.5 389 -176 q 323 -209 355 -209 m 325 789 q 277 805.5 294 789 q 260 852 260 822 q 277 898 260 882 q 325 914 294 914 q 373.5 898 357 914 q 390 852 390 882 q 373.5 805.5 390 822 q 325 789 357 789"},"ẞ":{"ha":730,"x_min":77,"x_max":678,"o":"m 452 -10 q 360.5 0.5 403 -10 q 286 30 318 11 q 263.5 56 269 41 q 261 86 258 71 q 273.5 112.5 264 101 q 296.5 127.5 283 124 q 326 122 310 131 q 382 99.5 355 106 q 439 93 409 93 q 524.5 121.5 495 93 q 554 199 554 150 q 520.5 276.5 554 250 q 417 303 487 303 l 345 303 q 308.5 316 323 303 q 294 354 294 329 q 307 391 294 379 q 340 403 320 403 l 398 403 q 485 430 453 403 q 517 507 517 457 q 481.5 584.5 517 558 q 378 611 446 611 q 248.5 571 292 611 q 205 449 205 531 l 205 58 q 188.5 9.5 205 27 q 141 -8 172 -8 q 93.5 9.5 110 -8 q 77 58 77 27 l 77 450 q 113 596 77 537 q 217.5 685 149 655 q 384 715 286 715 q 520.5 692 463 715 q 609.5 626.5 578 669 q 641 525 641 584 q 608 417 641 463 q 546 366 583 384 q 602 343 577 358 q 658 280.5 638 319 q 678 191 678 242 q 651 82.5 678 127 q 573.5 14 624 38 q 452 -10 523 -10"},"T":{"ha":621,"x_min":-3,"x_max":625,"o":"m 311 -8 q 263.5 9.5 280 -8 q 247 58 247 27 l 247 598 l 52 598 q 11.5 612.5 26 598 q -3 652 -3 627 q 11.5 691.5 -3 678 q 52 705 26 705 l 570 705 q 610.5 691.5 596 705 q 625 652 625 678 q 610.5 612.5 625 627 q 570 598 596 598 l 375 598 l 375 58 q 359 9.5 375 27 q 311 -8 343 -8"},"Ŧ":{"ha":621,"x_min":-3,"x_max":625,"o":"m 311 -8 q 263.5 9.5 280 -8 q 247 58 247 27 l 247 310 l 149 310 q 112.5 322.5 125 310 q 100 357 100 335 q 112.5 392 100 380 q 149 404 125 404 l 247 404 l 247 598 l 52 598 q 11.5 612.5 26 598 q -3 652 -3 627 q 11.5 691.5 -3 678 q 52 705 26 705 l 570 705 q 610.5 691.5 596 705 q 625 652 625 678 q 610.5 612.5 625 627 q 570 598 596 598 l 375 598 l 375 404 l 472 404 q 508 392.5 495 404 q 521 357 521 381 q 508 322.5 521 335 q 472 310 495 310 l 375 310 l 375 58 q 359 9.5 375 27 q 311 -8 343 -8"},"Ť":{"ha":621,"x_min":-3,"x_max":625,"o":"m 311 -8 q 263.5 9.5 280 -8 q 247 58 247 27 l 247 598 l 52 598 q 11.5 612.5 26 598 q -3 652 -3 627 q 11.5 691.5 -3 678 q 52 705 26 705 l 570 705 q 610.5 691.5 596 705 q 625 652 625 678 q 610.5 612.5 625 627 q 570 598 596 598 l 375 598 l 375 58 q 359 9.5 375 27 q 311 -8 343 -8 m 311 754 q 270.5 763.5 289 754 q 238 793 252 773 l 165 895 q 158.5 922 155 909 q 174 942.5 162 935 q 200.5 948.5 186 950 q 227 933 215 947 l 311 835 l 396 933 q 422.5 948.5 408 947 q 448.5 942.5 437 950 q 463.5 922.5 460 935 q 457 895 467 910 l 385 793 q 352.5 763.5 371 773 q 311 754 334 754"},"Ţ":{"ha":621,"x_min":-3,"x_max":625,"o":"m 312 -195 q 272 -192.5 293 -195 q 234 -184 251 -190 q 213.5 -167.5 219 -179 q 211.5 -144.5 208 -156 q 225.5 -127 215 -133 q 251 -127 236 -121 q 276 -133 264 -131 q 302 -135 288 -135 q 342 -127.5 328 -135 q 356 -105 356 -120 q 347.5 -88 356 -94 q 319 -82 339 -82 q 304.5 -82.5 312 -82 q 289 -85 297 -83 q 276.5 -86.5 282 -87 q 266 -82 271 -86 q 261 -72 262 -78 q 261 -56 260 -66 l 270 4 q 264 10 266 6 q 247 58 247 27 l 247 598 l 52 598 q 11.5 612.5 26 598 q -3 652 -3 627 q 11.5 691.5 -3 678 q 52 705 26 705 l 570 705 q 610.5 691.5 596 705 q 625 652 625 678 q 610.5 612.5 625 627 q 570 598 596 598 l 375 598 l 375 58 q 359 10 375 27 q 335 -5 350 -1 l 329 -38 q 340 -37 335 -37 q 406 -56 381 -37 q 431 -109 431 -75 q 398 -171.5 431 -148 q 312 -195 365 -195"},"Ț":{"ha":621,"x_min":-3,"x_max":625,"o":"m 311 -8 q 263.5 9.5 280 -8 q 247 58 247 27 l 247 598 l 52 598 q 11.5 612.5 26 598 q -3 652 -3 627 q 11.5 691.5 -3 678 q 52 705 26 705 l 570 705 q 610.5 691.5 596 705 q 625 652 625 678 q 610.5 612.5 625 627 q 570 598 596 598 l 375 598 l 375 58 q 359 9.5 375 27 q 311 -8 343 -8 m 337 -260 q 314.5 -274 327 -272 q 292.5 -269.5 302 -276 q 281.5 -251.5 283 -263 q 290 -225 280 -240 q 305 -193 300 -211 q 307 -184 306 -189 q 261 -168 277 -183 q 243 -125 243 -153 q 260.5 -82 243 -97 q 310 -67 278 -67 q 360.5 -84 343 -67 q 378 -136 378 -101 q 373.5 -179 378 -157 q 360 -222 369 -201 q 337 -260 351 -243"},"Ṭ":{"ha":621,"x_min":-3,"x_max":625,"o":"m 311 -8 q 263.5 9.5 280 -8 q 247 58 247 27 l 247 598 l 52 598 q 11.5 612.5 26 598 q -3 652 -3 627 q 11.5 691.5 -3 678 q 52 705 26 705 l 570 705 q 610.5 691.5 596 705 q 625 652 625 678 q 610.5 612.5 625 627 q 570 598 596 598 l 375 598 l 375 58 q 359 9.5 375 27 q 311 -8 343 -8 m 311 -209 q 263 -192.5 280 -209 q 246 -146 246 -176 q 263 -100 246 -116 q 311 -84 280 -84 q 360 -100 343 -84 q 377 -146 377 -116 q 360 -192.5 377 -176 q 311 -209 343 -209"},"Ṯ":{"ha":621,"x_min":-3,"x_max":625,"o":"m 311 -8 q 263.5 9.5 280 -8 q 247 58 247 27 l 247 598 l 52 598 q 11.5 612.5 26 598 q -3 652 -3 627 q 11.5 691.5 -3 678 q 52 705 26 705 l 570 705 q 610.5 691.5 596 705 q 625 652 625 678 q 610.5 612.5 625 627 q 570 598 596 598 l 375 598 l 375 58 q 359 9.5 375 27 q 311 -8 343 -8 m 435 -165 l 188 -165 q 149 -128 149 -165 q 159 -100.5 149 -110 q 188 -91 169 -91 l 435 -91 q 474 -128 474 -91 q 464 -155 474 -145 q 435 -165 454 -165"},"U":{"ha":738,"x_min":72,"x_max":666,"o":"m 370 -10 q 241.5 9 297 -10 q 148 65.5 186 28 q 91 159 110 103 q 72 289 72 215 l 72 648 q 88.5 697 72 681 q 136 713 105 713 q 183.5 697 167 713 q 200 648 200 681 l 200 290 q 243.5 147.5 200 195 q 370 100 287 100 q 496 147.5 453 100 q 539 290 539 195 l 539 648 q 555.5 697 539 681 q 603 713 572 713 q 649.5 697 633 713 q 666 648 666 681 l 666 289 q 632.5 124 666 191 q 533 23.5 599 57 q 370 -10 467 -10"},"Ú":{"ha":738,"x_min":72,"x_max":666,"o":"m 370 -10 q 241.5 9 297 -10 q 148 65.5 186 28 q 91 159 110 103 q 72 289 72 215 l 72 648 q 88.5 697 72 681 q 136 713 105 713 q 183.5 697 167 713 q 200 648 200 681 l 200 290 q 243.5 147.5 200 195 q 370 100 287 100 q 496 147.5 453 100 q 539 290 539 195 l 539 648 q 555.5 697 539 681 q 603 713 572 713 q 649.5 697 633 713 q 666 648 666 681 l 666 289 q 632.5 124 666 191 q 533 23.5 599 57 q 370 -10 467 -10 m 517 876 l 421 771 q 394.5 757.5 409 758 q 368.5 765.5 380 757 q 353.5 787 357 774 q 359 814 350 800 l 437 929 q 463.5 949.5 448 946 q 494 947.5 479 953 q 518.5 930.5 509 942 q 529 904.5 528 919 q 517 876 530 890"},"Ŭ":{"ha":738,"x_min":72,"x_max":666,"o":"m 370 -10 q 241.5 9 297 -10 q 148 65.5 186 28 q 91 159 110 103 q 72 289 72 215 l 72 648 q 88.5 697 72 681 q 136 713 105 713 q 183.5 697 167 713 q 200 648 200 681 l 200 290 q 243.5 147.5 200 195 q 370 100 287 100 q 496 147.5 453 100 q 539 290 539 195 l 539 648 q 555.5 697 539 681 q 603 713 572 713 q 649.5 697 633 713 q 666 648 666 681 l 666 289 q 632.5 124 666 191 q 533 23.5 599 57 q 370 -10 467 -10 m 370 760 q 257.5 794.5 305 760 q 193 893 210 829 q 197.5 926 188 913 q 221 940 207 939 q 244 937.5 235 942 q 258 926 253 933 q 265 911 263 919 q 305.5 852.5 275 870 q 370 835 336 835 q 435 852.5 405 835 q 475 911 465 870 q 482 926 477 919 q 496 937.5 487 933 q 519 940 505 942 q 542.5 926 533 939 q 547 893 552 913 q 483 794.5 531 829 q 370 760 435 760"},"Û":{"ha":738,"x_min":72,"x_max":666,"o":"m 370 -10 q 241.5 9 297 -10 q 148 65.5 186 28 q 91 159 110 103 q 72 289 72 215 l 72 648 q 88.5 697 72 681 q 136 713 105 713 q 183.5 697 167 713 q 200 648 200 681 l 200 290 q 243.5 147.5 200 195 q 370 100 287 100 q 496 147.5 453 100 q 539 290 539 195 l 539 648 q 555.5 697 539 681 q 603 713 572 713 q 649.5 697 633 713 q 666 648 666 681 l 666 289 q 632.5 124 666 191 q 533 23.5 599 57 q 370 -10 467 -10 m 370 869 l 286 771 q 259 757 274 758 q 232.5 763.5 244 756 q 217.5 783.5 221 771 q 224 810 214 796 l 297 911 q 329.5 941.5 311 932 q 370 951 348 951 q 411 941.5 393 951 q 444 911 429 932 l 516 810 q 523.5 783.5 527 796 q 508.5 763.5 520 771 q 482 757 497 756 q 455 771 467 758 l 370 869"},"Ȕ":{"ha":738,"x_min":72,"x_max":666,"o":"m 370 -10 q 241.5 9 297 -10 q 148 65.5 186 28 q 91 159 110 103 q 72 289 72 215 l 72 648 q 88.5 697 72 681 q 136 713 105 713 q 183.5 697 167 713 q 200 648 200 681 l 200 290 q 243.5 147.5 200 195 q 370 100 287 100 q 496 147.5 453 100 q 539 290 539 195 l 539 648 q 555.5 697 539 681 q 603 713 572 713 q 649.5 697 633 713 q 666 648 666 681 l 666 289 q 632.5 124 666 191 q 533 23.5 599 57 q 370 -10 467 -10 m 402 773 l 323 882 q 313 912 311 898 q 325 936 315 926 q 349.5 949.5 335 946 q 378 947.5 364 953 q 400 925 392 942 l 461 803 q 463.5 777.5 468 789 q 448 760.5 459 766 q 424.5 757.5 437 755 q 402 773 412 760 m 258 770 l 171 882 q 160 912 159 898 q 170.5 936 161 926 q 194 949.5 180 946 q 222 948 208 953 q 245 926 236 943 l 310 805 q 313.5 780 317 792 q 300.5 761.5 310 768 q 279 756.5 291 755 q 258 770 267 758"},"Ü":{"ha":738,"x_min":72,"x_max":666,"o":"m 370 -10 q 241.5 9 297 -10 q 148 65.5 186 28 q 91 159 110 103 q 72 289 72 215 l 72 648 q 88.5 697 72 681 q 136 713 105 713 q 183.5 697 167 713 q 200 648 200 681 l 200 290 q 243.5 147.5 200 195 q 370 100 287 100 q 496 147.5 453 100 q 539 290 539 195 l 539 648 q 555.5 697 539 681 q 603 713 572 713 q 649.5 697 633 713 q 666 648 666 681 l 666 289 q 632.5 124 666 191 q 533 23.5 599 57 q 370 -10 467 -10 m 465 786 q 419 802 435 786 q 403 848 403 818 q 419 893 403 877 q 465 909 435 909 q 510 893 494 909 q 526 848 526 877 q 510.5 802 526 818 q 465 786 495 786 m 276 786 q 230.5 802 247 786 q 214 848 214 818 q 230.5 893 214 877 q 276 909 247 909 q 322 893 306 909 q 338 848 338 877 q 322 802 338 818 q 276 786 306 786"},"Ụ":{"ha":738,"x_min":72,"x_max":666,"o":"m 370 -10 q 241.5 9 297 -10 q 148 65.5 186 28 q 91 159 110 103 q 72 289 72 215 l 72 648 q 88.5 697 72 681 q 136 713 105 713 q 183.5 697 167 713 q 200 648 200 681 l 200 290 q 243.5 147.5 200 195 q 370 100 287 100 q 496 147.5 453 100 q 539 290 539 195 l 539 648 q 555.5 697 539 681 q 603 713 572 713 q 649.5 697 633 713 q 666 648 666 681 l 666 289 q 632.5 124 666 191 q 533 23.5 599 57 q 370 -10 467 -10 m 370 -209 q 322 -192.5 339 -209 q 305 -146 305 -176 q 322 -100 305 -116 q 370 -84 339 -84 q 419 -100 402 -84 q 436 -146 436 -116 q 419 -192.5 436 -176 q 370 -209 402 -209"},"Ù":{"ha":738,"x_min":72,"x_max":666,"o":"m 370 -10 q 241.5 9 297 -10 q 148 65.5 186 28 q 91 159 110 103 q 72 289 72 215 l 72 648 q 88.5 697 72 681 q 136 713 105 713 q 183.5 697 167 713 q 200 648 200 681 l 200 290 q 243.5 147.5 200 195 q 370 100 287 100 q 496 147.5 453 100 q 539 290 539 195 l 539 648 q 555.5 697 539 681 q 603 713 572 713 q 649.5 697 633 713 q 666 648 666 681 l 666 289 q 632.5 124 666 191 q 533 23.5 599 57 q 370 -10 467 -10 m 320 771 l 224 876 q 212 904.5 211 890 q 222.5 930.5 213 919 q 247 947.5 232 942 q 277.5 949.5 262 953 q 304 929 293 946 l 382 814 q 387.5 787 391 800 q 372.5 765.5 384 774 q 346.5 757.5 361 757 q 320 771 332 758"},"Ủ":{"ha":738,"x_min":72,"x_max":666,"o":"m 370 -10 q 241.5 9 297 -10 q 148 65.5 186 28 q 91 159 110 103 q 72 289 72 215 l 72 648 q 88.5 697 72 681 q 136 713 105 713 q 183.5 697 167 713 q 200 648 200 681 l 200 290 q 243.5 147.5 200 195 q 370 100 287 100 q 496 147.5 453 100 q 539 290 539 195 l 539 648 q 555.5 697 539 681 q 603 713 572 713 q 649.5 697 633 713 q 666 648 666 681 l 666 289 q 632.5 124 666 191 q 533 23.5 599 57 q 370 -10 467 -10 m 370 757 q 342 763.5 352 757 q 332 783 332 770 q 340.5 812 332 801 q 360 831.5 349 823 q 379.5 847.5 371 840 q 388 865 388 855 q 378 880 388 875 q 348 885 368 885 q 331.5 884 341 885 q 313 881 322 883 q 286.5 880 297 877 q 271 896 276 883 q 271.5 918.5 267 908 q 292 934 276 929 q 331.5 943 309 940 q 378 946 354 946 q 455 929 427 946 q 483 883 483 912 q 472 848 483 861 q 446 825.5 461 835 q 420 805.5 431 816 q 409 777 409 795 q 399 762.5 409 768 q 370 757 389 757"},"Ư":{"ha":738,"x_min":72,"x_max":780,"o":"m 370 -10 q 241.5 9 297 -10 q 148 65.5 186 28 q 91 159 110 103 q 72 289 72 215 l 72 648 q 88.5 697 72 681 q 136 713 105 713 q 183.5 697 167 713 q 200 648 200 681 l 200 290 q 243.5 147.5 200 195 q 370 100 287 100 q 496 147.5 453 100 q 539 290 539 195 l 539 648 q 555.5 697 539 681 q 603 713 572 713 q 621 711 613 713 q 630 715 626 713 q 660.5 744.5 651 724 q 670 797 670 765 q 684.5 829.5 670 819 q 725 840 699 840 q 765.5 830 751 840 q 780 797 780 820 q 763.5 719.5 780 753 q 717 666 747 686 q 666 644 694 651 l 666 289 q 632.5 124 666 191 q 533 23.5 599 57 q 370 -10 467 -10"},"Ứ":{"ha":738,"x_min":72,"x_max":780,"o":"m 370 -10 q 241.5 9 297 -10 q 148 65.5 186 28 q 91 159 110 103 q 72 289 72 215 l 72 648 q 88.5 697 72 681 q 136 713 105 713 q 183.5 697 167 713 q 200 648 200 681 l 200 290 q 243.5 147.5 200 195 q 370 100 287 100 q 496 147.5 453 100 q 539 290 539 195 l 539 648 q 555.5 697 539 681 q 603 713 572 713 q 621 711 613 713 q 630 715 626 713 q 660.5 744.5 651 724 q 670 797 670 765 q 684.5 829.5 670 819 q 725 840 699 840 q 765.5 830 751 840 q 780 797 780 820 q 763.5 719.5 780 753 q 717 666 747 686 q 666 644 694 651 l 666 289 q 632.5 124 666 191 q 533 23.5 599 57 q 370 -10 467 -10 m 517 876 l 421 771 q 394.5 757.5 409 758 q 368.5 765.5 380 757 q 353.5 787 357 774 q 359 814 350 800 l 437 929 q 463.5 949.5 448 946 q 494 947.5 479 953 q 518.5 930.5 509 942 q 529 904.5 528 919 q 517 876 530 890"},"Ự":{"ha":738,"x_min":72,"x_max":780,"o":"m 370 -10 q 241.5 9 297 -10 q 148 65.5 186 28 q 91 159 110 103 q 72 289 72 215 l 72 648 q 88.5 697 72 681 q 136 713 105 713 q 183.5 697 167 713 q 200 648 200 681 l 200 290 q 243.5 147.5 200 195 q 370 100 287 100 q 496 147.5 453 100 q 539 290 539 195 l 539 648 q 555.5 697 539 681 q 603 713 572 713 q 621 711 613 713 q 630 715 626 713 q 660.5 744.5 651 724 q 670 797 670 765 q 684.5 829.5 670 819 q 725 840 699 840 q 765.5 830 751 840 q 780 797 780 820 q 763.5 719.5 780 753 q 717 666 747 686 q 666 644 694 651 l 666 289 q 632.5 124 666 191 q 533 23.5 599 57 q 370 -10 467 -10 m 370 -209 q 322 -192.5 339 -209 q 305 -146 305 -176 q 322 -100 305 -116 q 370 -84 339 -84 q 419 -100 402 -84 q 436 -146 436 -116 q 419 -192.5 436 -176 q 370 -209 402 -209"},"Ừ":{"ha":738,"x_min":72,"x_max":780,"o":"m 370 -10 q 241.5 9 297 -10 q 148 65.5 186 28 q 91 159 110 103 q 72 289 72 215 l 72 648 q 88.5 697 72 681 q 136 713 105 713 q 183.5 697 167 713 q 200 648 200 681 l 200 290 q 243.5 147.5 200 195 q 370 100 287 100 q 496 147.5 453 100 q 539 290 539 195 l 539 648 q 555.5 697 539 681 q 603 713 572 713 q 621 711 613 713 q 630 715 626 713 q 660.5 744.5 651 724 q 670 797 670 765 q 684.5 829.5 670 819 q 725 840 699 840 q 765.5 830 751 840 q 780 797 780 820 q 763.5 719.5 780 753 q 717 666 747 686 q 666 644 694 651 l 666 289 q 632.5 124 666 191 q 533 23.5 599 57 q 370 -10 467 -10 m 320 771 l 224 876 q 212 904.5 211 890 q 222.5 930.5 213 919 q 247 947.5 232 942 q 277.5 949.5 262 953 q 304 929 293 946 l 382 814 q 387.5 787 391 800 q 372.5 765.5 384 774 q 346.5 757.5 361 757 q 320 771 332 758"},"Ử":{"ha":738,"x_min":72,"x_max":780,"o":"m 370 -10 q 241.5 9 297 -10 q 148 65.5 186 28 q 91 159 110 103 q 72 289 72 215 l 72 648 q 88.5 697 72 681 q 136 713 105 713 q 183.5 697 167 713 q 200 648 200 681 l 200 290 q 243.5 147.5 200 195 q 370 100 287 100 q 496 147.5 453 100 q 539 290 539 195 l 539 648 q 555.5 697 539 681 q 603 713 572 713 q 621 711 613 713 q 630 715 626 713 q 660.5 744.5 651 724 q 670 797 670 765 q 684.5 829.5 670 819 q 725 840 699 840 q 765.5 830 751 840 q 780 797 780 820 q 763.5 719.5 780 753 q 717 666 747 686 q 666 644 694 651 l 666 289 q 632.5 124 666 191 q 533 23.5 599 57 q 370 -10 467 -10 m 370 757 q 342 763.5 352 757 q 332 783 332 770 q 340.5 812 332 801 q 360 831.5 349 823 q 379.5 847.5 371 840 q 388 865 388 855 q 378 880 388 875 q 348 885 368 885 q 331.5 884 341 885 q 313 881 322 883 q 286.5 880 297 877 q 271 896 276 883 q 271.5 918.5 267 908 q 292 934 276 929 q 331.5 943 309 940 q 378 946 354 946 q 455 929 427 946 q 483 883 483 912 q 472 848 483 861 q 446 825.5 461 835 q 420 805.5 431 816 q 409 777 409 795 q 399 762.5 409 768 q 370 757 389 757"},"Ữ":{"ha":738,"x_min":72,"x_max":780,"o":"m 370 -10 q 241.5 9 297 -10 q 148 65.5 186 28 q 91 159 110 103 q 72 289 72 215 l 72 648 q 88.5 697 72 681 q 136 713 105 713 q 183.5 697 167 713 q 200 648 200 681 l 200 290 q 243.5 147.5 200 195 q 370 100 287 100 q 496 147.5 453 100 q 539 290 539 195 l 539 648 q 555.5 697 539 681 q 603 713 572 713 q 621 711 613 713 q 630 715 626 713 q 660.5 744.5 651 724 q 670 797 670 765 q 684.5 829.5 670 819 q 725 840 699 840 q 765.5 830 751 840 q 780 797 780 820 q 763.5 719.5 780 753 q 717 666 747 686 q 666 644 694 651 l 666 289 q 632.5 124 666 191 q 533 23.5 599 57 q 370 -10 467 -10 m 189 769 q 166.5 779.5 175 770 q 161 807 158 789 q 203.5 893 170 862 q 283 924 237 924 q 329 914 309 924 q 366.5 891 349 904 q 401.5 868 384 878 q 438 858 419 858 q 475 871.5 460 858 q 496 904 490 885 q 509.5 925 501 918 q 532 931 518 932 q 554.5 920.5 546 930 q 560 893 563 911 q 518 807 551 838 q 438 776 485 776 q 392.5 786 413 776 q 354 809 372 796 q 319 832 336 822 q 283 842 302 842 q 246 828.5 261 842 q 225 796 231 815 q 212 775.5 221 783 q 189 769 203 768"},"Ű":{"ha":738,"x_min":72,"x_max":666,"o":"m 370 -10 q 241.5 9 297 -10 q 148 65.5 186 28 q 91 159 110 103 q 72 289 72 215 l 72 648 q 88.5 697 72 681 q 136 713 105 713 q 183.5 697 167 713 q 200 648 200 681 l 200 290 q 243.5 147.5 200 195 q 370 100 287 100 q 496 147.5 453 100 q 539 290 539 195 l 539 648 q 555.5 697 539 681 q 603 713 572 713 q 649.5 697 633 713 q 666 648 666 681 l 666 289 q 632.5 124 666 191 q 533 23.5 599 57 q 370 -10 467 -10 m 417 882 l 338 773 q 315.5 757.5 328 760 q 292.5 760.5 303 755 q 277.5 777.5 282 766 q 280 803 273 789 l 340 925 q 362 947.5 348 942 q 390.5 949.5 376 953 q 415 936 405 946 q 427 912 425 926 q 417 882 429 898 m 570 882 l 483 770 q 461 756.5 473 758 q 439 761.5 449 755 q 426 779.5 429 768 q 430 805 423 791 l 496 926 q 519 948 505 943 q 547 949.5 533 953 q 570.5 936 561 946 q 581 912 580 926 q 570 882 582 898"},"Ȗ":{"ha":738,"x_min":72,"x_max":666,"o":"m 370 -10 q 241.5 9 297 -10 q 148 65.5 186 28 q 91 159 110 103 q 72 289 72 215 l 72 648 q 88.5 697 72 681 q 136 713 105 713 q 183.5 697 167 713 q 200 648 200 681 l 200 290 q 243.5 147.5 200 195 q 370 100 287 100 q 496 147.5 453 100 q 539 290 539 195 l 539 648 q 555.5 697 539 681 q 603 713 572 713 q 649.5 697 633 713 q 666 648 666 681 l 666 289 q 632.5 124 666 191 q 533 23.5 599 57 q 370 -10 467 -10 m 221 760 q 197.5 774.5 207 762 q 193 807 188 787 q 257.5 905.5 210 872 q 370 939 305 939 q 483 905.5 435 939 q 547 807 531 872 q 542.5 774.5 552 787 q 519 760 533 762 q 496 763 505 759 q 482 774 487 767 q 475 789 477 781 q 435 847.5 465 830 q 370 865 405 865 q 306 847.5 336 865 q 265 789 276 830 q 258 774 263 781 q 244 763 253 767 q 221 760 235 759"},"Ū":{"ha":738,"x_min":72,"x_max":666,"o":"m 370 -10 q 241.5 9 297 -10 q 148 65.5 186 28 q 91 159 110 103 q 72 289 72 215 l 72 648 q 88.5 697 72 681 q 136 713 105 713 q 183.5 697 167 713 q 200 648 200 681 l 200 290 q 243.5 147.5 200 195 q 370 100 287 100 q 496 147.5 453 100 q 539 290 539 195 l 539 648 q 555.5 697 539 681 q 603 713 572 713 q 649.5 697 633 713 q 666 648 666 681 l 666 289 q 632.5 124 666 191 q 533 23.5 599 57 q 370 -10 467 -10 m 509 806 l 232 806 q 193 843 193 806 q 203 870.5 193 861 q 232 880 213 880 l 509 880 q 548 843 548 880 q 538 816 548 826 q 509 806 528 806"},"Ṻ":{"ha":738,"x_min":72,"x_max":666,"o":"m 370 -10 q 241.5 9 297 -10 q 148 65.5 186 28 q 91 159 110 103 q 72 289 72 215 l 72 648 q 88.5 697 72 681 q 136 713 105 713 q 183.5 697 167 713 q 200 648 200 681 l 200 290 q 243.5 147.5 200 195 q 370 100 287 100 q 496 147.5 453 100 q 539 290 539 195 l 539 648 q 555.5 697 539 681 q 603 713 572 713 q 649.5 697 633 713 q 666 648 666 681 l 666 289 q 632.5 124 666 191 q 533 23.5 599 57 q 370 -10 467 -10 m 490 788 l 250 788 q 219 797.5 230 788 q 208 825 208 807 q 219 852 208 842 q 250 862 230 862 l 490 862 q 521 852 510 862 q 532 825 532 842 q 521 797.5 532 807 q 490 788 510 788 m 276 906 q 230.5 918.5 247 906 q 214 954 214 931 q 230.5 990 214 977 q 276 1003 247 1003 q 322 990 306 1003 q 338 954 338 977 q 322 918.5 338 931 q 276 906 306 906 m 465 906 q 419 918.5 435 906 q 403 954 403 931 q 419 990 403 977 q 465 1003 435 1003 q 510.5 990 495 1003 q 526 954 526 977 q 510 918.5 526 931 q 465 906 494 906"},"Ų":{"ha":738,"x_min":72,"x_max":666,"o":"m 406 -195 q 319.5 -167 351 -195 q 288 -91 288 -139 q 316 -13 288 -49 q 320 -8 318 -10 q 242 9 277 -3 q 148 65.5 186 28 q 91 159 110 103 q 72 289 72 215 l 72 648 q 88.5 697 72 681 q 136 713 105 713 q 183.5 697 167 713 q 200 648 200 681 l 200 290 q 243.5 147.5 200 195 q 370 100 287 100 q 496 147.5 453 100 q 539 290 539 195 l 539 648 q 555.5 697 539 681 q 603 713 572 713 q 649.5 697 633 713 q 666 648 666 681 l 666 289 q 632.5 124 666 191 q 533 24 599 57 q 411 -8 481 -3 q 397 -18 404 -13 q 375 -45 383 -30 q 367 -77 367 -60 q 383 -115 367 -102 q 423 -128 399 -128 q 437.5 -127 430 -128 q 453 -124 445 -126 q 481 -125.5 471 -119 q 493.5 -144.5 491 -132 q 490 -168.5 496 -157 q 469 -186 484 -180 q 436.5 -193.5 453 -192 q 406 -195 420 -195"},"Ů":{"ha":738,"x_min":72,"x_max":666,"o":"m 370 -10 q 241.5 9 297 -10 q 148 65.5 186 28 q 91 159 110 103 q 72 289 72 215 l 72 648 q 88.5 697 72 681 q 136 713 105 713 q 183.5 697 167 713 q 200 648 200 681 l 200 290 q 243.5 147.5 200 195 q 370 100 287 100 q 496 147.5 453 100 q 539 290 539 195 l 539 648 q 555.5 697 539 681 q 603 713 572 713 q 649.5 697 633 713 q 666 648 666 681 l 666 289 q 632.5 124 666 191 q 533 23.5 599 57 q 370 -10 467 -10 m 370 755 q 306 771.5 335 755 q 260.5 816 277 788 q 244 878 244 844 q 260.5 940.5 244 913 q 306 984 277 968 q 370 1000 335 1000 q 434.5 984 406 1000 q 479.5 940.5 463 968 q 496 878 496 913 q 479.5 816 496 844 q 434.5 771.5 463 788 q 370 755 406 755 m 370 812 q 417 831 399 812 q 435 878 435 850 q 417 924.5 435 906 q 370 943 399 943 q 323.5 924.5 342 943 q 305 878 305 906 q 323.5 831 305 850 q 370 812 342 812"},"Ũ":{"ha":738,"x_min":72,"x_max":666,"o":"m 370 -10 q 241.5 9 297 -10 q 148 65.5 186 28 q 91 159 110 103 q 72 289 72 215 l 72 648 q 88.5 697 72 681 q 136 713 105 713 q 183.5 697 167 713 q 200 648 200 681 l 200 290 q 243.5 147.5 200 195 q 370 100 287 100 q 496 147.5 453 100 q 539 290 539 195 l 539 648 q 555.5 697 539 681 q 603 713 572 713 q 649.5 697 633 713 q 666 648 666 681 l 666 289 q 632.5 124 666 191 q 533 23.5 599 57 q 370 -10 467 -10 m 181 769 q 156 780 165 770 q 151 807 147 790 q 197.5 893.5 163 863 q 281 924 232 924 q 333 914 309 924 q 379 891 357 904 q 421.5 868 401 878 q 462 858 442 858 q 503.5 871.5 488 858 q 524 905 519 885 q 537 925.5 528 919 q 559 931 546 932 q 584 920 575 930 q 589 893 593 910 q 543.5 806.5 577 837 q 460 776 510 776 q 407.5 786 432 776 q 361 809 383 796 q 318.5 832 339 822 q 278 842 298 842 q 237 828.5 253 842 q 216 795 221 815 q 203.5 775 212 782 q 181 769 195 768"},"Ṹ":{"ha":738,"x_min":72,"x_max":666,"o":"m 370 -10 q 241.5 9 297 -10 q 148 65.5 186 28 q 91 159 110 103 q 72 289 72 215 l 72 648 q 88.5 697 72 681 q 136 713 105 713 q 183.5 697 167 713 q 200 648 200 681 l 200 290 q 243.5 147.5 200 195 q 370 100 287 100 q 496 147.5 453 100 q 539 290 539 195 l 539 648 q 555.5 697 539 681 q 603 713 572 713 q 649.5 697 633 713 q 666 648 666 681 l 666 289 q 632.5 124 666 191 q 533 23.5 599 57 q 370 -10 467 -10 m 477 972 l 409 894 q 385.5 880.5 399 882 q 361.5 885.5 372 879 q 347 904 351 892 q 351 930 343 916 l 400 1019 q 424.5 1041 410 1036 q 453.5 1042 439 1046 q 478 1027 468 1038 q 489 1001.5 488 1016 q 477 972 490 987 m 229 765 q 207.5 776 215 766 q 204 802 200 786 q 240.5 858 214 839 q 304 877 267 877 q 353 866 331 877 q 394.5 844 375 855 q 433 833 414 833 q 460 838.5 448 833 q 477 857 472 844 q 490.5 874 482 868 q 512 879 499 880 q 534 868.5 526 878 q 537 842 542 859 q 500.5 786 527 805 q 437 767 474 767 q 387.5 778 410 767 q 346 800 365 789 q 308 811 327 811 q 281 805.5 293 811 q 264 787 269 800 q 251.5 770 260 776 q 229 765 243 764"},"V":{"ha":713,"x_min":15.5,"x_max":698.07,"o":"m 357 -8 q 312.5 4.5 330 -8 q 284 42 295 17 l 23 628 q 17 672 12 653 q 38 702 22 691 q 76 713 54 713 q 119.5 700.5 105 713 q 144 663 134 688 l 359 164 l 574 664 q 600 700.5 585 688 q 642 713 615 713 q 678.5 702 664 713 q 697 672 693 691 q 690 628 701 653 l 429 42 q 401.5 4.5 418 17 q 357 -8 385 -8"},"W":{"ha":1113,"x_min":41.43,"x_max":1073.65,"o":"m 325 -8 q 281.5 5 298 -8 q 255 46 265 18 l 46 637 q 50.5 691 35 669 q 103 713 66 713 q 145 700.5 130 713 q 169 661 160 688 l 329 185 l 497 660 q 522 700 507 687 q 561 713 537 713 q 599 700 585 713 q 623 659 613 687 l 788 178 l 953 661 q 977 700 962 687 q 1018 713 992 713 q 1065 691 1050 713 q 1069 637 1080 669 l 858 45 q 832 5 848 18 q 789 -8 816 -8 q 746 5 762 -8 q 720 46 730 18 l 557 509 l 393 45 q 367.5 5 383 18 q 325 -8 352 -8"},"Ẃ":{"ha":1113,"x_min":41.43,"x_max":1073.65,"o":"m 325 -8 q 281.5 5 298 -8 q 255 46 265 18 l 46 637 q 50.5 691 35 669 q 103 713 66 713 q 145 700.5 130 713 q 169 661 160 688 l 329 185 l 497 660 q 522 700 507 687 q 561 713 537 713 q 599 700 585 713 q 623 659 613 687 l 788 178 l 953 661 q 977 700 962 687 q 1018 713 992 713 q 1065 691 1050 713 q 1069 637 1080 669 l 858 45 q 832 5 848 18 q 789 -8 816 -8 q 746 5 762 -8 q 720 46 730 18 l 557 509 l 393 45 q 367.5 5 383 18 q 325 -8 352 -8 m 704 876 l 608 771 q 581.5 757.5 596 758 q 555.5 765.5 567 757 q 540.5 787 544 774 q 546 814 537 800 l 624 929 q 650.5 949.5 635 946 q 681 947.5 666 953 q 705.5 930.5 696 942 q 716 904.5 715 919 q 704 876 717 890"},"Ŵ":{"ha":1113,"x_min":41.43,"x_max":1073.65,"o":"m 325 -8 q 281.5 5 298 -8 q 255 46 265 18 l 46 637 q 50.5 691 35 669 q 103 713 66 713 q 145 700.5 130 713 q 169 661 160 688 l 329 185 l 497 660 q 522 700 507 687 q 561 713 537 713 q 599 700 585 713 q 623 659 613 687 l 788 178 l 953 661 q 977 700 962 687 q 1018 713 992 713 q 1065 691 1050 713 q 1069 637 1080 669 l 858 45 q 832 5 848 18 q 789 -8 816 -8 q 746 5 762 -8 q 720 46 730 18 l 557 509 l 393 45 q 367.5 5 383 18 q 325 -8 352 -8 m 557 869 l 473 771 q 446 757 461 758 q 419.5 763.5 431 756 q 404.5 783.5 408 771 q 411 810 401 796 l 484 911 q 516.5 941.5 498 932 q 557 951 535 951 q 598 941.5 580 951 q 631 911 616 932 l 703 810 q 710.5 783.5 714 796 q 695.5 763.5 707 771 q 669 757 684 756 q 642 771 654 758 l 557 869"},"Ẅ":{"ha":1113,"x_min":41.43,"x_max":1073.65,"o":"m 325 -8 q 281.5 5 298 -8 q 255 46 265 18 l 46 637 q 50.5 691 35 669 q 103 713 66 713 q 145 700.5 130 713 q 169 661 160 688 l 329 185 l 497 660 q 522 700 507 687 q 561 713 537 713 q 599 700 585 713 q 623 659 613 687 l 788 178 l 953 661 q 977 700 962 687 q 1018 713 992 713 q 1065 691 1050 713 q 1069 637 1080 669 l 858 45 q 832 5 848 18 q 789 -8 816 -8 q 746 5 762 -8 q 720 46 730 18 l 557 509 l 393 45 q 367.5 5 383 18 q 325 -8 352 -8 m 652 786 q 606 802 622 786 q 590 848 590 818 q 606 893 590 877 q 652 909 622 909 q 697 893 681 909 q 713 848 713 877 q 697.5 802 713 818 q 652 786 682 786 m 463 786 q 417.5 802 434 786 q 401 848 401 818 q 417.5 893 401 877 q 463 909 434 909 q 509 893 493 909 q 525 848 525 877 q 509 802 525 818 q 463 786 493 786"},"Ẁ":{"ha":1113,"x_min":41.43,"x_max":1073.65,"o":"m 325 -8 q 281.5 5 298 -8 q 255 46 265 18 l 46 637 q 50.5 691 35 669 q 103 713 66 713 q 145 700.5 130 713 q 169 661 160 688 l 329 185 l 497 660 q 522 700 507 687 q 561 713 537 713 q 599 700 585 713 q 623 659 613 687 l 788 178 l 953 661 q 977 700 962 687 q 1018 713 992 713 q 1065 691 1050 713 q 1069 637 1080 669 l 858 45 q 832 5 848 18 q 789 -8 816 -8 q 746 5 762 -8 q 720 46 730 18 l 557 509 l 393 45 q 367.5 5 383 18 q 325 -8 352 -8 m 507 771 l 411 876 q 399 904.5 398 890 q 409.5 930.5 400 919 q 434 947.5 419 942 q 464.5 949.5 449 953 q 491 929 480 946 l 569 814 q 574.5 787 578 800 q 559.5 765.5 571 774 q 533.5 757.5 548 757 q 507 771 519 758"},"X":{"ha":672,"x_min":41.16,"x_max":631.22,"o":"m 101 -8 q 60 5.5 76 -8 q 41.5 39.5 44 19 q 55 81 39 60 l 263 359 l 66 623 q 52 665.5 50 645 q 70 699.5 54 686 q 110 713 86 713 q 145.5 703.5 130 713 q 177 672 161 694 l 336 452 l 495 672 q 526.5 703.5 511 694 q 563 713 542 713 q 604 700 588 713 q 622 666.5 620 687 q 607 623 624 646 l 410 359 l 617 81 q 631 39.5 633 60 q 613 5.5 629 19 q 571 -8 597 -8 q 536.5 2 552 -8 q 504 34 521 12 l 336 264 l 169 34 q 137 2 153 12 q 101 -8 121 -8"},"Y":{"ha":618,"x_min":19.34,"x_max":600.52,"o":"m 309 -8 q 261.5 9.5 278 -8 q 245 59 245 27 l 245 324 l 31 625 q 19.5 663.5 18 643 q 36 698.5 21 684 q 78 713 51 713 q 114.5 703 98 713 q 146 672 131 693 l 311 438 l 477 672 q 508 703.5 493 694 q 545 713 523 713 q 585.5 699.5 571 713 q 600.5 666 600 686 q 586 624 601 646 l 373 323 l 373 59 q 309 -8 373 -8"},"Ý":{"ha":618,"x_min":19.34,"x_max":600.52,"o":"m 309 -8 q 261.5 9.5 278 -8 q 245 59 245 27 l 245 324 l 31 625 q 19.5 663.5 18 643 q 36 698.5 21 684 q 78 713 51 713 q 114.5 703 98 713 q 146 672 131 693 l 311 438 l 477 672 q 508 703.5 493 694 q 545 713 523 713 q 585.5 699.5 571 713 q 600.5 666 600 686 q 586 624 601 646 l 373 323 l 373 59 q 309 -8 373 -8 m 456 876 l 360 771 q 333.5 757.5 348 758 q 307.5 765.5 319 757 q 292.5 787 296 774 q 298 814 289 800 l 376 929 q 402.5 949.5 387 946 q 433 947.5 418 953 q 457.5 930.5 448 942 q 468 904.5 467 919 q 456 876 469 890"},"Ŷ":{"ha":618,"x_min":19.34,"x_max":600.52,"o":"m 309 -8 q 261.5 9.5 278 -8 q 245 59 245 27 l 245 324 l 31 625 q 19.5 663.5 18 643 q 36 698.5 21 684 q 78 713 51 713 q 114.5 703 98 713 q 146 672 131 693 l 311 438 l 477 672 q 508 703.5 493 694 q 545 713 523 713 q 585.5 699.5 571 713 q 600.5 666 600 686 q 586 624 601 646 l 373 323 l 373 59 q 309 -8 373 -8 m 309 869 l 225 771 q 198 757 213 758 q 171.5 763.5 183 756 q 156.5 783.5 160 771 q 163 810 153 796 l 236 911 q 268.5 941.5 250 932 q 309 951 287 951 q 350 941.5 332 951 q 383 911 368 932 l 455 810 q 462.5 783.5 466 796 q 447.5 763.5 459 771 q 421 757 436 756 q 394 771 406 758 l 309 869"},"Ÿ":{"ha":618,"x_min":19.34,"x_max":600.52,"o":"m 309 -8 q 261.5 9.5 278 -8 q 245 59 245 27 l 245 324 l 31 625 q 19.5 663.5 18 643 q 36 698.5 21 684 q 78 713 51 713 q 114.5 703 98 713 q 146 672 131 693 l 311 438 l 477 672 q 508 703.5 493 694 q 545 713 523 713 q 585.5 699.5 571 713 q 600.5 666 600 686 q 586 624 601 646 l 373 323 l 373 59 q 309 -8 373 -8 m 404 786 q 358 802 374 786 q 342 848 342 818 q 358 893 342 877 q 404 909 374 909 q 449 893 433 909 q 465 848 465 877 q 449.5 802 465 818 q 404 786 434 786 m 215 786 q 169.5 802 186 786 q 153 848 153 818 q 169.5 893 153 877 q 215 909 186 909 q 261 893 245 909 q 277 848 277 877 q 261 802 277 818 q 215 786 245 786"},"Ẏ":{"ha":618,"x_min":19.34,"x_max":600.52,"o":"m 309 -8 q 261.5 9.5 278 -8 q 245 59 245 27 l 245 324 l 31 625 q 19.5 663.5 18 643 q 36 698.5 21 684 q 78 713 51 713 q 114.5 703 98 713 q 146 672 131 693 l 311 438 l 477 672 q 508 703.5 493 694 q 545 713 523 713 q 585.5 699.5 571 713 q 600.5 666 600 686 q 586 624 601 646 l 373 323 l 373 59 q 309 -8 373 -8 m 309 789 q 261 805.5 278 789 q 244 852 244 822 q 261 898 244 882 q 309 914 278 914 q 357.5 898 341 914 q 374 852 374 882 q 357.5 805.5 374 822 q 309 789 341 789"},"Ỵ":{"ha":618,"x_min":19.34,"x_max":600.52,"o":"m 309 -8 q 261.5 9.5 278 -8 q 245 59 245 27 l 245 324 l 31 625 q 19.5 663.5 18 643 q 36 698.5 21 684 q 78 713 51 713 q 114.5 703 98 713 q 146 672 131 693 l 311 438 l 477 672 q 508 703.5 493 694 q 545 713 523 713 q 585.5 699.5 571 713 q 600.5 666 600 686 q 586 624 601 646 l 373 323 l 373 59 q 309 -8 373 -8 m 310 -209 q 262 -192.5 279 -209 q 245 -146 245 -176 q 262 -100 245 -116 q 310 -84 279 -84 q 359 -100 342 -84 q 376 -146 376 -116 q 359 -192.5 376 -176 q 310 -209 342 -209"},"Ỳ":{"ha":618,"x_min":19.34,"x_max":600.52,"o":"m 309 -8 q 261.5 9.5 278 -8 q 245 59 245 27 l 245 324 l 31 625 q 19.5 663.5 18 643 q 36 698.5 21 684 q 78 713 51 713 q 114.5 703 98 713 q 146 672 131 693 l 311 438 l 477 672 q 508 703.5 493 694 q 545 713 523 713 q 585.5 699.5 571 713 q 600.5 666 600 686 q 586 624 601 646 l 373 323 l 373 59 q 309 -8 373 -8 m 259 771 l 163 876 q 151 904.5 150 890 q 161.5 930.5 152 919 q 186 947.5 171 942 q 216.5 949.5 201 953 q 243 929 232 946 l 321 814 q 326.5 787 330 800 q 311.5 765.5 323 774 q 285.5 757.5 300 757 q 259 771 271 758"},"Ƴ":{"ha":619,"x_min":19.73,"x_max":693,"o":"m 309 -8 q 261.5 9.5 278 -8 q 245 60 245 27 l 245 324 l 31 625 q 20 663.5 18 643 q 37 698.5 22 684 q 79 713 52 713 q 108 708.5 97 713 q 128.5 693.5 119 704 q 151 665 138 683 l 311 437 l 438 621 q 484.5 672.5 460 652 q 539.5 703.5 509 693 q 608 714 570 714 q 670.5 704 648 714 q 693 661 693 694 q 688 637.5 693 647 q 675 623.5 683 628 q 657 620 667 619 q 644 621 650 621 l 631 621 q 586.5 610 609 621 q 546 573 564 599 l 373 323 l 373 60 q 309 -8 373 -8"},"Ỷ":{"ha":618,"x_min":19.34,"x_max":600.52,"o":"m 309 -8 q 261.5 9.5 278 -8 q 245 59 245 27 l 245 324 l 31 625 q 19.5 663.5 18 643 q 36 698.5 21 684 q 78 713 51 713 q 114.5 703 98 713 q 146 672 131 693 l 311 438 l 477 672 q 508 703.5 493 694 q 545 713 523 713 q 585.5 699.5 571 713 q 600.5 666 600 686 q 586 624 601 646 l 373 323 l 373 59 q 309 -8 373 -8 m 309 757 q 281 763.5 291 757 q 271 783 271 770 q 279.5 812 271 801 q 299 831.5 288 823 q 318.5 847.5 310 840 q 327 865 327 855 q 317 880 327 875 q 287 885 307 885 q 270.5 884 280 885 q 252 881 261 883 q 225.5 880 236 877 q 210 896 215 883 q 210.5 918.5 206 908 q 231 934 215 929 q 270.5 943 248 940 q 317 946 293 946 q 394 929 366 946 q 422 883 422 912 q 411 848 422 861 q 385 825.5 400 835 q 359 805.5 370 816 q 348 777 348 795 q 338 762.5 348 768 q 309 757 328 757"},"Ȳ":{"ha":618,"x_min":19.34,"x_max":600.52,"o":"m 309 -8 q 261.5 9.5 278 -8 q 245 59 245 27 l 245 324 l 31 625 q 19.5 663.5 18 643 q 36 698.5 21 684 q 78 713 51 713 q 114.5 703 98 713 q 146 672 131 693 l 311 438 l 477 672 q 508 703.5 493 694 q 545 713 523 713 q 585.5 699.5 571 713 q 600.5 666 600 686 q 586 624 601 646 l 373 323 l 373 59 q 309 -8 373 -8 m 448 806 l 171 806 q 132 843 132 806 q 142 870.5 132 861 q 171 880 152 880 l 448 880 q 487 843 487 880 q 477 816 487 826 q 448 806 467 806"},"Ỹ":{"ha":618,"x_min":19.34,"x_max":600.52,"o":"m 309 -8 q 261.5 9.5 278 -8 q 245 59 245 27 l 245 324 l 31 625 q 19.5 663.5 18 643 q 36 698.5 21 684 q 78 713 51 713 q 114.5 703 98 713 q 146 672 131 693 l 311 438 l 477 672 q 508 703.5 493 694 q 545 713 523 713 q 585.5 699.5 571 713 q 600.5 666 600 686 q 586 624 601 646 l 373 323 l 373 59 q 309 -8 373 -8 m 120 769 q 95 780 104 770 q 90 807 86 790 q 136.5 893.5 102 863 q 220 924 171 924 q 272 914 248 924 q 318 891 296 904 q 360.5 868 340 878 q 401 858 381 858 q 442.5 871.5 427 858 q 463 905 458 885 q 476 925.5 467 919 q 498 931 485 932 q 523 920 514 930 q 528 893 532 910 q 482.5 806.5 516 837 q 399 776 449 776 q 346.5 786 371 776 q 300 809 322 796 q 257.5 832 278 822 q 217 842 237 842 q 176 828.5 192 842 q 155 795 160 815 q 142.5 775 151 782 q 120 769 134 768"},"Z":{"ha":605,"x_min":39,"x_max":592,"o":"m 535 0 l 106 0 q 65.5 10 81 0 q 44.5 37.5 50 20 q 44.5 76.5 39 55 q 67 121 50 98 l 419 598 l 96 598 q 53.5 612 68 598 q 39 652 39 626 q 53.5 691.5 39 678 q 96 705 68 705 l 510 705 q 550.5 695 535 705 q 571.5 668 566 685 q 571.5 629 577 651 q 549 584 566 607 l 197 107 l 535 107 q 577.5 93.5 563 107 q 592 54 592 80 q 577.5 14 592 28 q 535 0 563 0"},"Ź":{"ha":605,"x_min":39,"x_max":592,"o":"m 535 0 l 106 0 q 65.5 10 81 0 q 44.5 37.5 50 20 q 44.5 76.5 39 55 q 67 121 50 98 l 419 598 l 96 598 q 53.5 612 68 598 q 39 652 39 626 q 53.5 691.5 39 678 q 96 705 68 705 l 510 705 q 550.5 695 535 705 q 571.5 668 566 685 q 571.5 629 577 651 q 549 584 566 607 l 197 107 l 535 107 q 577.5 93.5 563 107 q 592 54 592 80 q 577.5 14 592 28 q 535 0 563 0 m 460 876 l 364 771 q 337.5 757.5 352 758 q 311.5 765.5 323 757 q 296.5 787 300 774 q 302 814 293 800 l 380 929 q 406.5 949.5 391 946 q 437 947.5 422 953 q 461.5 930.5 452 942 q 472 904.5 471 919 q 460 876 473 890"},"Ž":{"ha":605,"x_min":39,"x_max":592,"o":"m 535 0 l 106 0 q 65.5 10 81 0 q 44.5 37.5 50 20 q 44.5 76.5 39 55 q 67 121 50 98 l 419 598 l 96 598 q 53.5 612 68 598 q 39 652 39 626 q 53.5 691.5 39 678 q 96 705 68 705 l 510 705 q 550.5 695 535 705 q 571.5 668 566 685 q 571.5 629 577 651 q 549 584 566 607 l 197 107 l 535 107 q 577.5 93.5 563 107 q 592 54 592 80 q 577.5 14 592 28 q 535 0 563 0 m 313 754 q 272.5 763.5 291 754 q 240 793 254 773 l 167 895 q 160.5 922 157 909 q 176 942.5 164 935 q 202.5 948.5 188 950 q 229 933 217 947 l 313 835 l 398 933 q 424.5 948.5 410 947 q 450.5 942.5 439 950 q 465.5 922.5 462 935 q 459 895 469 910 l 387 793 q 354.5 763.5 373 773 q 313 754 336 754"},"Ż":{"ha":605,"x_min":39,"x_max":592,"o":"m 535 0 l 106 0 q 65.5 10 81 0 q 44.5 37.5 50 20 q 44.5 76.5 39 55 q 67 121 50 98 l 419 598 l 96 598 q 53.5 612 68 598 q 39 652 39 626 q 53.5 691.5 39 678 q 96 705 68 705 l 510 705 q 550.5 695 535 705 q 571.5 668 566 685 q 571.5 629 577 651 q 549 584 566 607 l 197 107 l 535 107 q 577.5 93.5 563 107 q 592 54 592 80 q 577.5 14 592 28 q 535 0 563 0 m 313 789 q 265 805.5 282 789 q 248 852 248 822 q 265 898 248 882 q 313 914 282 914 q 361.5 898 345 914 q 378 852 378 882 q 361.5 805.5 378 822 q 313 789 345 789"},"Ẓ":{"ha":605,"x_min":39,"x_max":592,"o":"m 535 0 l 106 0 q 65.5 10 81 0 q 44.5 37.5 50 20 q 44.5 76.5 39 55 q 67 121 50 98 l 419 598 l 96 598 q 53.5 612 68 598 q 39 652 39 626 q 53.5 691.5 39 678 q 96 705 68 705 l 510 705 q 550.5 695 535 705 q 571.5 668 566 685 q 571.5 629 577 651 q 549 584 566 607 l 197 107 l 535 107 q 577.5 93.5 563 107 q 592 54 592 80 q 577.5 14 592 28 q 535 0 563 0 m 314 -209 q 266 -192.5 283 -209 q 249 -146 249 -176 q 266 -100 249 -116 q 314 -84 283 -84 q 363 -100 346 -84 q 380 -146 380 -116 q 363 -192.5 380 -176 q 314 -209 346 -209"},"a":{"ha":547,"x_min":43,"x_max":485,"o":"m 226 -10 q 131.5 10.5 173 -10 q 66.5 66 90 31 q 43 145 43 101 q 71 230.5 43 199 q 162 276 99 262 q 331 290 225 290 l 366 290 l 366 311 q 344 383 366 361 q 270 405 322 405 q 207.5 398 241 405 q 137 374 174 391 q 103.5 369 118 365 q 81 385.5 89 373 q 73 413 73 398 q 81 442.5 73 428 q 108 464 89 457 q 196.5 491 154 483 q 274 499 239 499 q 392.5 477 346 499 q 462 410.5 439 455 q 485 296 485 366 l 485 56 q 470 8.5 485 25 q 427 -8 455 -8 q 383.5 8.5 399 -8 q 368 56 368 25 l 368 77 q 349 44 361 59 q 297 4 328 18 q 226 -10 266 -10 m 366 196 l 366 218 l 332 218 q 233 212 270 218 q 180.5 191.5 196 206 q 165 151 165 177 q 188 97 165 118 q 252 76 211 76 q 310.5 91.5 285 76 q 351 134 336 107 q 366 196 366 161"},"á":{"ha":547,"x_min":43,"x_max":485,"o":"m 226 -10 q 131.5 10.5 173 -10 q 66.5 66 90 31 q 43 145 43 101 q 71 230.5 43 199 q 162 276 99 262 q 331 290 225 290 l 366 290 l 366 311 q 344 383 366 361 q 270 405 322 405 q 207.5 398 241 405 q 137 374 174 391 q 103.5 369 118 365 q 81 385.5 89 373 q 73 413 73 398 q 81 442.5 73 428 q 108 464 89 457 q 196.5 491 154 483 q 274 499 239 499 q 392.5 477 346 499 q 462 410.5 439 455 q 485 296 485 366 l 485 56 q 470 8.5 485 25 q 427 -8 455 -8 q 383.5 8.5 399 -8 q 368 56 368 25 l 368 77 q 349 44 361 59 q 297 4 328 18 q 226 -10 266 -10 m 366 196 l 366 218 l 332 218 q 233 212 270 218 q 180.5 191.5 196 206 q 165 151 165 177 q 188 97 165 118 q 252 76 211 76 q 310.5 91.5 285 76 q 351 134 336 107 q 366 196 366 161 m 423 700 l 326 560 q 302 544 316 546 q 275 549 288 542 q 256.5 569 262 556 q 259 598 251 582 l 335 747 q 359 771.5 344 766 q 390 773 374 777 q 417.5 758 406 769 q 431.5 731.5 429 747 q 423 700 434 716"},"ă":{"ha":547,"x_min":43,"x_max":485,"o":"m 226 -10 q 131.5 10.5 173 -10 q 66.5 66 90 31 q 43 145 43 101 q 71 230.5 43 199 q 162 276 99 262 q 331 290 225 290 l 366 290 l 366 311 q 344 383 366 361 q 270 405 322 405 q 207.5 398 241 405 q 137 374 174 391 q 103.5 369 118 365 q 81 385.5 89 373 q 73 413 73 398 q 81 442.5 73 428 q 108 464 89 457 q 196.5 491 154 483 q 274 499 239 499 q 392.5 477 346 499 q 462 410.5 439 455 q 485 296 485 366 l 485 56 q 470 8.5 485 25 q 427 -8 455 -8 q 383.5 8.5 399 -8 q 368 56 368 25 l 368 77 q 349 44 361 59 q 297 4 328 18 q 226 -10 266 -10 m 366 196 l 366 218 l 332 218 q 233 212 270 218 q 180.5 191.5 196 206 q 165 151 165 177 q 188 97 165 118 q 252 76 211 76 q 310.5 91.5 285 76 q 351 134 336 107 q 366 196 366 161 m 279 551 q 198 571.5 232 551 q 143.5 627.5 164 592 q 116 707 123 663 q 122.5 739.5 113 727 q 148 753 132 752 q 175.5 745 165 754 q 189 717 186 736 q 221 649.5 197 672 q 279 627 245 627 q 337.5 649.5 313 627 q 369 717 362 672 q 383 745 372 736 q 410 753 394 754 q 436 739.5 427 752 q 442 707 445 727 q 415 627.5 436 663 q 360 571.5 394 592 q 279 551 326 551"},"ắ":{"ha":547,"x_min":43,"x_max":485,"o":"m 226 -10 q 131.5 10.5 173 -10 q 66.5 66 90 31 q 43 145 43 101 q 71 230.5 43 199 q 162 276 99 262 q 331 290 225 290 l 366 290 l 366 311 q 344 383 366 361 q 270 405 322 405 q 207.5 398 241 405 q 137 374 174 391 q 103.5 369 118 365 q 81 385.5 89 373 q 73 413 73 398 q 81 442.5 73 428 q 108 464 89 457 q 196.5 491 154 483 q 274 499 239 499 q 392.5 477 346 499 q 462 410.5 439 455 q 485 296 485 366 l 485 56 q 470 8.5 485 25 q 427 -8 455 -8 q 383.5 8.5 399 -8 q 368 56 368 25 l 368 77 q 349 44 361 59 q 297 4 328 18 q 226 -10 266 -10 m 366 196 l 366 218 l 332 218 q 233 212 270 218 q 180.5 191.5 196 206 q 165 151 165 177 q 188 97 165 118 q 252 76 211 76 q 310.5 91.5 285 76 q 351 134 336 107 q 366 196 366 161 m 279 551 q 171 584 214 551 q 114 671 128 617 q 116.5 701.5 110 690 q 137 714 123 713 q 160.5 711 151 716 q 175 689 170 706 q 211 640 185 659 q 279 621 237 621 q 347 640 321 621 q 383 689 373 659 q 397.5 711 388 706 q 421 714 407 716 q 442 701.5 435 713 q 444 671 449 690 q 413.5 608 436 635 q 357 566 391 581 q 279 551 323 551 m 380 756 l 312 678 q 288 664.5 301 666 q 264 669.5 275 663 q 249 687.5 253 676 q 253 713 245 699 l 304 805 q 327.5 826.5 313 822 q 356.5 826.5 342 831 q 381 811 371 822 q 392 785.5 391 800 q 380 756 393 771"},"ặ":{"ha":547,"x_min":43,"x_max":485,"o":"m 226 -10 q 131.5 10.5 173 -10 q 66.5 66 90 31 q 43 145 43 101 q 71 230.5 43 199 q 162 276 99 262 q 331 290 225 290 l 366 290 l 366 311 q 344 383 366 361 q 270 405 322 405 q 207.5 398 241 405 q 137 374 174 391 q 103.5 369 118 365 q 81 385.5 89 373 q 73 413 73 398 q 81 442.5 73 428 q 108 464 89 457 q 196.5 491 154 483 q 274 499 239 499 q 392.5 477 346 499 q 462 410.5 439 455 q 485 296 485 366 l 485 56 q 470 8.5 485 25 q 427 -8 455 -8 q 383.5 8.5 399 -8 q 368 56 368 25 l 368 77 q 349 44 361 59 q 297 4 328 18 q 226 -10 266 -10 m 366 196 l 366 218 l 332 218 q 233 212 270 218 q 180.5 191.5 196 206 q 165 151 165 177 q 188 97 165 118 q 252 76 211 76 q 310.5 91.5 285 76 q 351 134 336 107 q 366 196 366 161 m 275 -209 q 227 -192.5 244 -209 q 210 -146 210 -176 q 227 -100 210 -116 q 275 -84 244 -84 q 324 -100 307 -84 q 341 -146 341 -116 q 324 -192.5 341 -176 q 275 -209 307 -209 m 279 551 q 198 571.5 232 551 q 143.5 627.5 164 592 q 116 707 123 663 q 122.5 739.5 113 727 q 148 753 132 752 q 175.5 745 165 754 q 189 717 186 736 q 221 649.5 197 672 q 279 627 245 627 q 337.5 649.5 313 627 q 369 717 362 672 q 383 745 372 736 q 410 753 394 754 q 436 739.5 427 752 q 442 707 445 727 q 415 627.5 436 663 q 360 571.5 394 592 q 279 551 326 551"},"ằ":{"ha":547,"x_min":43,"x_max":485,"o":"m 226 -10 q 131.5 10.5 173 -10 q 66.5 66 90 31 q 43 145 43 101 q 71 230.5 43 199 q 162 276 99 262 q 331 290 225 290 l 366 290 l 366 311 q 344 383 366 361 q 270 405 322 405 q 207.5 398 241 405 q 137 374 174 391 q 103.5 369 118 365 q 81 385.5 89 373 q 73 413 73 398 q 81 442.5 73 428 q 108 464 89 457 q 196.5 491 154 483 q 274 499 239 499 q 392.5 477 346 499 q 462 410.5 439 455 q 485 296 485 366 l 485 56 q 470 8.5 485 25 q 427 -8 455 -8 q 383.5 8.5 399 -8 q 368 56 368 25 l 368 77 q 349 44 361 59 q 297 4 328 18 q 226 -10 266 -10 m 366 196 l 366 218 l 332 218 q 233 212 270 218 q 180.5 191.5 196 206 q 165 151 165 177 q 188 97 165 118 q 252 76 211 76 q 310.5 91.5 285 76 q 351 134 336 107 q 366 196 366 161 m 279 551 q 170.5 584 214 551 q 114 671 127 617 q 116.5 701.5 110 690 q 137 714 123 713 q 160.5 711 151 716 q 175 689 170 706 q 211 640 185 659 q 279 621 237 621 q 347 640 321 621 q 383 689 373 659 q 397.5 711 388 706 q 421 714 407 716 q 442 701.5 435 713 q 444 671 449 690 q 412.5 608 435 635 q 356.5 566 390 581 q 279 551 323 551 m 246 678 l 178 756 q 166 785.5 165 771 q 177 811 167 800 q 201.5 826.5 187 822 q 230.5 826.5 216 831 q 254 805 245 822 l 305 713 q 309 687.5 313 699 q 294 669.5 305 676 q 270 664.5 283 663 q 246 678 257 666"},"ẳ":{"ha":547,"x_min":43,"x_max":485,"o":"m 226 -10 q 131.5 10.5 173 -10 q 66.5 66 90 31 q 43 145 43 101 q 71 230.5 43 199 q 162 276 99 262 q 331 290 225 290 l 366 290 l 366 311 q 344 383 366 361 q 270 405 322 405 q 207.5 398 241 405 q 137 374 174 391 q 103.5 369 118 365 q 81 385.5 89 373 q 73 413 73 398 q 81 442.5 73 428 q 108 464 89 457 q 196.5 491 154 483 q 274 499 239 499 q 392.5 477 346 499 q 462 410.5 439 455 q 485 296 485 366 l 485 56 q 470 8.5 485 25 q 427 -8 455 -8 q 383.5 8.5 399 -8 q 368 56 368 25 l 368 77 q 349 44 361 59 q 297 4 328 18 q 226 -10 266 -10 m 366 196 l 366 218 l 332 218 q 233 212 270 218 q 180.5 191.5 196 206 q 165 151 165 177 q 188 97 165 118 q 252 76 211 76 q 310.5 91.5 285 76 q 351 134 336 107 q 366 196 366 161 m 279 551 q 170.5 584 214 551 q 114 671 127 617 q 116.5 701.5 110 690 q 137 714 123 713 q 160.5 711 151 716 q 175 689 170 706 q 211 640 185 659 q 279 621 237 621 q 347 640 321 621 q 383 689 373 659 q 397.5 711 388 706 q 421 714 407 716 q 442 701.5 435 713 q 444 671 449 690 q 413.5 608 436 635 q 357 566 391 581 q 279 551 323 551 m 304 671 q 283 666 294 665 q 264 672.5 272 667 q 255 686 256 678 q 264 701 254 694 q 288 723 281 713 q 295 746 295 733 q 286 763.5 295 758 q 259 769 277 769 q 243.5 768 252 769 q 226 765 235 767 q 203 765 212 761 q 190 780 194 769 q 190.5 799.5 186 791 q 210 813 195 808 q 246.5 821 228 819 q 285 823 265 823 q 354 809 329 823 q 379 766 379 795 q 368 729 379 747 q 340 696.5 357 711 q 304 671 323 682"},"ẵ":{"ha":547,"x_min":43,"x_max":485,"o":"m 226 -10 q 131.5 10.5 173 -10 q 66.5 66 90 31 q 43 145 43 101 q 71 230.5 43 199 q 162 276 99 262 q 331 290 225 290 l 366 290 l 366 311 q 344 383 366 361 q 270 405 322 405 q 207.5 398 241 405 q 137 374 174 391 q 103.5 369 118 365 q 81 385.5 89 373 q 73 413 73 398 q 81 442.5 73 428 q 108 464 89 457 q 196.5 491 154 483 q 274 499 239 499 q 392.5 477 346 499 q 462 410.5 439 455 q 485 296 485 366 l 485 56 q 470 8.5 485 25 q 427 -8 455 -8 q 383.5 8.5 399 -8 q 368 56 368 25 l 368 77 q 349 44 361 59 q 297 4 328 18 q 226 -10 266 -10 m 366 196 l 366 218 l 332 218 q 233 212 270 218 q 180.5 191.5 196 206 q 165 151 165 177 q 188 97 165 118 q 252 76 211 76 q 310.5 91.5 285 76 q 351 134 336 107 q 366 196 366 161 m 279 551 q 179.5 574.5 221 551 q 121 633 138 598 q 118 661.5 113 650 q 137 677 123 673 q 161 679 152 682 q 179 663 170 676 q 217 632.5 192 644 q 279 621 242 621 q 341.5 632.5 317 621 q 379 663 366 644 q 397 679 388 676 q 421 677 406 682 q 440 661.5 435 673 q 437 633 445 650 q 379 574.5 420 598 q 279 551 338 551 m 138 710 q 116.5 721 124 711 q 113 747 109 731 q 149.5 803 123 784 q 213 822 176 822 q 262 811 240 822 q 303.5 789 284 800 q 342 778 323 778 q 369 783.5 357 778 q 386 802 381 789 q 399.5 819 391 813 q 421 824 408 825 q 443 813.5 435 823 q 446 787 451 804 q 409.5 731 436 750 q 346 712 383 712 q 296.5 723 319 712 q 255 745 274 734 q 217 756 236 756 q 190 750.5 202 756 q 173 732 178 745 q 160.5 715 169 721 q 138 710 152 709"},"ǎ":{"ha":547,"x_min":43,"x_max":485,"o":"m 226 -10 q 131.5 10.5 173 -10 q 66.5 66 90 31 q 43 145 43 101 q 71 230.5 43 199 q 162 276 99 262 q 331 290 225 290 l 366 290 l 366 311 q 344 383 366 361 q 270 405 322 405 q 207.5 398 241 405 q 137 374 174 391 q 103.5 369 118 365 q 81 385.5 89 373 q 73 413 73 398 q 81 442.5 73 428 q 108 464 89 457 q 196.5 491 154 483 q 274 499 239 499 q 392.5 477 346 499 q 462 410.5 439 455 q 485 296 485 366 l 485 56 q 470 8.5 485 25 q 427 -8 455 -8 q 383.5 8.5 399 -8 q 368 56 368 25 l 368 77 q 349 44 361 59 q 297 4 328 18 q 226 -10 266 -10 m 366 196 l 366 218 l 332 218 q 233 212 270 218 q 180.5 191.5 196 206 q 165 151 165 177 q 188 97 165 118 q 252 76 211 76 q 310.5 91.5 285 76 q 351 134 336 107 q 366 196 366 161 m 279 536 q 238.5 548.5 256 536 q 209 583 221 561 l 137 714 q 133 743 128 730 q 150 762.5 138 756 q 175.5 767 162 769 q 198 751 189 765 l 279 625 l 360 751 q 382.5 767 369 765 q 408 762.5 396 769 q 425 743 420 756 q 421 714 430 730 l 350 583 q 320 548.5 338 561 q 279 536 302 536"},"â":{"ha":547,"x_min":43,"x_max":485,"o":"m 226 -10 q 131.5 10.5 173 -10 q 66.5 66 90 31 q 43 145 43 101 q 71 230.5 43 199 q 162 276 99 262 q 331 290 225 290 l 366 290 l 366 311 q 344 383 366 361 q 270 405 322 405 q 207.5 398 241 405 q 137 374 174 391 q 103.5 369 118 365 q 81 385.5 89 373 q 73 413 73 398 q 81 442.5 73 428 q 108 464 89 457 q 196.5 491 154 483 q 274 499 239 499 q 392.5 477 346 499 q 462 410.5 439 455 q 485 296 485 366 l 485 56 q 470 8.5 485 25 q 427 -8 455 -8 q 383.5 8.5 399 -8 q 368 56 368 25 l 368 77 q 349 44 361 59 q 297 4 328 18 q 226 -10 266 -10 m 366 196 l 366 218 l 332 218 q 233 212 270 218 q 180.5 191.5 196 206 q 165 151 165 177 q 188 97 165 118 q 252 76 211 76 q 310.5 91.5 285 76 q 351 134 336 107 q 366 196 366 161 m 350 729 l 421 597 q 425 568 430 581 q 408 548.5 420 555 q 382.5 544 396 542 q 360 560 369 546 l 279 686 l 198 560 q 175.5 544 189 546 q 150 548.5 162 542 q 133 568 138 555 q 137 597 128 581 l 209 729 q 238.5 763 221 752 q 279 774 256 774 q 320 763 302 774 q 350 729 338 752"},"ấ":{"ha":547,"x_min":43,"x_max":545.08,"o":"m 226 -10 q 131.5 10.5 173 -10 q 66.5 66 90 31 q 43 145 43 101 q 71 230.5 43 199 q 162 276 99 262 q 331 290 225 290 l 366 290 l 366 311 q 344 383 366 361 q 270 405 322 405 q 207.5 398 241 405 q 137 374 174 391 q 103.5 369 118 365 q 81 385.5 89 373 q 73 413 73 398 q 81 442.5 73 428 q 108 464 89 457 q 196.5 491 154 483 q 274 499 239 499 q 392.5 477 346 499 q 462 410.5 439 455 q 485 296 485 366 l 485 56 q 470 8.5 485 25 q 427 -8 455 -8 q 383.5 8.5 399 -8 q 368 56 368 25 l 368 77 q 349 44 361 59 q 297 4 328 18 q 226 -10 266 -10 m 366 196 l 366 218 l 332 218 q 233 212 270 218 q 180.5 191.5 196 206 q 165 151 165 177 q 188 97 165 118 q 252 76 211 76 q 310.5 91.5 285 76 q 351 134 336 107 q 366 196 366 161 m 279 649 l 198 558 q 172.5 543 186 545 q 148.5 548 159 541 q 135 567.5 138 555 q 142 595 132 580 l 207 692 q 239.5 722.5 222 714 q 279 731 257 731 q 307 727.5 294 731 q 331 715.5 320 724 q 351 692 342 707 l 416 595 q 423.5 567.5 426 580 q 411 548 421 555 q 387 543 401 541 q 361 558 373 545 l 279 649 m 535 757 l 454 654 q 433 640.5 445 642 q 411.5 645 421 639 q 399 662.5 402 651 q 404 689 396 674 l 466 799 q 488 819.5 475 815 q 514 820.5 501 824 q 535.5 807.5 527 817 q 545 784.5 544 798 q 535 757 546 771"}}}
